<svg width="30" height="30" viewBox="0 0 30 30" fill="none" xmlns="http://www.w3.org/2000/svg">
<path d="M9.26127 4.1511C9.31153 4.15093 9.3618 4.15076 9.41359 4.15059C9.5518 4.15021 9.69 4.15023 9.82822 4.15042C9.97778 4.15053 10.1274 4.15013 10.2769 4.14979C10.5694 4.14923 10.8619 4.14915 11.1544 4.14925C11.3923 4.14933 11.6301 4.14926 11.868 4.14907C11.9189 4.14903 11.9189 4.14903 11.9708 4.14899C12.0397 4.14893 12.1087 4.14888 12.1776 4.14883C12.8232 4.14834 13.4688 4.14844 14.1144 4.14871C14.7043 4.14894 15.2941 4.14844 15.884 4.1476C16.4906 4.14674 17.0972 4.14637 17.7038 4.14654C18.044 4.14663 18.3842 4.14652 18.7244 4.14589C19.014 4.14536 19.3036 4.1453 19.5931 4.14584C19.7407 4.1461 19.8883 4.14615 20.0358 4.14561C20.1962 4.14515 20.3566 4.14551 20.5169 4.14607C20.586 4.14558 20.586 4.14558 20.6565 4.14508C21.2833 4.14967 21.8853 4.34999 22.3451 4.80998C23.029 5.60047 23.0347 6.43105 23.0345 7.44465C23.0346 7.53907 23.0347 7.63348 23.0349 7.7279C23.0353 7.98314 23.0354 8.23838 23.0354 8.49362C23.0354 8.65314 23.0355 8.81266 23.0356 8.97218C23.036 9.52878 23.0362 10.0854 23.0362 10.642C23.0361 11.1608 23.0366 11.6797 23.0373 12.1985C23.0378 12.6443 23.038 13.0901 23.038 13.5359C23.038 13.8021 23.0381 14.0682 23.0386 14.3343C23.039 14.5843 23.039 14.8342 23.0387 15.0841C23.0386 15.1759 23.0387 15.2677 23.039 15.3594C23.0393 15.4846 23.0391 15.6097 23.0388 15.7348C23.039 15.7712 23.0392 15.8076 23.0394 15.8452C23.038 16.0879 23.0133 16.2542 22.8672 16.4442C22.7574 16.5363 22.7041 16.5626 22.5634 16.5661C22.3926 16.5136 22.2957 16.4778 22.1962 16.3203C22.1262 16.1272 22.1231 15.966 22.1247 15.7614C22.1245 15.7209 22.1243 15.6805 22.1241 15.6388C22.1236 15.5034 22.124 15.368 22.1244 15.2326C22.1243 15.1355 22.124 15.0383 22.1238 14.9412C22.1233 14.7321 22.1232 14.5229 22.1234 14.3138C22.1236 13.983 22.123 13.6522 22.1222 13.3214C22.1211 12.8575 22.1204 12.3937 22.1201 11.9298C22.12 11.9004 22.12 11.8709 22.12 11.8406C22.1198 11.6319 22.1197 11.4231 22.1196 11.2143C22.1194 10.9761 22.1193 10.7378 22.1191 10.4996C22.1191 10.4556 22.1191 10.4556 22.119 10.4106C22.1187 9.92073 22.1178 9.43081 22.1166 8.94089C22.1158 8.61218 22.1156 8.28348 22.116 7.95476C22.116 7.75007 22.1156 7.54537 22.115 7.34067C22.1148 7.2459 22.1148 7.15114 22.1151 7.05637C22.1155 6.92674 22.1151 6.79714 22.1144 6.66751C22.1147 6.63024 22.115 6.59297 22.1153 6.55458C22.1116 6.14291 21.9941 5.78906 21.718 5.49158C21.1652 5.02334 20.724 5.12323 19.9428 5.0929C19.9428 11.7296 19.9428 18.3663 19.9428 25.2041C20.9825 25.2131 20.9825 25.2131 21.8026 24.7169C22.1008 24.3273 22.1108 23.9379 22.1099 23.4555C22.1101 23.3951 22.1103 23.3348 22.1106 23.2744C22.1111 23.145 22.1113 23.0155 22.1113 22.886C22.1114 22.6813 22.1122 22.4765 22.1131 22.2717C22.1151 21.7633 22.1164 21.2549 22.1173 20.7465C22.118 20.3509 22.119 19.9553 22.1208 19.5598C22.1218 19.3563 22.1221 19.1528 22.122 18.9492C22.1221 18.8227 22.1227 18.6961 22.1234 18.5695C22.1238 18.483 22.1235 18.3964 22.1232 18.3099C22.1236 18.2582 22.124 18.2065 22.1244 18.1533C22.1245 18.1085 22.1246 18.0637 22.1247 18.0175C22.1481 17.8383 22.223 17.7218 22.3415 17.5932C22.4817 17.5156 22.5763 17.5176 22.7325 17.5406C22.8906 17.6695 22.9663 17.7865 23.0283 17.9836C23.039 18.0996 23.039 18.0996 23.0391 18.2261C23.0393 18.2742 23.0395 18.3224 23.0398 18.372C23.0395 18.4507 23.0395 18.4507 23.0393 18.5309C23.0395 18.6142 23.0395 18.6142 23.0397 18.6993C23.04 18.8515 23.04 19.0037 23.0397 19.156C23.0395 19.3159 23.0397 19.4759 23.0398 19.6359C23.04 19.9049 23.0398 20.174 23.0394 20.4431C23.0389 20.7526 23.039 21.0621 23.0395 21.3717C23.0399 21.6384 23.0399 21.9051 23.0397 22.1719C23.0396 22.3307 23.0396 22.4896 23.0399 22.6484C23.043 24.6961 23.043 24.6961 22.3479 25.4815C21.8744 25.9543 21.3388 26.1034 20.7034 26.103C20.6276 26.1035 20.6277 26.1035 20.5504 26.104C20.4109 26.1048 20.2714 26.1052 20.132 26.1054C19.9813 26.1058 19.8306 26.1066 19.6799 26.1074C19.3849 26.1089 19.09 26.1098 18.795 26.1107C18.5551 26.1113 18.3152 26.1122 18.0753 26.1131C18.0412 26.1133 18.007 26.1134 17.9718 26.1135C17.9023 26.1138 17.8329 26.1141 17.7634 26.1144C17.1125 26.117 16.4616 26.119 15.8107 26.1209C15.2529 26.1225 14.6951 26.1246 14.1373 26.127C13.4889 26.1298 12.8405 26.1324 12.1922 26.1344C12.1229 26.1346 12.0537 26.1349 11.9844 26.1351C11.9504 26.1352 11.9163 26.1353 11.8812 26.1354C11.6419 26.1362 11.4025 26.1372 11.1632 26.1383C10.8711 26.1396 10.5791 26.1406 10.287 26.1411C10.1382 26.1414 9.98936 26.1419 9.84051 26.1427C9.67875 26.1435 9.517 26.1438 9.35523 26.144C9.30875 26.1443 9.26227 26.1447 9.21438 26.1451C8.67544 26.1441 8.21194 26.0737 7.76965 25.7357C7.74568 25.7176 7.72171 25.6995 7.69701 25.6809C7.35086 25.3984 7.13514 24.9593 7.06945 24.5084C7.03821 24.1856 7.04513 23.8607 7.04545 23.5366C7.04537 23.4614 7.04527 23.3862 7.04516 23.3109C7.0449 23.1047 7.04491 22.8986 7.04496 22.6924C7.04496 22.4698 7.04473 22.2473 7.04453 22.0247C7.04418 21.5888 7.04406 21.153 7.04404 20.7172C7.04402 20.3629 7.04393 20.0086 7.0438 19.6542C7.04343 18.6493 7.04323 17.6444 7.04326 16.6395C7.04327 16.5854 7.04327 16.5312 7.04327 16.4755C7.04327 16.4212 7.04327 16.367 7.04327 16.3112C7.04329 15.4324 7.04289 14.5537 7.04229 13.6749C7.04168 12.7723 7.04139 11.8696 7.04143 10.967C7.04144 10.4604 7.04133 9.95376 7.04087 9.44714C7.04049 9.01582 7.04039 8.58451 7.04068 8.1532C7.04082 7.93324 7.04082 7.71328 7.04046 7.49332C7.04012 7.29174 7.04018 7.09017 7.04055 6.88859C7.04062 6.81589 7.04054 6.74318 7.0403 6.67048C7.03807 5.93299 7.09083 5.262 7.59282 4.6963C8.07587 4.22585 8.62374 4.14879 9.26127 4.1511ZM15.0397 5.0929C15.0397 11.7296 15.0397 18.3663 15.0397 25.2041C15.5279 25.2041 16.0161 25.2041 16.5191 25.2041C16.5191 18.5674 16.5191 11.9307 16.5191 5.0929C16.0309 5.0929 15.5427 5.0929 15.0397 5.0929ZM17.3644 5.0929C17.3644 11.7296 17.3644 18.3663 17.3644 25.2041C17.9363 25.2041 18.5082 25.2041 19.0974 25.2041C19.0974 18.5674 19.0974 11.9307 19.0974 5.0929C18.5255 5.0929 17.9537 5.0929 17.3644 5.0929Z" fill="#5F9CF7"/>
<path d="M9.26127 4.1511C9.31153 4.15093 9.3618 4.15076 9.41359 4.15059C9.5518 4.15021 9.69 4.15023 9.82822 4.15042C9.97778 4.15053 10.1274 4.15013 10.2769 4.14979C10.5694 4.14923 10.8619 4.14915 11.1544 4.14925C11.3923 4.14933 11.6301 4.14926 11.868 4.14907C11.9189 4.14903 11.9189 4.14903 11.9708 4.14899C12.0397 4.14893 12.1087 4.14888 12.1776 4.14883C12.8232 4.14834 13.4688 4.14844 14.1144 4.14871C14.7043 4.14894 15.2941 4.14844 15.884 4.1476C16.4906 4.14674 17.0972 4.14637 17.7038 4.14654C18.044 4.14663 18.3842 4.14652 18.7244 4.14589C19.014 4.14536 19.3036 4.1453 19.5931 4.14584C19.7407 4.1461 19.8883 4.14615 20.0358 4.14561C20.1962 4.14515 20.3566 4.14551 20.5169 4.14607C20.586 4.14558 20.586 4.14558 20.6565 4.14508C21.2833 4.14967 21.8853 4.34999 22.3451 4.80998C23.029 5.60047 23.0347 6.43105 23.0345 7.44465C23.0346 7.53907 23.0347 7.63348 23.0349 7.7279C23.0353 7.98314 23.0354 8.23838 23.0354 8.49362C23.0354 8.65314 23.0355 8.81266 23.0356 8.97218C23.036 9.52878 23.0362 10.0854 23.0362 10.642C23.0361 11.1608 23.0366 11.6797 23.0373 12.1985C23.0378 12.6443 23.038 13.0901 23.038 13.5359C23.038 13.8021 23.0381 14.0682 23.0386 14.3343C23.039 14.5843 23.039 14.8342 23.0387 15.0841C23.0386 15.1759 23.0387 15.2677 23.039 15.3594C23.0393 15.4846 23.0391 15.6097 23.0388 15.7348C23.039 15.7712 23.0392 15.8076 23.0394 15.8452C23.038 16.0879 23.0139 17.94 23.0139 17.94C23.0139 17.94 22.8732 17.5372 22.7325 17.5406C22.5617 17.4882 22.1247 18.0175 22.1247 18.0175C22.1247 18.0175 22.1231 15.966 22.1247 15.7614C22.1245 15.7209 22.1243 15.6805 22.1241 15.6388C22.1236 15.5034 22.124 15.368 22.1244 15.2326C22.1243 15.1355 22.124 15.0383 22.1238 14.9412C22.1233 14.7321 22.1232 14.5229 22.1234 14.3138C22.1236 13.983 22.123 13.6522 22.1221 13.3214C22.1211 12.8575 22.1204 12.3937 22.1201 11.9298C22.12 11.9004 22.12 11.8709 22.12 11.8406C22.1198 11.6319 22.1197 11.4231 22.1196 11.2143C22.1194 10.9761 22.1193 10.7378 22.1191 10.4996C22.1191 10.4556 22.1191 10.4556 22.119 10.4106C22.1187 9.92073 22.1178 9.43081 22.1166 8.94089C22.1158 8.61218 22.1156 8.28348 22.1159 7.95476C22.116 7.75006 22.1156 7.54537 22.115 7.34067C22.1148 7.2459 22.1148 7.15114 22.1151 7.05637C22.1155 6.92674 22.1151 6.79714 22.1144 6.66751C22.1147 6.63024 22.115 6.59297 22.1153 6.55458C22.1116 6.14291 21.9941 5.78906 21.718 5.49158C21.1652 5.02334 20.724 5.12323 19.9428 5.0929C19.9428 11.7296 19.9428 18.3663 19.9428 25.2041C20.9825 25.2131 20.9825 25.2131 21.8026 24.7169C22.1008 24.3273 22.1108 23.9379 22.1099 23.4555C22.1101 23.3951 22.1103 23.3348 22.1106 23.2744C22.1111 23.145 22.1113 23.0155 22.1113 22.886C22.1114 22.6813 22.1122 22.4765 22.1131 22.2717C22.1151 21.7633 22.1164 21.2549 22.1173 20.7465C22.118 20.3509 22.119 19.9553 22.1208 19.5598C22.1218 19.3563 22.1221 19.1528 22.122 18.9492C22.1221 18.8227 22.1227 18.6961 22.1234 18.5695C22.1238 18.483 22.1235 18.3964 22.1232 18.3099C22.1236 18.2582 22.124 18.2065 22.1244 18.1533C22.1245 18.1085 22.1247 18.0175 22.1247 18.0175C22.1247 18.0175 22.223 17.7218 22.3415 17.5932C22.4817 17.5156 22.5763 17.5176 22.7325 17.5406C22.8906 17.6695 22.9663 17.7865 23.0283 17.9836C23.039 18.0996 23.039 18.0996 23.0391 18.2261C23.0393 18.2742 23.0395 18.3224 23.0398 18.372C23.0395 18.4507 23.0395 18.4507 23.0393 18.5309C23.0395 18.6142 23.0395 18.6142 23.0397 18.6993C23.04 18.8515 23.04 19.0037 23.0397 19.156C23.0395 19.3159 23.0397 19.4759 23.0398 19.6359C23.04 19.9049 23.0398 20.174 23.0394 20.4431C23.0389 20.7526 23.039 21.0621 23.0395 21.3717C23.0399 21.6384 23.0399 21.9051 23.0397 22.1719C23.0396 22.3307 23.0396 22.4896 23.0399 22.6484C23.043 24.6961 23.043 24.6961 22.3479 25.4815C21.8744 25.9543 21.3388 26.1034 20.7034 26.103C20.6276 26.1035 20.6276 26.1035 20.5504 26.104C20.4109 26.1048 20.2714 26.1052 20.132 26.1054C19.9813 26.1058 19.8306 26.1066 19.6799 26.1074C19.3849 26.1089 19.09 26.1098 18.795 26.1107C18.5551 26.1113 18.3152 26.1122 18.0753 26.1131C18.0412 26.1133 18.007 26.1134 17.9718 26.1135C17.9023 26.1138 17.8329 26.1141 17.7634 26.1144C17.1125 26.117 16.4616 26.119 15.8107 26.1209C15.2529 26.1225 14.6951 26.1246 14.1373 26.127C13.4889 26.1298 12.8405 26.1324 12.1921 26.1344C12.1229 26.1346 12.0537 26.1349 11.9844 26.1351C11.9504 26.1352 11.9163 26.1353 11.8812 26.1354C11.6419 26.1362 11.4025 26.1372 11.1632 26.1383C10.8711 26.1396 10.5791 26.1406 10.287 26.1411C10.1382 26.1414 9.98936 26.1419 9.84051 26.1427C9.67875 26.1435 9.517 26.1438 9.35523 26.144C9.30875 26.1443 9.26227 26.1447 9.21438 26.1451C8.67544 26.1441 8.21194 26.0737 7.76965 25.7357C7.74568 25.7176 7.72171 25.6995 7.69701 25.6809C7.35086 25.3984 7.13514 24.9593 7.06945 24.5084C7.03821 24.1856 7.04513 23.8607 7.04545 23.5366C7.04537 23.4614 7.04527 23.3862 7.04516 23.3109C7.0449 23.1047 7.04491 22.8986 7.04496 22.6924C7.04496 22.4698 7.04473 22.2473 7.04453 22.0247C7.04418 21.5888 7.04406 21.153 7.04404 20.7172C7.04402 20.3629 7.04393 20.0086 7.0438 19.6542C7.04343 18.6493 7.04323 17.6444 7.04326 16.6395C7.04327 16.5854 7.04327 16.5312 7.04327 16.4755C7.04327 16.4212 7.04327 16.367 7.04327 16.3112C7.04329 15.4324 7.04289 14.5537 7.04229 13.6749C7.04168 12.7723 7.04139 11.8696 7.04143 10.967C7.04144 10.4604 7.04133 9.95376 7.04087 9.44713C7.04049 9.01582 7.04039 8.58451 7.04068 8.1532C7.04082 7.93324 7.04082 7.71328 7.04046 7.49332C7.04012 7.29174 7.04018 7.09017 7.04055 6.88859C7.04062 6.81589 7.04054 6.74318 7.0403 6.67048C7.03807 5.93299 7.09083 5.262 7.59282 4.6963C8.07587 4.22585 8.62374 4.14879 9.26127 4.1511ZM8.1078 5.40299C7.92695 5.66272 7.88592 5.9445 7.88558 6.26009C7.88543 6.29152 7.88529 6.32294 7.88513 6.35532C7.88474 6.46037 7.88495 6.5654 7.88515 6.67045C7.885 6.74662 7.8848 6.8228 7.88457 6.89898C7.88406 7.10812 7.88407 7.31726 7.88417 7.5264C7.88418 7.75204 7.88372 7.97767 7.88332 8.2033C7.88261 8.64526 7.88238 9.08722 7.88234 9.52918C7.8823 9.88839 7.88212 10.2476 7.88185 10.6068C7.88111 11.6252 7.88072 12.6435 7.88078 13.6619C7.88079 13.7168 7.88079 13.7717 7.88079 13.8282C7.8808 13.8832 7.8808 13.9382 7.8808 13.9948C7.88084 14.8858 7.88003 15.7768 7.87884 16.6678C7.87762 17.5826 7.87704 18.4974 7.87711 19.4122C7.87714 19.9259 7.87691 20.4395 7.876 20.9531C7.87523 21.3904 7.87504 21.8276 7.87562 22.2649C7.87589 22.488 7.8759 22.711 7.87517 22.9341C7.8745 23.1384 7.87462 23.3427 7.87536 23.547C7.87549 23.6208 7.87533 23.6946 7.87486 23.7685C7.87263 24.1437 7.87094 24.4755 8.06553 24.8055C8.08819 24.8457 8.141 24.8725 8.13421 24.9273C8.06553 25.4816 13.7223 25.2484 16.5191 25.2484C16.5191 18.5825 16.5191 11.9165 16.5191 5.04861C15.3056 5.04861 14.0921 5.04861 12.8418 5.04861C12.8387 5.56356 12.8387 5.56356 12.8355 6.08891C12.834 6.30613 12.8325 6.52336 12.8309 6.74058C12.8283 7.08551 12.8259 7.43045 12.824 7.77539C12.8224 8.05342 12.8204 8.33145 12.8182 8.60948C12.8174 8.71566 12.8168 8.82185 12.8163 8.92803C12.8156 9.07652 12.8144 9.225 12.813 9.37349C12.8129 9.41759 12.8128 9.46168 12.8127 9.50712C12.8123 9.54762 12.8118 9.58812 12.8113 9.62984C12.8109 9.68252 12.8109 9.68252 12.8106 9.73626C12.7979 9.8468 12.7719 9.91616 12.715 10.01C12.5566 10.1206 12.4802 10.1154 12.2923 10.0986C12.1599 10.0416 12.1599 10.0416 12.0275 9.9629C11.9794 9.93492 11.9314 9.90694 11.8818 9.87811C11.832 9.84827 11.7821 9.8184 11.7323 9.78848C11.6336 9.72996 11.5347 9.67195 11.4357 9.61405C11.3922 9.58807 11.3487 9.56209 11.3039 9.53532C11.1949 9.46863 11.1949 9.46863 11.0665 9.47839C10.9853 9.52125 10.9057 9.56758 10.8271 9.61561C10.7559 9.65788 10.7559 9.65788 10.6833 9.70101C10.6082 9.74586 10.5333 9.79099 10.4588 9.83694C9.96306 10.1415 9.96306 10.1415 9.66289 10.0964C9.54388 10.0302 9.51671 9.96197 9.46037 9.83277C9.44105 9.6781 9.44188 9.52429 9.44209 9.36846C9.44144 9.29842 9.44144 9.29842 9.44079 9.22696C9.43951 9.07284 9.43912 8.91873 9.43874 8.76461C9.43803 8.65766 9.43726 8.55072 9.43644 8.44377C9.43443 8.16245 9.43317 7.88113 9.43207 7.59981C9.43081 7.31267 9.42884 7.02554 9.42693 6.73841C9.42329 6.17515 9.42042 5.61188 9.4181 5.04861C9.29829 5.04378 9.17867 5.04029 9.05882 5.03753C9.02537 5.03605 8.99191 5.03456 8.95745 5.03303C8.61654 5.02717 8.35594 5.15778 8.1078 5.40299Z" fill="#1D2537"/>
<path d="M10.0402 5.14508C10.7002 5.14508 11.3602 5.14508 12.0402 5.14508C12.0402 6.46508 12.0402 7.78508 12.0402 9.14508C11.7827 9.0237 11.5251 8.90232 11.2597 8.77726C10.9461 8.71868 10.9461 8.71868 10.7053 8.81731C10.6692 8.83613 10.6331 8.85495 10.5959 8.87434C10.5412 8.90452 10.5412 8.90452 10.4854 8.93531C10.4113 8.97457 10.3373 9.01379 10.2632 9.05295C10.2309 9.07058 10.1986 9.0882 10.1653 9.10637C10.089 9.14508 10.089 9.14508 10.0402 9.14508C10.0402 7.82508 10.0402 6.50508 10.0402 5.14508Z" fill="#609CF7"/>
<path d="M10.1356 5.1599C10.2667 5.14768 10.3893 5.14362 10.5205 5.14553C10.5778 5.14565 10.5778 5.14565 10.6362 5.14578C10.7171 5.14607 10.7979 5.14668 10.8787 5.14758C11.0027 5.14894 11.1267 5.14937 11.2508 5.14963C11.3292 5.15004 11.4076 5.15049 11.486 5.151C11.5233 5.15119 11.5605 5.15137 11.5989 5.15157C11.861 5.15477 11.861 5.15477 11.9556 5.20369C11.9556 5.23259 11.9556 5.2615 11.9556 5.29128C11.9835 5.30573 12.0115 5.32018 12.0402 5.33507C12.0263 5.37843 12.0123 5.42178 11.9979 5.46645C11.9933 5.5812 11.9909 5.69485 11.9906 5.80962C11.9903 5.84453 11.99 5.87943 11.9897 5.91539C11.9891 5.99116 11.9886 6.06694 11.9882 6.14271C11.9875 6.26251 11.9865 6.38229 11.9854 6.50209C11.9824 6.84267 11.9799 7.18325 11.9777 7.52384C11.9764 7.73213 11.9746 7.94042 11.9726 8.1487C11.972 8.2282 11.9714 8.3077 11.9711 8.3872C11.9706 8.49814 11.9695 8.60906 11.9684 8.71999C11.9684 8.75305 11.9684 8.7861 11.9683 8.82016C11.9652 9.04751 11.9652 9.04751 11.8709 9.14508C11.8709 7.87333 11.8709 6.60157 11.8709 5.29128C11.2983 5.29128 10.7256 5.29128 10.1356 5.29128C10.1356 6.51968 10.1356 7.74808 10.1356 9.0137C10.1216 9.0137 10.1076 9.0137 10.0932 9.0137C10.0582 8.18632 10.0455 7.35925 10.0434 6.53111C10.0431 6.42522 10.0427 6.31932 10.0421 6.21342C10.0413 6.06313 10.0412 5.91286 10.0412 5.76257C10.0409 5.71692 10.0405 5.67127 10.0402 5.62423C10.0404 5.58225 10.0405 5.54027 10.0406 5.49702C10.0406 5.4603 10.0405 5.42359 10.0404 5.38576C10.0509 5.29128 10.0509 5.29128 10.1356 5.1599Z" fill="#162D53"/>
<path d="M12.6027 5.14508C13.4071 5.14508 14.2115 5.14508 15.0402 5.14508C15.0402 5.15929 15.0402 5.1735 15.0402 5.18815C14.2513 5.18815 13.4624 5.18815 12.6496 5.18815C12.6512 5.52141 12.6529 5.85467 12.6546 6.19802C12.6553 6.40901 12.656 6.62 12.6565 6.83099C12.6573 7.16596 12.6583 7.50092 12.6602 7.83589C12.6617 8.10591 12.6626 8.37593 12.663 8.64596C12.6632 8.74904 12.6637 8.85212 12.6645 8.95519C12.6655 9.09944 12.6656 9.24367 12.6656 9.38793C12.6661 9.43065 12.6666 9.47336 12.6671 9.51738C12.6653 9.88488 12.6653 9.88488 12.509 10.0547C12.3382 10.1593 12.2412 10.1478 12.0402 10.1408C12.0402 10.1266 12.0402 10.1124 12.0402 10.0977C12.0915 10.0871 12.1427 10.0764 12.1955 10.0654C12.379 10.0083 12.4148 9.98681 12.509 9.83934C12.5301 9.74538 12.5301 9.74538 12.5274 9.64426C12.5279 9.60537 12.5284 9.56649 12.5289 9.52642C12.5288 9.48409 12.5287 9.44175 12.5285 9.39814C12.5291 9.33089 12.5291 9.33089 12.5297 9.26228C12.5309 9.11402 12.5311 8.96578 12.5313 8.81752C12.532 8.71465 12.5327 8.61179 12.5335 8.50893C12.5355 8.23808 12.5367 7.96723 12.5376 7.69638C12.5393 7.2625 12.5422 6.82863 12.5451 6.39476C12.546 6.24289 12.5465 6.09101 12.547 5.93914C12.5475 5.84651 12.548 5.75389 12.5485 5.66127C12.5485 5.61876 12.5486 5.57625 12.5486 5.53245C12.5489 5.49381 12.5491 5.45517 12.5494 5.41535C12.5495 5.38168 12.5496 5.348 12.5498 5.3133C12.5559 5.23121 12.5559 5.23121 12.6027 5.14508Z" fill="#082151"/>
<path d="M10.0402 5.14508C10.7002 5.14508 11.3602 5.14508 12.0402 5.14508C12.0402 6.46508 12.0402 7.78508 12.0402 9.14508C11.7827 9.0237 11.5251 8.90232 11.2597 8.77726C10.9066 8.72817 10.9066 8.72817 10.6256 8.86922C10.5934 8.86922 10.5612 8.86922 10.528 8.86922C10.528 8.83887 10.528 8.80853 10.528 8.77726C10.62 8.73605 10.7126 8.69605 10.8055 8.65657C10.857 8.63417 10.9085 8.61177 10.9615 8.58869C11.1368 8.54102 11.2002 8.55854 11.3573 8.63933C11.3573 8.66968 11.3573 8.70002 11.3573 8.73129C11.4192 8.74978 11.4192 8.74978 11.4823 8.76864C11.6552 8.82492 11.8234 8.89328 11.9915 8.96117C11.9915 7.71703 11.9915 6.4729 11.9915 5.19106C11.3637 5.19106 10.7358 5.19106 10.089 5.19106C10.089 6.46554 10.089 7.74002 10.089 9.05313C10.1212 9.0683 10.1534 9.08347 10.1866 9.0991C10.1141 9.12186 10.1141 9.12186 10.0402 9.14508C10.0402 7.82508 10.0402 6.50508 10.0402 5.14508Z" fill="#6E9ADE"/>
<path d="M9.06478 5.14508C9.15768 5.232 9.15768 5.232 9.16919 5.31495C9.16915 5.34899 9.1691 5.38303 9.16906 5.4181C9.16924 5.45715 9.16942 5.49621 9.16961 5.53645C9.16935 5.57941 9.16908 5.62238 9.16881 5.66664C9.1689 5.7118 9.169 5.75695 9.16909 5.80348C9.16926 5.90177 9.16922 6.00006 9.16901 6.09835C9.16875 6.25374 9.16917 6.40912 9.16981 6.56452C9.17154 7.00641 9.17239 7.4483 9.17187 7.8902C9.1716 8.16024 9.17244 8.43027 9.174 8.70031C9.17437 8.80342 9.17431 8.90653 9.17382 9.00964C9.17315 9.15367 9.1739 9.29763 9.17498 9.44165C9.17443 9.48452 9.17388 9.5274 9.17332 9.57157C9.17491 9.67943 9.17814 9.77685 9.20413 9.88192C9.30505 9.98174 9.30505 9.98174 9.43638 10.0123C9.59321 10.0095 9.59321 10.0095 9.75283 9.97698C9.80678 9.96774 9.86073 9.9585 9.91631 9.94897C9.95721 9.94119 9.9981 9.9334 10.0402 9.92538C9.8497 10.0654 9.70834 10.1618 9.45961 10.1427C9.42464 10.1409 9.38967 10.1391 9.35365 10.1372C9.22875 10.0911 9.17502 10.0284 9.10394 9.92345C9.0239 9.74973 9.0408 9.5641 9.04369 9.37802C9.04366 9.33221 9.04364 9.28639 9.04361 9.23919C9.04374 9.08822 9.04518 8.93729 9.04664 8.78632C9.04699 8.68147 9.04725 8.57661 9.04744 8.47176C9.04814 8.19613 9.04997 7.92051 9.05203 7.64488C9.05393 7.36349 9.05478 7.0821 9.05571 6.8007C9.0577 6.24882 9.06084 5.69695 9.06478 5.14508Z" fill="#19305A"/>
<path d="M8.42079 5.14514C8.48414 5.14535 8.48414 5.14535 8.54877 5.14556C8.61456 5.14609 8.61456 5.14609 8.68168 5.14664C8.72616 5.14683 8.77063 5.14703 8.81645 5.14723C8.92614 5.14773 9.03582 5.14849 9.1455 5.14931C9.14563 5.1729 9.14575 5.19649 9.14588 5.22079C9.149 5.79499 9.15298 6.36919 9.15791 6.94339C9.16026 7.22107 9.16233 7.49875 9.16373 7.77643C9.1651 8.04436 9.16723 8.31227 9.16988 8.58019C9.17076 8.68246 9.17136 8.78474 9.17169 8.88701C9.1722 9.03014 9.17367 9.17325 9.17538 9.31638C9.17526 9.37996 9.17526 9.37996 9.17515 9.44482C9.1797 9.73256 9.1797 9.73256 9.35603 9.97793C9.46719 10.0142 9.46719 10.0142 9.58958 10.0153C9.62968 10.0179 9.66977 10.0204 9.71108 10.023C9.82899 10.0207 9.92748 10.005 10.0402 9.97793C10.0402 10.0061 10.0402 10.0343 10.0402 10.0634C9.62563 10.1674 9.62563 10.1674 9.37905 10.0901C9.33672 10.0672 9.29438 10.0443 9.25076 10.0207C9.25076 9.99246 9.25076 9.96425 9.25076 9.9352C9.17261 9.91404 9.17261 9.91404 9.09287 9.89247C9.09287 8.35543 9.09287 6.81839 9.09287 5.23477C8.59787 5.25593 8.59787 5.25593 8.09287 5.27751C8.0755 5.2493 8.05813 5.2211 8.04024 5.19204C8.1858 5.15265 8.27091 5.14428 8.42079 5.14514Z" fill="#6B9BDC"/>
<path d="M13.1651 5.14508C13.1997 5.14519 13.2344 5.1453 13.27 5.14541C13.3287 5.14542 13.3287 5.14542 13.3886 5.14542C13.4524 5.1458 13.4524 5.1458 13.5175 5.14619C13.5608 5.14626 13.6041 5.14633 13.6487 5.1464C13.7877 5.14667 13.9267 5.14729 14.0657 5.14791C14.1596 5.14815 14.2536 5.14838 14.3476 5.14858C14.5785 5.14912 14.8093 5.14994 15.0402 5.15097C15.0268 5.18328 15.0134 5.2156 14.9995 5.24889C14.3949 5.24889 13.7903 5.24889 13.1674 5.24889C13.1364 5.39839 13.1214 5.49804 13.1203 5.64673C13.1199 5.68655 13.1195 5.72637 13.1191 5.7674C13.1188 5.81064 13.1186 5.85389 13.1184 5.89845C13.118 5.94432 13.1176 5.9902 13.1171 6.03746C13.1159 6.18899 13.1149 6.34053 13.1138 6.49207C13.113 6.59717 13.1122 6.70227 13.1113 6.80737C13.109 7.08394 13.107 7.36051 13.1051 7.63709C13.103 7.91933 13.1007 8.20158 13.0985 8.48382C13.0941 9.03757 13.09 9.59132 13.086 10.1451C13.0726 10.1451 13.0591 10.1451 13.0453 10.1451C13.0444 9.50116 13.0436 8.85724 13.0432 8.21331C13.043 7.91435 13.0427 7.61539 13.0422 7.31642C13.0418 7.02816 13.0415 6.73991 13.0414 6.45165C13.0414 6.34141 13.0412 6.23117 13.041 6.12093C13.0407 5.9671 13.0407 5.81327 13.0407 5.65944C13.0405 5.61337 13.0404 5.56731 13.0402 5.51985C13.0407 5.15434 13.0407 5.15434 13.1651 5.14508Z" fill="#669CEA"/>
<path d="M12.8665 5.14508C12.8913 5.14508 12.9161 5.14508 12.9416 5.14508C12.9567 5.75264 12.9704 6.36021 12.9826 6.9678C12.9884 7.24992 12.9945 7.53203 13.0016 7.81414C13.0085 8.08633 13.0142 8.35853 13.0191 8.63074C13.0212 8.73464 13.0237 8.83855 13.0266 8.94245C13.0306 9.08786 13.0332 9.23326 13.0354 9.37868C13.0369 9.42174 13.0384 9.46479 13.04 9.50915C13.0417 9.72548 13.042 9.88027 12.7914 10.0531C12.5176 10.1595 12.3623 10.1478 12.0402 10.1407C12.0402 10.1263 12.0402 10.1118 12.0402 10.0969C12.1223 10.0861 12.2045 10.0752 12.289 10.064C12.5832 10.0059 12.6404 9.98405 12.7914 9.83398C12.8253 9.73812 12.8253 9.73812 12.8213 9.63489C12.8223 9.5952 12.8232 9.5555 12.8242 9.51461C12.8241 9.47139 12.824 9.42818 12.8238 9.38365C12.8246 9.33789 12.8254 9.29214 12.8262 9.24499C12.8284 9.09371 12.8291 8.94245 12.8298 8.79116C12.8311 8.68629 12.8324 8.58141 12.8339 8.47654C12.8375 8.20048 12.8397 7.92442 12.8417 7.64835C12.8439 7.36666 12.8474 7.08497 12.8508 6.80328C12.8572 6.25055 12.8623 5.69782 12.8665 5.14508Z" fill="#132344"/>
<path d="M11.6069 8.28834C11.6069 8.34489 11.6069 8.40143 11.6069 8.45969C11.6351 8.48266 11.6633 8.50563 11.6923 8.5293C11.8115 8.63514 11.9249 8.75758 12.0402 8.88806C12.0402 8.97288 12.0402 9.05769 12.0402 9.14508C11.9128 9.02211 11.7971 8.86832 11.6777 8.70065C11.5152 8.4903 11.4198 8.39769 11.2402 8.54537C11.2024 8.5754 11.1646 8.60544 11.1257 8.63639C11.0975 8.6629 11.0693 8.6894 11.0402 8.71671C11.0402 8.66017 11.0402 8.60362 11.0402 8.54537C11.1031 8.46858 11.1664 8.39404 11.2298 8.32047C11.265 8.27873 11.3002 8.23698 11.3365 8.19397C11.4562 8.10515 11.4995 8.13779 11.6069 8.28834Z" fill="#6493DA"/>
<path d="M8.38455 5.14514C8.41899 5.14525 8.45344 5.14536 8.48893 5.14547C8.55411 5.14606 8.55411 5.14606 8.62059 5.14666C8.75908 5.14755 8.89756 5.14845 9.04024 5.14937C9.04024 5.47795 9.04024 5.80654 9.04024 6.14508C9.02452 6.14508 9.00881 6.14508 8.99262 6.14508C8.99262 5.84507 8.99262 5.54506 8.99262 5.23595C8.54476 5.25738 8.54476 5.25738 8.08786 5.27924C8.07214 5.25067 8.05643 5.2221 8.04024 5.19266C8.17194 5.15275 8.24894 5.14427 8.38455 5.14514Z" fill="#638FCE"/>
<path d="M9.04024 5.24927C9.04024 5.27614 9.04024 5.30301 9.04024 5.3307C9.00253 5.3328 8.96483 5.3349 8.92598 5.33707C8.87552 5.34165 8.82507 5.34632 8.77461 5.35106C8.74988 5.35222 8.72514 5.35337 8.69966 5.35456C8.42466 5.38393 8.24121 5.67371 8.04024 6.14508C8.05771 5.881 8.0844 5.74355 8.16524 5.57502C8.18586 5.57502 8.20649 5.57502 8.22774 5.57502C8.22774 5.52127 8.22774 5.46752 8.22774 5.41214C8.49031 5.09633 8.75833 5.08601 9.04024 5.24927Z" fill="#0E2246"/>
</svg>
