<svg width="30" height="30" viewBox="0 0 30 30" fill="none" xmlns="http://www.w3.org/2000/svg">
<path d="M12.3721 2.37506C12.5825 2.37536 12.7929 2.3749 13.0033 2.37377C15.2495 2.36181 15.2495 2.36181 16.2368 2.58403C16.2981 2.59689 16.3595 2.60976 16.4227 2.62301C16.5656 2.65489 16.7062 2.69062 16.8473 2.72978C16.8961 2.74298 16.945 2.75618 16.9954 2.76978C17.7616 2.98191 18.5006 3.25068 19.2178 3.59244C19.31 3.63448 19.4024 3.6764 19.4947 3.71824C20.1485 4.01666 20.7661 4.34536 21.3742 4.72689C21.4367 4.76516 21.4991 4.80342 21.5635 4.84285C21.98 5.10063 22.3759 5.38154 22.7696 5.67227C22.8405 5.72352 22.9116 5.77473 22.9826 5.82589C23.053 5.87708 23.1234 5.92828 23.1937 5.97952C23.2581 6.02615 23.3224 6.07278 23.3887 6.12083C23.459 6.17957 23.459 6.17957 23.5307 6.23949C23.5307 6.28109 23.5307 6.32269 23.5307 6.36555C23.5651 6.37936 23.5995 6.39317 23.635 6.4074C23.8342 6.51966 23.9853 6.66984 24.1451 6.83036C24.1784 6.86377 24.2117 6.89719 24.246 6.93162C24.8163 7.51503 25.3692 8.13798 25.4017 8.98109C25.3893 9.3562 25.3101 9.63744 25.1163 9.95798C25.0823 10.0152 25.0483 10.0724 25.0132 10.1313C24.6494 10.4738 24.1672 10.6537 23.6726 10.6712C23.5662 10.6752 23.5662 10.6752 23.4577 10.6792C23.3837 10.6817 23.3096 10.6842 23.2334 10.6867C23.1212 10.6908 23.1212 10.6908 23.0068 10.695C22.822 10.7016 22.6372 10.7081 22.4524 10.7143C22.5022 10.7556 22.552 10.7968 22.6033 10.8394C23.3132 11.4448 23.8224 12.171 23.9264 13.122C23.9967 14.0621 23.8273 14.8407 23.2272 15.597C22.6915 16.2044 22.0407 16.6852 21.2275 16.8435C21.1504 16.8591 21.0732 16.8747 20.9937 16.8908C20.9727 16.9532 20.9518 17.0155 20.9302 17.0798C21.0503 17.0956 21.1706 17.1097 21.291 17.1232C21.3579 17.1312 21.4249 17.1392 21.4939 17.1475C21.7248 17.1421 21.823 17.086 22.0085 16.9538C22.1987 16.8277 22.1987 16.8277 22.389 16.8435C22.5793 16.8908 22.5793 16.8908 22.7696 17.0168C22.913 17.4687 22.6836 17.8912 22.4785 18.2832C22.2758 18.6514 22.0397 18.9755 21.7548 19.2857C21.7212 19.3248 21.6877 19.3639 21.6532 19.4041C21.0134 20.1041 20.1405 20.4606 19.2138 20.5383C18.7956 20.5738 18.5154 20.6431 18.1658 20.8872C17.5935 21.2617 16.8548 21.4419 16.1734 21.4286C16.1734 21.595 16.1734 21.7613 16.1734 21.9328C16.2074 21.9398 16.2414 21.9469 16.2764 21.9542C17.2001 22.1852 17.958 22.7521 18.6469 23.3824C18.689 23.4183 18.731 23.4542 18.7743 23.4912C19.7947 24.4108 20.3732 25.9193 20.5061 27.2431C20.4806 27.4654 20.4055 27.531 20.2326 27.6681C20.0457 27.7609 19.8568 27.7402 19.6519 27.7399C19.581 27.7402 19.581 27.7402 19.5087 27.7405C19.3494 27.7411 19.1901 27.7412 19.0309 27.7412C18.917 27.7415 18.8032 27.7419 18.6893 27.7422C18.3794 27.743 18.0695 27.7434 17.7595 27.7437C17.566 27.7439 17.3725 27.7442 17.179 27.7444C16.5739 27.7453 15.9687 27.7459 15.3636 27.7461C14.6645 27.7464 13.9653 27.7475 13.2662 27.7494C12.7262 27.7507 12.1862 27.7514 11.6462 27.7514C11.3235 27.7515 11.0008 27.7519 10.6781 27.753C10.3746 27.754 10.071 27.7542 9.76747 27.7536C9.65602 27.7536 9.54457 27.7539 9.43312 27.7545C9.28102 27.7553 9.12896 27.7549 8.97686 27.7543C8.91064 27.755 8.91064 27.755 8.84307 27.7558C8.57107 27.753 8.39623 27.7111 8.18182 27.542C7.92323 26.754 8.37798 25.7066 8.73158 24.9981C8.83798 24.8116 8.95033 24.6323 9.06977 24.4538C9.12741 24.3666 9.12741 24.3666 9.18621 24.2778C9.89485 23.2589 11.0533 22.251 12.3025 21.9505C12.345 21.9446 12.3875 21.9388 12.4313 21.9328C12.4313 21.7664 12.4313 21.6 12.4313 21.4286C12.3905 21.4269 12.3497 21.4253 12.3077 21.4236C11.6693 21.3838 11.1058 21.2248 10.5444 20.9219C10.0895 20.6766 9.71392 20.5605 9.1979 20.5195C8.24423 20.4429 7.51708 19.9352 6.84989 19.2857C6.81008 19.2484 6.77026 19.2111 6.72924 19.1727C6.28888 18.7232 5.84026 17.9237 5.74789 17.2965C5.78054 17.0856 5.85595 17.0182 6.02537 16.8908C6.21149 16.8311 6.30122 16.8083 6.48049 16.8927C6.54758 16.9385 6.54758 16.9385 6.61601 16.9853C6.91985 17.1678 7.07918 17.1618 7.42072 17.0798C7.48351 17.059 7.5463 17.0382 7.61099 17.0168C7.63192 16.9544 7.65285 16.892 7.67442 16.8277C7.63893 16.8283 7.60345 16.8289 7.56689 16.8295C6.89066 16.8046 6.12359 16.4226 5.64482 15.9454C5.64482 15.9038 5.64482 15.8622 5.64482 15.8193C5.60296 15.8193 5.5611 15.8193 5.51797 15.8193C5.19251 15.4449 4.97425 15.0265 4.8203 14.5588C4.79765 14.4924 4.775 14.4259 4.75167 14.3574C4.53162 13.4512 4.67511 12.538 5.14931 11.7424C5.67437 10.972 6.38277 10.4465 7.29387 10.2101C7.39956 10.2084 7.5053 10.2082 7.61099 10.2101C7.61066 10.1672 7.61033 10.1242 7.60999 10.08C7.60867 9.88572 7.60784 9.69141 7.60703 9.49711C7.6065 9.42956 7.60597 9.362 7.60542 9.2924C7.60521 9.22761 7.60501 9.16282 7.6048 9.09606C7.60447 9.03632 7.60413 8.97658 7.60379 8.91504C7.61099 8.7605 7.61099 8.7605 7.67442 8.57143C7.60116 8.56493 7.52791 8.55843 7.45243 8.55173C6.88781 8.47778 6.51702 8.24442 6.08879 7.87815C6.04947 7.84728 6.01014 7.81641 5.96962 7.7846C5.3327 7.23522 5.07592 6.28843 5.01057 5.48319C4.99298 5.19955 4.98379 4.91648 4.97886 4.63235C4.9769 4.56238 4.97494 4.4924 4.97293 4.4203C4.97289 3.97779 5.03062 3.67846 5.3277 3.34034C6.17804 2.53316 7.90587 2.51005 8.99841 2.45133C9.04571 2.4487 9.093 2.44607 9.14173 2.44336C10.2183 2.38451 11.2942 2.37342 12.3721 2.37506ZM8.56237 8.69748C8.48087 9.00706 8.49085 9.31136 8.493 9.62882C8.49322 9.6956 8.49345 9.76237 8.49369 9.83116C8.49927 11.035 8.51478 12.2389 8.52834 13.4427C8.53223 13.7897 8.53602 14.1367 8.53982 14.4836C8.54724 15.1599 8.55477 15.8363 8.56237 16.5126C9.04004 16.2356 9.44872 15.8581 9.79915 15.4333C10.3288 14.8143 11.0134 14.4634 11.8208 14.3776C12.6765 14.3373 13.3755 14.5093 14.0169 15.0827C14.0627 15.1267 14.1085 15.1706 14.1557 15.2159C14.2612 15.3289 14.2612 15.3289 14.3975 15.3151C14.3975 15.2735 14.3975 15.2319 14.3975 15.1891C14.4393 15.1891 14.4812 15.1891 14.5243 15.1891C14.5714 15.1423 14.6185 15.0955 14.667 15.0473C15.193 14.5246 15.7697 14.3852 16.4905 14.3697C17.3136 14.3777 18.0486 14.6525 18.6323 15.2387C18.7977 15.4119 18.9611 15.5866 19.1208 15.765C19.381 16.0527 19.6515 16.301 19.9789 16.5126C19.9998 16.5126 20.0207 16.5126 20.0423 16.5126C20.0423 14.4744 20.0423 12.4361 20.0423 10.3361C18.896 10.1524 17.7534 9.97075 16.6037 9.81415C16.218 9.76157 15.8325 9.70815 15.4469 9.65467C15.327 9.63803 15.327 9.63803 15.2046 9.62106C14.2715 9.49116 13.3395 9.35462 12.4075 9.21744C12.3285 9.20581 12.2495 9.19419 12.1681 9.18221C11.9382 9.14835 11.7083 9.11446 11.4784 9.08055C11.4053 9.06978 11.3321 9.05901 11.2567 9.04791C10.8742 8.9915 10.4917 8.93454 10.1093 8.87683C10.0309 8.86508 9.95255 8.85334 9.87181 8.84124C9.72245 8.81884 9.57312 8.79626 9.42382 8.77348C9.32354 8.75849 9.32354 8.75849 9.22124 8.74321C9.13345 8.72992 9.13345 8.72992 9.04388 8.71637C8.88173 8.69774 8.72543 8.69408 8.56237 8.69748ZM6.78647 11.4076C6.16821 11.7855 5.83055 12.2897 5.64482 12.9832C5.50721 13.6285 5.62015 14.2585 5.94212 14.8346C6.28567 15.3508 6.75628 15.7043 7.35729 15.8824C7.48287 15.8512 7.48287 15.8512 7.61099 15.8193C7.61099 14.3011 7.61099 12.7828 7.61099 11.2185C7.26345 11.1321 7.092 11.242 6.78647 11.4076ZM21.0571 11.1555C20.9726 11.2251 20.9726 11.2251 20.986 11.4007C20.9862 11.4823 20.9863 11.5639 20.9865 11.648C20.9864 11.6929 20.9864 11.7378 20.9864 11.784C20.9865 11.933 20.987 12.082 20.9875 12.2311C20.9876 12.3341 20.9877 12.4372 20.9877 12.5403C20.988 12.812 20.9886 13.0838 20.9893 13.3556C20.99 13.6327 20.9902 13.9098 20.9906 14.187C20.9912 14.7311 20.9923 15.2752 20.9937 15.8193C21.1871 15.8798 21.2337 15.8877 21.4319 15.8102C21.5309 15.7582 21.5309 15.7582 21.6319 15.7051C21.7311 15.6538 21.7311 15.6538 21.8323 15.6014C22.0138 15.5043 22.0138 15.5043 22.1987 15.3782C22.1987 15.3366 22.1987 15.295 22.1987 15.2521C22.2555 15.2293 22.2555 15.2293 22.3134 15.2061C22.6348 15.0211 22.7857 14.6328 22.9019 14.2964C23.0888 13.5822 23.0284 12.9564 22.7061 12.2899C22.5935 12.1091 22.4775 11.9363 22.3256 11.7857C22.2837 11.7857 22.2419 11.7857 22.1987 11.7857C22.1778 11.7233 22.1569 11.6609 22.1353 11.5966C21.828 11.3341 21.4591 11.1922 21.0571 11.1555ZM13.9773 19.3527C13.3184 19.8914 12.5535 20.155 11.7336 20.3571C11.7336 20.3779 11.7336 20.3987 11.7336 20.4202C12.2718 20.5262 12.7874 20.5649 13.3353 20.563C13.4129 20.5631 13.4904 20.5632 13.5702 20.5633C13.733 20.5634 13.8957 20.5632 14.0584 20.5627C14.3058 20.562 14.5532 20.5626 14.8007 20.5635C14.9597 20.5634 15.1187 20.5632 15.2777 20.563C15.3874 20.5633 15.3874 20.5633 15.4992 20.5637C15.9484 20.5612 16.3688 20.5162 16.8076 20.4202C16.6132 20.3206 16.4269 20.2534 16.217 20.1917C15.5564 19.9756 14.9201 19.6595 14.4178 19.1754C14.2376 19.0059 14.1317 19.2171 13.9773 19.3527ZM13.3192 21.4916C13.2552 22.4712 13.2552 22.4712 13.6364 23.3193C13.8458 23.5022 14.0094 23.5661 14.2904 23.5872C14.6299 23.5643 14.8236 23.4718 15.0515 23.2209C15.1968 23.0123 15.2347 22.8844 15.2577 22.6339C15.263 22.5795 15.2683 22.5251 15.2738 22.469C15.2909 22.1436 15.2854 21.8174 15.2854 21.4916C14.6366 21.4916 13.9877 21.4916 13.3192 21.4916Z" fill="#182134"/>
<path d="M13.2994 15.5397C13.4857 15.7348 13.6345 15.9472 13.7855 16.1699C13.82 16.2206 13.8545 16.2713 13.8901 16.3236C13.9375 16.3939 13.9375 16.3939 13.9859 16.4656C14.0799 16.5954 14.0799 16.5954 14.2825 16.6347C14.6292 16.55 14.7224 16.3434 14.9148 16.0567C15.1433 15.7161 15.4628 15.3846 15.8731 15.2777C16.5663 15.1754 17.2024 15.2102 17.7788 15.6224C18.0663 15.8572 18.3107 16.1278 18.5601 16.401C19.3192 17.2318 20.339 17.9675 21.5011 18.0252C21.4519 18.4464 21.167 18.6911 20.8668 18.9706C20.6647 19.1182 20.4566 19.2371 20.2326 19.3488C20.1819 19.374 20.1312 19.3993 20.079 19.4253C18.9507 19.9539 17.416 19.7042 16.2725 19.3291C15.9049 19.1907 15.5956 19.0202 15.2854 18.7815C15.2187 18.7321 15.152 18.6827 15.0832 18.6319C14.8951 18.4574 14.77 18.2792 14.6375 18.0614C14.5217 17.942 14.5217 17.942 14.307 17.9277C14.0753 17.941 14.0753 17.941 13.9366 18.0984C13.8951 18.1587 13.8536 18.2191 13.8108 18.2813C13.5237 18.658 13.2294 18.8765 12.8118 19.0967C12.7556 19.1264 12.6993 19.1561 12.6414 19.1868C11.5786 19.7056 9.91755 19.9205 8.77494 19.5366C8.05104 19.2367 7.54417 18.8699 7.10359 18.2143C7.10359 18.1519 7.10359 18.0895 7.10359 18.0252C7.14676 18.022 7.18993 18.0187 7.23441 18.0154C8.56318 17.8609 9.67346 16.9162 10.5008 15.9296C11.195 15.1299 12.3935 15.0163 13.2994 15.5397Z" fill="#659DF2"/>
<path d="M18.532 11.7345C18.8271 12.0022 18.9664 12.2969 19.0909 12.6681C19.0909 12.8137 19.0909 12.9592 19.0909 13.1092C18.7979 13.1092 18.5049 13.1092 18.203 13.1092C18.1657 12.9767 18.1657 12.9767 18.1276 12.8414C18.0367 12.5729 17.952 12.4321 17.6956 12.2899C17.3859 12.1963 17.1734 12.2509 16.871 12.3529C16.8082 12.3737 16.7455 12.3945 16.6808 12.416C16.6078 12.5576 16.6078 12.5576 16.5539 12.7311C16.5121 12.8559 16.4702 12.9807 16.4271 13.1092C16.134 13.1092 15.841 13.1092 15.5391 13.1092C15.5615 12.5823 15.6584 12.1949 16.0237 11.799C16.752 11.1373 17.7716 11.1236 18.532 11.7345Z" fill="#182032"/>
<path d="M12.4313 11.6597C12.8918 12.073 13.0246 12.5077 13.0655 13.1093C12.7725 13.1093 12.4795 13.1093 12.1776 13.1093C11.9952 12.6287 11.9952 12.6287 11.9239 12.416C11.6368 12.2733 11.365 12.2171 11.0478 12.2584C10.7859 12.3809 10.5915 12.5109 10.481 12.7867C10.4498 12.893 10.4252 13.0011 10.4017 13.1093C10.1087 13.1093 9.81565 13.1093 9.51374 13.1093C9.51374 12.5442 9.65823 12.1692 10.0449 11.7542C10.7243 11.131 11.6898 11.1646 12.4313 11.6597Z" fill="#182031"/>
<path d="M20.9302 18.8445C20.9512 18.9277 20.9721 19.0109 20.9937 19.0966C20.6924 19.3487 20.6924 19.3487 20.5497 19.3487C20.5497 19.3903 20.5497 19.4319 20.5497 19.4748C20.4032 19.4748 20.2567 19.4748 20.1057 19.4748C20.0848 19.5164 20.0638 19.558 20.0423 19.6008C19.9167 19.6008 19.7911 19.6008 19.6617 19.6008C19.8541 19.4097 20.1019 19.3166 20.3448 19.2009C20.5565 19.0984 20.748 18.9933 20.9302 18.8445Z" fill="#162A49"/>
<path d="M13.5729 15.8823C13.6776 15.8823 13.7822 15.8823 13.8901 15.8823C13.8901 16.0071 13.8901 16.1319 13.8901 16.2605C13.9319 16.2605 13.9738 16.2605 14.0169 16.2605C14.0588 16.3437 14.1006 16.4269 14.1438 16.5126C14.297 16.5284 14.297 16.5284 14.4609 16.5126C14.5027 16.4502 14.5446 16.3878 14.5877 16.3235C14.6296 16.3235 14.6715 16.3235 14.7146 16.3235C14.5957 16.5677 14.5957 16.5677 14.5243 16.6386C14.3142 16.6623 14.3142 16.6623 14.0803 16.6386C13.8558 16.4283 13.7206 16.1496 13.5729 15.8823Z" fill="#10294F"/>
<path d="M14.3063 17.8952C14.3782 17.8965 14.4502 17.8978 14.5243 17.8991C14.4838 17.9147 14.4432 17.9303 14.4014 17.9464C14.2603 18.0131 14.2603 18.0131 14.223 18.1512C14.2046 18.277 14.2046 18.277 14.2072 18.4033C14.1653 18.4033 14.1235 18.4033 14.0803 18.4033C14.0803 18.3617 14.0803 18.3202 14.0803 18.2773C13.9757 18.2981 13.871 18.3189 13.7632 18.3403C14.0558 17.8996 14.0558 17.8996 14.3063 17.8952Z" fill="#132646"/>
<path d="M20.0423 17.647C20.5828 17.8226 20.5828 17.8226 20.7717 17.907C21.0091 17.9896 21.2514 18.0046 21.5011 18.0252C21.4801 18.1084 21.4592 18.1916 21.4376 18.2773C21.4376 18.2149 21.4376 18.1525 21.4376 18.0882C21.3591 18.0934 21.2807 18.0986 21.1998 18.104C20.8168 18.1046 20.4496 18.002 20.1057 17.8361C20.0848 17.7737 20.0638 17.7113 20.0423 17.647Z" fill="#628BCC"/>
<path d="M14.7146 17.7731C14.7355 17.9187 14.7564 18.0643 14.778 18.2143C14.7453 18.1727 14.7126 18.1311 14.6789 18.0882C14.4719 17.9194 14.3414 17.9382 14.0803 17.9622C14.0175 17.9934 14.0175 17.9934 13.9535 18.0252C13.9535 17.9628 13.9535 17.9004 13.9535 17.8361C14.2365 17.7223 14.4171 17.7027 14.7146 17.7731Z" fill="#6795DA"/>
<path d="M6.3425 3.52942C6.59366 3.52942 6.84482 3.52942 7.1036 3.52942C6.90482 3.62818 6.7471 3.68906 6.53674 3.74607C6.29955 3.8143 6.10273 3.89158 5.89852 4.03362C5.89852 3.95043 5.89852 3.86723 5.89852 3.78152C5.96 3.76332 6.02149 3.74512 6.08483 3.72637C6.28583 3.67802 6.28583 3.67802 6.3425 3.52942Z" fill="#13284A"/>
<path d="M20.74 17.8992C20.8748 17.9046 21.0096 17.9115 21.1443 17.9189C21.2193 17.9225 21.2944 17.9262 21.3717 17.9299C21.4353 17.9406 21.4989 17.9512 21.5645 17.9622C21.6063 18.0246 21.6482 18.087 21.6913 18.1513C21.6285 18.2761 21.5658 18.4009 21.5011 18.5294C21.4173 18.5086 21.3336 18.4878 21.2474 18.4664C21.2925 18.4274 21.2925 18.4274 21.3385 18.3876C21.449 18.2647 21.4672 18.1835 21.5011 18.0252C21.4621 18.0267 21.4231 18.0281 21.3829 18.0297C21.306 18.0314 21.306 18.0314 21.2275 18.0331C21.1768 18.0346 21.126 18.036 21.0737 18.0375C20.9302 18.0252 20.9302 18.0252 20.74 17.8992Z" fill="#142C52"/>
<path d="M11.4799 15.1891C11.9404 15.1891 12.4008 15.1891 12.8753 15.1891C12.8962 15.2515 12.9171 15.3139 12.9387 15.3782C12.8765 15.3678 12.8143 15.3575 12.7501 15.3469C12.4858 15.3094 12.2262 15.308 11.9596 15.3112C11.89 15.3116 11.89 15.3116 11.819 15.3121C11.7059 15.3128 11.5929 15.3139 11.4799 15.3151C11.4799 15.2735 11.4799 15.2319 11.4799 15.1891Z" fill="#152C4F"/>
<path d="M20.4228 17.7101C20.5066 17.7101 20.5903 17.7101 20.6765 17.7101C20.6765 17.7517 20.6765 17.7933 20.6765 17.8361C20.7194 17.8294 20.7622 17.8226 20.8064 17.8157C20.8912 17.8044 20.8912 17.8044 20.9778 17.7928C21.0337 17.7848 21.0896 17.7767 21.1473 17.7684C21.3461 17.7741 21.4198 17.8315 21.5645 17.9622C21.1611 17.9749 20.8128 17.9387 20.4228 17.8361C20.4228 17.7945 20.4228 17.7529 20.4228 17.7101Z" fill="#142241"/>
<path d="M10.592 15.8193C10.6129 15.8609 10.6338 15.9025 10.6554 15.9454C10.5524 16.1449 10.4371 16.2957 10.2748 16.4496C10.2539 16.4912 10.233 16.5328 10.2114 16.5756C10.0489 16.615 10.0489 16.615 9.89429 16.6387C9.91808 16.6112 9.94187 16.5837 9.96639 16.5555C10.1771 16.3118 10.3856 16.0666 10.592 15.8193Z" fill="#6993D8"/>
<path d="M9.57717 15.5672C9.63996 15.588 9.70275 15.6088 9.76744 15.6302C9.70465 15.651 9.64186 15.6718 9.57717 15.6933C9.57717 15.6517 9.57717 15.6101 9.57717 15.5672ZM9.45032 15.7563C9.45032 16.0144 9.34269 16.1034 9.17556 16.2908C9.0413 16.4123 8.93321 16.4443 8.75264 16.4496C8.95477 16.1764 9.18798 15.9694 9.45032 15.7563Z" fill="#151B26"/>
<path d="M11.6702 15.2521C11.9423 15.2521 12.2144 15.2521 12.4947 15.2521C12.4947 15.3361 12.4947 15.4201 12.4947 15.5042C12.3441 15.5121 12.3441 15.5121 12.1776 15.5042C12.1357 15.4626 12.0939 15.421 12.0507 15.3781C11.9246 15.3531 11.7977 15.3316 11.6702 15.3151C11.6702 15.2943 11.6702 15.2735 11.6702 15.2521Z" fill="#5E95E1"/>
<path d="M13.4461 18.7185C13.3432 18.7818 13.2401 18.8448 13.1369 18.9075C13.0508 18.9602 13.0508 18.9602 12.963 19.0139C12.8118 19.0966 12.8118 19.0966 12.685 19.0966C12.7059 19.0342 12.7269 18.9718 12.7484 18.9075C12.7903 18.9075 12.8321 18.9075 12.8753 18.9075C12.8753 18.866 12.8753 18.8244 12.8753 18.7815C13.232 18.6476 13.232 18.6476 13.4461 18.7185Z" fill="#6A97DC"/>
<path d="M15.0951 23.0672C15.1161 23.1296 15.137 23.192 15.1586 23.2563C15.0347 23.475 14.8763 23.5885 14.6512 23.6975C14.6093 23.6767 14.5674 23.6559 14.5243 23.6344C14.5243 23.5928 14.5243 23.5512 14.5243 23.5084C14.5832 23.4824 14.642 23.4564 14.7027 23.4296C14.8973 23.3234 14.9804 23.2509 15.0951 23.0672Z" fill="#121B26"/>
<path d="M8.56237 17.395C8.66702 17.395 8.77167 17.395 8.87949 17.395C8.65695 17.5901 8.46774 17.6938 8.18182 17.7731C8.18182 17.7107 8.18182 17.6483 8.18182 17.584C8.3074 17.5424 8.43298 17.5008 8.56237 17.458C8.56237 17.4372 8.56237 17.4164 8.56237 17.395Z" fill="#172C52"/>
<path d="M10.7188 15.2521C10.9329 15.2866 11.0412 15.3186 11.2262 15.4412C11.1006 15.5035 10.9751 15.5659 10.8457 15.6302C10.8038 15.5054 10.7619 15.3806 10.7188 15.2521Z" fill="#162545"/>
<path d="M15.1586 18.6555C15.4411 18.8426 15.4411 18.8426 15.7294 19.0336C15.6875 19.0752 15.6457 19.1168 15.6025 19.1597C15.4519 19.1203 15.4519 19.1203 15.2854 19.0336C15.2022 18.8367 15.2022 18.8367 15.1586 18.6555Z" fill="#152A4C"/>
<path d="M14.5877 16.5126C14.6087 16.575 14.6296 16.6374 14.6512 16.7017C14.5877 16.7647 14.5877 16.7647 14.4705 16.7709C14.3405 16.7688 14.2104 16.7668 14.0803 16.7647C14.0803 16.7023 14.0803 16.6399 14.0803 16.5757C14.1523 16.577 14.2242 16.5783 14.2984 16.5796C14.5126 16.6019 14.5126 16.6019 14.5877 16.5126Z" fill="#6693DB"/>
<path d="M7.04017 18.0252C7.10296 18.1188 7.10296 18.1188 7.16702 18.2143C7.22224 18.2919 7.27775 18.3694 7.33351 18.4467C7.3618 18.4859 7.39009 18.5252 7.41923 18.5656C7.44065 18.5953 7.46207 18.6249 7.48414 18.6555C7.33351 18.6436 7.33351 18.6436 7.16702 18.5924C7.04904 18.3859 7.04017 18.2668 7.04017 18.0252Z" fill="#1B3055"/>
<path d="M21.0571 18.4034C21.1879 18.431 21.1879 18.431 21.3108 18.4664C21.2061 18.5704 21.1015 18.6744 20.9937 18.7815C20.9909 18.6765 20.9911 18.5714 20.9937 18.4664C21.0146 18.4456 21.0355 18.4248 21.0571 18.4034Z" fill="#6090DA"/>
<path d="M18.5201 16.3865C18.7589 16.495 18.9102 16.6382 19.0909 16.8277C18.9006 16.8277 18.9006 16.8277 18.7988 16.7312C18.7657 16.6903 18.7326 16.6493 18.6985 16.6071C18.6649 16.5662 18.6313 16.5252 18.5966 16.483C18.5714 16.4512 18.5461 16.4193 18.5201 16.3865Z" fill="#112A51"/>
<path d="M13.0021 15.3782C13.1486 15.399 13.2951 15.4198 13.4461 15.4412C13.4461 15.5244 13.4461 15.6076 13.4461 15.6933C13.2631 15.6118 13.1371 15.5257 13.0021 15.3782Z" fill="#172E57"/>
<path d="M10.7188 14.6218C10.7188 14.6842 10.7188 14.7466 10.7188 14.8109C10.5682 14.9212 10.5682 14.9212 10.4017 15C10.3598 14.9792 10.318 14.9584 10.2748 14.937C10.4214 14.833 10.5679 14.729 10.7188 14.6218Z" fill="#151B27"/>
<path d="M22.9598 13.0462C23.1501 13.2353 23.1501 13.2353 23.162 13.4362C23.1561 13.5239 23.1561 13.5239 23.1501 13.6134C23.0873 13.6446 23.0873 13.6446 23.0233 13.6765C23.0023 13.4685 22.9814 13.2605 22.9598 13.0462Z" fill="#212833"/>
</svg>
