<svg width="31" height="31" viewBox="0 0 31 31" fill="none" xmlns="http://www.w3.org/2000/svg">
<g clip-path="url(#clip0_270_6265)">
<path d="M25.4732 5.88055C25.5551 6.01091 25.5551 6.01091 25.6184 6.17095C25.6566 6.23954 25.6949 6.30814 25.7343 6.37881C25.8441 6.62443 25.8646 6.78843 25.8675 7.05586C25.8689 7.14303 25.8703 7.23021 25.8718 7.32003C25.8725 7.45958 25.8725 7.45958 25.8732 7.60195C25.8744 7.69899 25.8758 7.79603 25.8772 7.89307C25.8806 8.14728 25.8828 8.40149 25.8847 8.65572C25.8868 8.91561 25.8902 9.17549 25.8935 9.43537C25.8997 9.94441 25.9046 10.4535 25.9086 10.9625C25.9584 10.9618 26.0081 10.961 26.0593 10.9602C26.2873 10.9572 26.5153 10.9553 26.7432 10.9534C26.8215 10.9522 26.8997 10.951 26.9802 10.9498C27.483 10.9467 27.9567 10.9488 28.4034 11.2075C28.6211 11.4254 28.6846 11.6302 28.6852 11.934C28.6857 11.9963 28.6861 12.0586 28.6866 12.1228C28.6862 12.223 28.6862 12.223 28.6857 12.3252C28.6859 12.3945 28.686 12.4637 28.6861 12.5351C28.6862 12.6817 28.686 12.8282 28.6854 12.9747C28.6846 13.1979 28.6854 13.4211 28.6863 13.6443C28.6862 13.7869 28.686 13.9295 28.6857 14.0721C28.686 14.1384 28.6863 14.2048 28.6866 14.2731C28.6839 14.6508 28.6438 14.9609 28.5213 15.3185C28.4973 15.3904 28.4734 15.4622 28.4487 15.5363C28.2718 15.7314 28.2718 15.7314 28.0859 15.8993C28.038 15.8993 27.9901 15.8993 27.9407 15.8993C27.9407 15.9472 27.9407 15.9951 27.9407 16.0445C27.8108 16.0932 27.6807 16.1415 27.5506 16.1897C27.4782 16.2166 27.4058 16.2436 27.3312 16.2714C27.1424 16.3349 27.1424 16.3349 26.9972 16.3349C26.9733 18.6827 26.9494 21.0306 26.9247 23.4496C27.1163 23.4736 27.3079 23.4975 27.5053 23.5222C27.7222 23.6022 27.8713 23.7013 28.0133 23.8852C28.0734 24.1262 28.0617 24.3512 28.045 24.5976C28.0427 24.6618 28.0404 24.7259 28.0381 24.792C28.0321 24.9497 28.023 25.1072 28.0133 25.2646C28.0971 25.2784 28.0971 25.2784 28.1825 25.2924C28.5165 25.3697 28.6983 25.5665 28.8842 25.8454C28.9609 26.2571 28.9504 26.5946 28.8842 27.007C28.9437 27.002 29.0032 26.9969 29.0645 26.9917C29.3009 26.9798 29.5201 26.9767 29.755 27.007C29.9764 27.2234 30.0369 27.3452 30.0635 27.6513C30.0575 27.7022 30.0515 27.7532 30.0453 27.8056C29.9974 27.8056 29.9495 27.8056 29.9002 27.8056C29.8712 27.841 29.8422 27.8764 29.8123 27.9128C29.6166 28.0795 29.4562 28.0506 29.2022 28.0506C29.1529 28.0509 29.1036 28.0512 29.0529 28.0515C28.8865 28.0522 28.7202 28.0514 28.5539 28.0506C28.4339 28.0508 28.314 28.0511 28.194 28.0514C27.8634 28.0522 27.5328 28.0516 27.2022 28.0508C26.846 28.0502 26.4898 28.0508 26.1336 28.0512C25.4354 28.0519 24.7372 28.0514 24.039 28.0506C23.2264 28.0496 22.4138 28.0497 21.6012 28.0498C20.1516 28.0501 18.7019 28.0492 17.2523 28.0478C15.8447 28.0464 14.4372 28.0459 13.0296 28.0463C11.4981 28.0468 9.96666 28.0467 8.43518 28.0459C8.27193 28.0458 8.10869 28.0457 7.94545 28.0457C7.86512 28.0456 7.78479 28.0456 7.70203 28.0455C7.13528 28.0452 6.56853 28.0453 6.00178 28.0454C5.31123 28.0456 4.62068 28.0452 3.93012 28.0441C3.57762 28.0436 3.22511 28.0433 2.8726 28.0436C2.55011 28.0439 2.22763 28.0436 1.90514 28.0427C1.78827 28.0424 1.6714 28.0425 1.55453 28.0428C1.39602 28.0431 1.23754 28.0426 1.07904 28.0419C0.990891 28.0418 0.902742 28.0418 0.811921 28.0417C0.580685 28.0234 0.422853 27.9845 0.217635 27.8782C0.0759398 27.6987 -0.0046375 27.5926 0.00898641 27.3609C0.085695 27.1965 0.145009 27.1176 0.290209 27.007C0.501976 26.9857 0.501976 26.9857 0.739257 26.9934C0.818121 26.9954 0.896985 26.9973 0.978239 26.9994C1.06875 27.0031 1.06875 27.0031 1.16109 27.007C1.15417 26.9448 1.14724 26.8825 1.14011 26.8184C1.09555 26.3586 1.06256 25.988 1.23366 25.555C1.30551 25.555 1.37736 25.555 1.45138 25.555C1.47533 25.4831 1.49928 25.4113 1.52396 25.3372C1.6916 25.3133 1.85925 25.2893 2.03197 25.2646C2.02159 25.1908 2.02159 25.1908 2.01099 25.1155C1.95612 24.6546 1.91583 24.1765 2.10455 23.74C2.23694 23.655 2.23694 23.655 2.39484 23.5948C2.44442 23.5736 2.494 23.5523 2.54509 23.5305C2.5943 23.5113 2.64351 23.4921 2.69421 23.4723C2.74379 23.4526 2.79337 23.4328 2.84446 23.4125C2.97543 23.377 2.97543 23.377 3.12057 23.4496C3.12057 23.4017 3.12057 23.3538 3.12057 23.3044C3.04873 23.2805 2.97688 23.2565 2.90285 23.2318C2.9747 23.2318 3.04655 23.2318 3.12057 23.2318C3.08465 19.7819 3.08465 19.7819 3.048 16.2623C2.85641 16.1664 2.66481 16.0706 2.46741 15.9719C2.28598 15.8176 2.28598 15.8176 2.17712 15.6815C2.17712 15.6336 2.17712 15.5857 2.17712 15.5363C2.12922 15.5123 2.08132 15.4884 2.03197 15.4637C1.76212 15.0221 1.69894 14.6083 1.70568 14.0999C1.70557 14.0345 1.70546 13.9691 1.70536 13.9018C1.70548 13.7646 1.70631 13.6274 1.70782 13.4901C1.70992 13.2814 1.70931 13.0729 1.70837 12.8641C1.70882 12.73 1.70943 12.596 1.71021 12.4619C1.71 12.4002 1.70979 12.3386 1.70957 12.275C1.71598 11.8646 1.78703 11.5544 1.9594 11.1803C2.41847 10.8725 3.1318 10.9535 3.66119 10.958C3.77189 10.9585 3.77189 10.9585 3.88482 10.959C4.06552 10.9598 4.2462 10.961 4.4269 10.9625C4.42641 10.9089 4.42593 10.8553 4.42543 10.8001C4.42106 10.2938 4.41775 9.78753 4.41562 9.28124C4.41448 9.02098 4.41295 8.76073 4.41047 8.50048C4.4081 8.2491 4.4068 7.99775 4.40624 7.74637C4.40564 7.60425 4.40395 7.46214 4.40223 7.32003C4.40221 7.23285 4.4022 7.14568 4.40218 7.05586C4.4017 6.97944 4.40121 6.90303 4.40071 6.82429C4.44328 6.47025 4.60039 6.18386 4.85327 5.935C4.88751 5.90018 4.92175 5.86537 4.95702 5.8295C5.27678 5.58481 5.60564 5.56911 5.99479 5.57136C6.07628 5.57098 6.07628 5.57098 6.15941 5.57059C6.33817 5.56995 6.51691 5.57037 6.69567 5.57086C6.82009 5.57077 6.94451 5.57063 7.06893 5.57044C7.32924 5.57023 7.58954 5.57054 7.84985 5.57122C8.18395 5.57205 8.51804 5.57157 8.85215 5.5707C9.10884 5.57018 9.36552 5.57034 9.62221 5.57072C9.74545 5.57082 9.86869 5.5707 9.99192 5.57036C10.1638 5.56999 10.3356 5.57055 10.5074 5.57136C10.5586 5.57107 10.6097 5.57077 10.6624 5.57047C11.0145 5.57356 11.0145 5.57356 11.1762 5.73535C11.1762 5.83118 11.1762 5.92701 11.1762 6.02575C11.2481 6.06168 11.2481 6.06168 11.3214 6.09835C11.3741 6.24201 11.4228 6.38726 11.4665 6.53394C11.3943 6.53437 11.322 6.53479 11.2476 6.53523C10.5673 6.53938 9.88707 6.54466 9.20683 6.55106C8.85709 6.55431 8.50736 6.55715 8.15761 6.55909C7.82021 6.56098 7.48283 6.56391 7.14544 6.56757C7.01659 6.56878 6.88774 6.56962 6.75889 6.57007C6.57868 6.57077 6.39852 6.5728 6.21832 6.57515C6.13806 6.575 6.13806 6.575 6.05618 6.57484C5.73951 6.5807 5.67855 6.58863 5.44293 6.82434C5.41898 8.2139 5.39503 9.60345 5.37035 11.0351C11.7888 11.0112 18.2071 10.9872 24.82 10.9625C24.7961 10.9146 24.7721 10.8667 24.7475 10.8173C24.7954 10.8173 24.8433 10.8173 24.8926 10.8173C24.8687 9.45172 24.8447 8.08612 24.82 6.67914C24.5064 6.61639 24.2281 6.59708 23.912 6.59945C23.8315 6.59961 23.8315 6.59961 23.7495 6.59977C23.6336 6.60005 23.5177 6.60049 23.4018 6.60109C23.2185 6.60201 23.0352 6.60249 22.8519 6.60284C22.4632 6.60367 22.0745 6.60506 21.6858 6.60654C21.2346 6.60825 20.7834 6.60973 20.3322 6.6106C20.1513 6.61108 19.9705 6.61198 19.7897 6.61291C19.6793 6.61317 19.569 6.61341 19.4586 6.61363C19.3829 6.61419 19.3829 6.61419 19.3056 6.61477C18.9581 6.61481 18.9581 6.61481 18.7964 6.53394C18.7964 6.41415 18.7964 6.29436 18.7964 6.17095C18.8683 6.17095 18.9401 6.17095 19.0142 6.17095C18.9902 6.09907 18.9663 6.0272 18.9416 5.95315C18.9895 5.95315 19.0374 5.95315 19.0867 5.95315C19.0867 5.85732 19.0867 5.76148 19.0867 5.66275C19.2989 5.55661 19.4906 5.57518 19.7275 5.56948C19.7785 5.56818 19.8295 5.56688 19.8821 5.56554C20.0515 5.56138 20.2208 5.55782 20.3902 5.55442C20.4483 5.55323 20.5063 5.55204 20.5661 5.55082C20.8739 5.54464 21.1817 5.539 21.4895 5.53371C21.7431 5.52925 21.9966 5.52372 22.2501 5.51719C22.5571 5.5093 22.864 5.5033 23.171 5.49859C23.2874 5.49651 23.4038 5.49379 23.5201 5.4904C24.2136 5.47078 24.8723 5.48017 25.4732 5.88055ZM3.38819 13.6805C3.32752 13.6842 3.26685 13.688 3.20435 13.6919C3.05544 13.7013 2.90657 13.7112 2.75771 13.7213C2.69357 14.388 2.69357 14.388 2.87564 15.0099C3.15048 15.2704 3.36463 15.3142 3.73745 15.3276C4.04597 15.2284 4.16648 15.1182 4.3478 14.8545C4.49973 14.4906 4.45868 14.1075 4.4269 13.7213C4.07696 13.625 3.74555 13.6559 3.38819 13.6805ZM5.37035 13.7213C5.36436 13.8935 5.35838 14.0657 5.35221 14.2431C5.34957 14.2967 5.34692 14.3502 5.3442 14.4054C5.33989 14.6626 5.36388 14.8001 5.50303 15.0182C5.70933 15.2212 5.82764 15.3127 6.11877 15.3457C6.43354 15.3137 6.57851 15.2262 6.82182 15.0281C7.00006 14.7606 6.98345 14.56 6.97604 14.2522C6.97305 14.077 6.97005 13.9018 6.96697 13.7213C6.44009 13.7213 5.9132 13.7213 5.37035 13.7213ZM7.91042 13.7213C7.88037 14.3902 7.88834 14.7303 8.32319 15.2459C8.59334 15.3628 8.86268 15.3149 9.14417 15.2459C9.38308 15.0866 9.45927 14.9952 9.57961 14.7377C9.60583 14.4776 9.60583 14.4776 9.59322 14.2068C9.58873 14.0466 9.58424 13.8864 9.57961 13.7213C9.02878 13.7213 8.47795 13.7213 7.91042 13.7213ZM10.5231 13.7213C10.468 14.5075 10.468 14.5075 10.8134 15.1733C11.1434 15.3493 11.3965 15.318 11.7568 15.2459C11.7808 15.1501 11.8047 15.0542 11.8294 14.9555C11.9252 14.9315 12.021 14.9076 12.1197 14.8829C12.205 14.4775 12.1923 14.1579 12.1923 13.7213C11.6414 13.7213 11.0906 13.7213 10.5231 13.7213ZM13.1357 13.7213C13.1312 13.8815 13.1267 14.0417 13.1221 14.2068C13.1196 14.2969 13.1171 14.387 13.1145 14.4799C13.1371 14.7546 13.1891 14.8831 13.3534 15.1007C13.6396 15.3313 13.8628 15.3458 14.2243 15.3185C14.2722 15.2945 14.3201 15.2706 14.3695 15.2459C14.3695 15.198 14.3695 15.1501 14.3695 15.1007C14.4144 15.0857 14.4593 15.0707 14.5055 15.0553C14.7316 14.909 14.748 14.7809 14.8049 14.5199C14.8401 14.1084 14.8401 14.1084 14.7323 13.7213C14.2054 13.7213 13.6786 13.7213 13.1357 13.7213ZM15.6758 13.7213C15.6536 14.4739 15.6536 14.4739 15.9343 15.1279C16.1984 15.304 16.4493 15.342 16.7644 15.3185C17.0609 15.1729 17.2313 15.0475 17.345 14.7377C17.3625 14.483 17.3625 14.483 17.354 14.2113C17.3511 14.0496 17.3481 13.8879 17.345 13.7213C16.7941 13.7213 16.2433 13.7213 15.6758 13.7213ZM18.2884 13.7213C18.2869 13.8725 18.2854 14.0238 18.2839 14.1796C18.2831 14.2646 18.2822 14.3497 18.2813 14.4374C18.2776 14.6673 18.2776 14.6673 18.361 14.8829C18.4089 14.8829 18.4568 14.8829 18.5062 14.8829C18.5062 14.9548 18.5062 15.0266 18.5062 15.1007C18.811 15.2749 19.0248 15.3635 19.377 15.3185C19.6306 15.1974 19.7273 15.1196 19.885 14.8829C19.9533 14.48 19.9576 14.1396 19.9576 13.7213C19.4068 13.7213 18.856 13.7213 18.2884 13.7213ZM20.9011 13.7213C20.838 14.3884 20.838 14.3884 21.0281 15.0099C21.2752 15.2571 21.3884 15.3119 21.7402 15.3366C21.9985 15.3385 21.9985 15.3385 22.2074 15.1733C22.2074 15.1254 22.2074 15.0775 22.2074 15.0281C22.2792 15.0041 22.3511 14.9802 22.4251 14.9555C22.4861 14.8222 22.4861 14.8222 22.5158 14.6651C22.5282 14.6127 22.5405 14.5603 22.5533 14.5063C22.5617 14.4411 22.5617 14.4411 22.5703 14.3747C22.5463 14.3507 22.5224 14.3268 22.4977 14.3021C22.5216 14.1104 22.5456 13.9188 22.5703 13.7213C22.0194 13.7213 21.4686 13.7213 20.9011 13.7213ZM23.5137 13.7213C23.5092 13.8815 23.5047 14.0417 23.5001 14.2068C23.4976 14.2969 23.4951 14.387 23.4925 14.4799C23.5151 14.7546 23.5672 14.8831 23.7314 15.1007C23.944 15.272 24.0759 15.3162 24.3483 15.3502C24.6457 15.3131 24.7556 15.2377 24.9652 15.0281C25.1434 14.7606 25.1268 14.56 25.1194 14.2522C25.1164 14.077 25.1134 13.9018 25.1103 13.7213C24.5835 13.7213 24.0566 13.7213 23.5137 13.7213ZM26.0538 13.7213C26.0023 14.4489 26.0023 14.4489 26.2715 15.1007C26.3194 15.1246 26.3673 15.1486 26.4167 15.1733C26.4885 15.2212 26.5604 15.2691 26.6344 15.3185C26.909 15.3439 27.0951 15.338 27.351 15.2323C27.5372 15.0735 27.5584 14.9774 27.5778 14.7377C27.6257 14.7377 27.6736 14.7377 27.723 14.7377C27.723 14.4023 27.723 14.0669 27.723 13.7213C27.1722 13.7213 26.6213 13.7213 26.0538 13.7213ZM7.11212 19.2389C7.03885 19.4587 7.03076 19.6048 7.0313 19.8346C7.03131 19.9116 7.03131 19.9886 7.03132 20.068C7.03169 20.151 7.03207 20.2341 7.03246 20.3196C7.03256 20.4047 7.03266 20.4898 7.03277 20.5775C7.03317 20.8497 7.03408 21.1219 7.03501 21.3942C7.03537 21.5785 7.0357 21.7629 7.036 21.9473C7.0368 22.3997 7.03801 22.8521 7.03954 23.3044C7.1549 23.3164 7.27027 23.3283 7.38565 23.3401C7.44989 23.3468 7.51414 23.3534 7.58033 23.3602C8.20802 23.4173 8.84244 23.3822 9.47019 23.3402C9.52299 23.3367 9.5758 23.3333 9.6302 23.3298C9.75849 23.3215 9.88678 23.313 10.0151 23.3044C10.0169 22.7488 10.0182 22.1931 10.019 21.6374C10.0194 21.4483 10.0199 21.2591 10.0205 21.07C10.0214 20.7986 10.0218 20.5272 10.0221 20.2558C10.0225 20.1708 10.0229 20.0858 10.0233 19.9982C10.0233 19.9198 10.0233 19.8413 10.0233 19.7604C10.0235 19.6911 10.0236 19.6218 10.0238 19.5504C10.026 19.3819 10.026 19.3819 9.94248 19.2389C9.89458 19.2389 9.84668 19.2389 9.79733 19.2389C9.79733 19.1909 9.79733 19.143 9.79733 19.0937C9.44991 19.0901 9.1025 19.0874 8.75507 19.0857C8.63687 19.085 8.51868 19.084 8.40049 19.0827C8.23061 19.0809 8.06075 19.0801 7.89086 19.0795C7.83801 19.0787 7.78516 19.078 7.73071 19.0772C7.45954 19.0771 7.34386 19.0843 7.11212 19.2389Z" fill="#181F30"/>
<path d="M13.1358 0.217786C13.4766 0.456282 13.6949 0.725111 13.9205 1.07083C14.0925 1.34727 14.0925 1.34727 14.297 1.59718C14.7645 1.67587 15.4562 1.77898 15.8751 1.51837C16.1064 1.29152 16.2514 1.00958 16.4016 0.725982C16.7031 0.321084 16.7031 0.321084 16.9096 0.217786C17.2041 0.180692 17.5044 0.151227 17.7748 0.288684C17.9817 0.455694 18.1194 0.625907 18.2159 0.871181C18.2327 1.06402 18.2327 1.06402 18.2296 1.27048C18.2291 1.33861 18.2286 1.40674 18.2281 1.47693C18.2173 1.64845 18.1918 1.79589 18.1434 1.96017C18.2565 1.97618 18.2565 1.97618 18.3719 1.9925C19.0424 2.09675 19.6831 2.21751 20.1533 2.75395C20.317 3.01327 20.3531 3.25361 20.3206 3.55736C20.1675 3.90929 19.9622 4.25005 19.6674 4.50116C19.6195 4.50116 19.5716 4.50116 19.5223 4.50116C19.5223 4.54907 19.5223 4.59699 19.5223 4.64636C19.2481 4.81206 19.0211 4.93691 18.7104 5.01389C18.5006 5.08665 18.4465 5.12977 18.3427 5.33038C18.2941 5.47122 18.2485 5.61309 18.2057 5.75577C18.1012 6.08674 17.8974 6.33237 17.6853 6.60201C17.5276 6.88816 17.5827 7.0143 17.6354 7.33254C17.7141 8.55042 17.7141 8.55042 17.3451 9.00233C16.8859 9.49356 16.3909 9.76554 15.713 9.81377C13.6933 9.86123 13.6933 9.86123 12.8954 9.19772C12.5581 8.85952 12.3625 8.50498 12.3245 8.02564C12.3407 7.79494 12.4066 7.59453 12.4736 7.37338C12.5633 7.03471 12.5633 7.03471 12.4721 6.70835C12.3838 6.58999 12.2919 6.47429 12.1969 6.36124C11.9119 5.99891 11.6118 5.47855 11.6118 5.00935C11.5429 5.00636 11.474 5.00337 11.4031 5.00028C10.8533 4.91788 10.4192 4.58425 10.0832 4.15631C9.79121 3.75221 9.75739 3.4728 9.79742 2.97657C9.91671 2.61858 10.1794 2.49933 10.4976 2.3314C10.8373 2.17055 11.1113 2.08493 11.4893 2.06C11.5668 2.05457 11.6444 2.04914 11.7243 2.04355C11.8123 2.03822 11.8123 2.03822 11.9021 2.03277C11.8901 1.97587 11.8781 1.91897 11.8658 1.86035C11.7959 1.35353 11.7381 0.872749 12.0472 0.435584C12.3452 0.164604 12.7523 0.1301 13.1358 0.217786ZM12.8455 1.45198C12.9181 1.59718 12.9181 1.59718 12.9181 1.59718L12.8455 1.45198ZM17.0548 1.52458C17.1273 1.66978 17.1273 1.66978 17.1273 1.66978L17.0548 1.52458ZM16.9822 1.66978C16.9393 1.7249 16.8963 1.78002 16.8521 1.83681C16.7661 1.94504 16.7661 1.94504 16.6783 2.05546C16.6219 2.12705 16.5655 2.19865 16.5073 2.27241C16.2785 2.5239 16.0942 2.66716 15.7532 2.71781C15.5005 2.72316 15.2482 2.7266 14.9955 2.72701C14.8641 2.73101 14.8641 2.73101 14.7301 2.73509C14.0097 2.73865 14.0097 2.73865 13.7033 2.4834C13.5516 2.32398 13.4143 2.15718 13.2991 1.96925C13.2183 1.85695 13.2183 1.85695 13.1358 1.74238C13.064 1.74238 12.9921 1.74238 12.9181 1.74238C13.0572 2.37876 13.0572 2.37876 13.4261 2.90397C13.29 3.18529 13.29 3.18529 13.2084 3.26697C12.9577 3.29832 12.7769 3.24579 12.5461 3.15807C12.0711 2.99146 11.6077 2.97545 11.131 3.13992C10.9489 3.25073 10.9489 3.25073 10.8951 3.42578C10.8921 3.4692 10.8891 3.51262 10.886 3.55736C11.2421 3.88753 11.5306 4.07687 12.0393 4.05762C12.2363 4.04044 12.4318 4.0192 12.6278 3.99296C12.6227 4.10077 12.6227 4.10077 12.6176 4.21076C12.5901 5.03766 12.7575 5.45837 13.2517 6.10884C13.5855 6.55059 13.5855 6.55059 13.5517 6.85554C13.5249 6.9918 13.4968 7.12783 13.4678 7.26363C13.4016 7.60372 13.3627 7.93336 13.4261 8.27633C13.7227 8.63089 14.0881 8.75749 14.5372 8.80064C14.722 8.80918 14.9058 8.81148 15.0907 8.81175C15.1528 8.81353 15.2149 8.81531 15.2788 8.81714C15.7133 8.81913 16.0389 8.73934 16.4016 8.49413C16.6415 8.23164 16.6471 7.98352 16.6369 7.64251C16.622 7.4581 16.622 7.4581 16.5422 7.21003C16.4389 6.84492 16.4969 6.63364 16.6647 6.298C16.8396 6.00866 17.0387 5.73557 17.2371 5.46197C17.4348 5.16501 17.4388 4.86922 17.4585 4.52385C17.4616 4.47289 17.4647 4.42193 17.468 4.36943C17.4756 4.24396 17.483 4.11846 17.4902 3.99296C17.535 4.00073 17.5798 4.0085 17.626 4.0165C18.0869 4.08176 18.4511 4.0659 18.8691 3.84776C19.0118 3.73539 19.1145 3.62503 19.232 3.48476C19.1899 3.33966 19.1899 3.33966 19.0868 3.19437C18.4678 2.89949 17.8277 3.08768 17.1937 3.22783C17.0593 3.25335 17.0593 3.25335 16.837 3.26697C16.6964 3.1626 16.6964 3.1626 16.6193 3.04917C16.6957 2.8905 16.7736 2.7455 16.8733 2.59996C17.0198 2.32518 17.071 2.04674 17.1273 1.74238C17.0555 1.70644 17.0555 1.70644 16.9822 1.66978Z" fill="#609CF3"/>
<path d="M14.3348 16.9781C14.4144 16.9777 14.4941 16.9773 14.5761 16.9768C14.6628 16.9768 14.7495 16.9767 14.8388 16.9766C14.9766 16.9761 14.9766 16.9761 15.1171 16.9755C15.3686 16.9746 15.6201 16.9741 15.8715 16.9738C16.0289 16.9735 16.1862 16.9732 16.3435 16.9729C16.8362 16.9719 17.3289 16.9712 17.8217 16.9709C18.3894 16.9706 18.9571 16.9694 19.5249 16.9672C19.9645 16.9657 20.4041 16.9649 20.8436 16.9648C21.1059 16.9648 21.3681 16.9643 21.6303 16.963C21.923 16.9616 22.2156 16.9619 22.5084 16.9624C22.5946 16.9617 22.6808 16.9611 22.7697 16.9604C23.2388 16.9628 23.598 16.9987 24.0218 17.2061C24.316 17.5154 24.3936 17.7041 24.3964 18.1237C24.3971 18.2095 24.3978 18.2953 24.3985 18.3837C24.399 18.5235 24.399 18.5235 24.3994 18.666C24.3998 18.7615 24.4003 18.8569 24.4007 18.9553C24.4014 19.1576 24.4019 19.36 24.4021 19.5624C24.4025 19.821 24.4043 20.0796 24.4063 20.3382C24.408 20.5854 24.4082 20.8327 24.4085 21.08C24.4094 21.1725 24.4103 21.2651 24.4112 21.3605C24.411 21.4472 24.4108 21.5339 24.4106 21.6232C24.411 21.7372 24.411 21.7372 24.4114 21.8535C24.3722 22.1715 24.261 22.4178 24.0264 22.6374C23.7508 22.7962 23.4961 22.8054 23.182 22.806C23.0997 22.8063 23.0173 22.8066 22.9325 22.8069C22.8425 22.8069 22.7525 22.8068 22.6598 22.8068C22.5648 22.807 22.4698 22.8073 22.3719 22.8075C22.1114 22.8082 21.851 22.8084 21.5905 22.8084C21.4278 22.8085 21.265 22.8086 21.1022 22.8088C20.5343 22.8095 19.9664 22.8098 19.3985 22.8097C18.8693 22.8097 18.34 22.8104 17.8108 22.8116C17.3562 22.8125 16.9017 22.8129 16.4471 22.8129C16.1757 22.8129 15.9043 22.8131 15.6329 22.8138C15.3302 22.8147 15.0276 22.8143 14.7249 22.8139C14.6351 22.8143 14.5452 22.8147 14.4526 22.8151C14.3701 22.8148 14.2876 22.8145 14.2026 22.8142C14.1311 22.8142 14.0595 22.8143 13.9858 22.8143C13.5674 22.7759 13.3337 22.6037 13.0632 22.2881C12.9819 22.0546 12.9806 21.8309 12.979 21.5851C12.9783 21.5022 12.9776 21.4193 12.9768 21.3339C12.9765 21.2447 12.9762 21.1555 12.9759 21.0635C12.9753 20.9255 12.9753 20.9255 12.9747 20.7847C12.974 20.59 12.9735 20.3953 12.9732 20.2006C12.9728 19.952 12.9711 19.7033 12.969 19.4547C12.9673 19.2166 12.9672 18.9784 12.9668 18.7403C12.9659 18.6514 12.965 18.5624 12.9641 18.4708C12.9661 17.6972 12.9661 17.6972 13.2084 17.3513C13.5555 17.0132 13.8652 16.9796 14.3348 16.9781ZM14.0067 18.1499C13.9999 18.2613 13.9982 18.3731 13.9984 18.4847C13.9985 18.5559 13.9985 18.6271 13.9985 18.7005C13.9988 18.7779 13.9992 18.8554 13.9996 18.9352C13.9997 19.014 13.9998 19.0929 13.9999 19.1741C14.0003 19.4271 14.0012 19.6801 14.0021 19.9331C14.0025 20.1042 14.0028 20.2752 14.0031 20.4463C14.0039 20.8666 14.0052 21.2869 14.0067 21.7073C14.1888 21.7983 14.3121 21.789 14.5159 21.7891C14.593 21.7893 14.67 21.7895 14.7494 21.7897C14.8343 21.7896 14.9191 21.7894 15.0066 21.7893C15.0957 21.7894 15.1848 21.7895 15.2766 21.7896C15.5213 21.7899 15.7659 21.7898 16.0106 21.7896C16.2663 21.7894 16.522 21.7896 16.7777 21.7897C17.207 21.7898 17.6363 21.7897 18.0656 21.7893C18.5626 21.7889 19.0596 21.7891 19.5567 21.7895C19.9828 21.7898 20.4089 21.7898 20.8351 21.7896C21.0898 21.7895 21.3446 21.7895 21.5994 21.7898C21.8832 21.79 22.167 21.7897 22.4507 21.7893C22.5358 21.7894 22.6208 21.7896 22.7084 21.7897C22.8236 21.7894 22.8236 21.7894 22.9412 21.7891C23.0084 21.7891 23.0755 21.789 23.1448 21.789C23.2953 21.7967 23.2953 21.7967 23.3687 21.7073C23.3754 21.5936 23.3772 21.4797 23.3769 21.3658C23.3769 21.2931 23.3769 21.2205 23.3769 21.1456C23.3765 21.0666 23.3761 20.9875 23.3758 20.9061C23.3756 20.8256 23.3755 20.7452 23.3754 20.6623C23.375 20.4041 23.3741 20.1459 23.3732 19.8877C23.3728 19.7132 23.3725 19.5386 23.3722 19.3641C23.3714 18.9352 23.3702 18.5062 23.3687 18.0773C22.1587 18.0756 20.9488 18.0743 19.7389 18.0735C19.1771 18.0731 18.6153 18.0726 18.0536 18.0718C17.5641 18.0711 17.0747 18.0706 16.5852 18.0705C16.3259 18.0704 16.0666 18.0701 15.8073 18.0696C15.5183 18.069 15.2293 18.069 14.9402 18.069C14.8536 18.0688 14.767 18.0685 14.6778 18.0683C14.5604 18.0684 14.5604 18.0684 14.4406 18.0686C14.338 18.0685 14.338 18.0685 14.2333 18.0684C14.0804 18.0601 14.0804 18.0601 14.0067 18.1499Z" fill="#619CF5"/>
<path d="M10.9588 28.6666C11.0338 28.6662 11.1088 28.6658 11.1861 28.6654C11.3094 28.6653 11.3094 28.6653 11.4353 28.6651C11.5219 28.6648 11.6085 28.6644 11.6978 28.664C11.9354 28.6632 12.1731 28.6626 12.4108 28.6623C12.5592 28.6621 12.7077 28.6618 12.8562 28.6615C13.3207 28.6605 13.7853 28.6598 14.2498 28.6595C14.7861 28.6592 15.3223 28.6579 15.8586 28.6558C16.2732 28.6542 16.6877 28.6535 17.1023 28.6534C17.3499 28.6533 17.5975 28.6529 17.8451 28.6516C18.1212 28.6503 18.3972 28.6505 18.6733 28.651C18.7554 28.6503 18.8375 28.6496 18.9221 28.6489C19.0349 28.6495 19.0349 28.6495 19.1499 28.6502C19.2152 28.65 19.2805 28.6499 19.3477 28.6498C19.5589 28.6825 19.6592 28.7477 19.8126 28.8946C19.8409 29.0747 19.8409 29.0747 19.8307 29.2712C19.8281 29.3367 19.8255 29.4021 19.8228 29.4695C19.8194 29.5194 19.816 29.5692 19.8126 29.6206C19.6057 29.6896 19.4678 29.7045 19.2526 29.7093C19.1488 29.7118 19.1488 29.7118 19.0428 29.7144C18.9682 29.7158 18.8935 29.7173 18.8167 29.7187C18.74 29.7204 18.6633 29.7221 18.5843 29.7238C18.4222 29.7273 18.2602 29.7306 18.0981 29.7337C17.8493 29.7386 17.6005 29.7442 17.3517 29.7499C17.1944 29.7532 17.0371 29.7564 16.8799 29.7596C16.8051 29.7613 16.7303 29.7631 16.6533 29.7648C16.5843 29.7661 16.5152 29.7673 16.4441 29.7686C16.3832 29.7698 16.3223 29.771 16.2595 29.7723C16.1113 29.7658 16.1113 29.7658 15.9662 29.6932C16.038 29.801 16.038 29.801 16.1113 29.911C16.3045 29.9469 16.3045 29.9469 16.5306 29.9456C16.6143 29.9479 16.698 29.9501 16.7842 29.9524C16.9159 29.9544 16.9159 29.9544 17.0502 29.9564C17.2233 29.9601 17.3963 29.9641 17.5693 29.9683C17.6848 29.9702 17.6848 29.9702 17.8026 29.9722C17.9982 29.9836 17.9982 29.9836 18.2159 30.0562C18.2658 30.206 18.2658 30.206 18.2885 30.3466C18.3364 30.3466 18.3843 30.3466 18.4337 30.3466C18.3939 30.5916 18.3571 30.7156 18.2159 30.9274C17.9522 31.0352 17.6597 31.0123 17.3788 31.014C17.2968 31.0149 17.2968 31.0149 17.2131 31.0158C17.0327 31.0176 16.8522 31.0188 16.6718 31.0199C16.5792 31.0204 16.5792 31.0204 16.4847 31.021C16.1582 31.023 15.8317 31.0244 15.5052 31.0254C15.235 31.0264 14.965 31.0284 14.6949 31.0314C14.3684 31.035 14.042 31.0368 13.7156 31.0373C13.5913 31.0378 13.467 31.0389 13.3428 31.0406C13.1688 31.0429 12.9951 31.0429 12.8211 31.0424C12.7444 31.0442 12.7444 31.0442 12.6661 31.046C12.3889 31.0425 12.2705 31.0044 12.0487 30.8326C11.902 30.637 11.902 30.637 11.902 30.3693C11.9746 30.1288 11.9746 30.1288 12.1923 29.9836C12.3836 29.9671 12.3836 29.9671 12.6105 29.9694C12.7322 29.9701 12.7322 29.9701 12.8564 29.9709C12.9835 29.9727 12.9835 29.9727 13.1131 29.9745C13.2414 29.9755 13.2414 29.9755 13.3724 29.9765C13.5838 29.9782 13.7952 29.9806 14.0067 29.9836C14.0067 29.8878 14.0067 29.792 14.0067 29.6932C13.9637 29.6937 13.9207 29.6942 13.8764 29.6947C13.429 29.6995 12.9817 29.7028 12.5343 29.7052C12.3673 29.7063 12.2003 29.7078 12.0334 29.7097C11.7934 29.7123 11.5535 29.7135 11.3135 29.7145C11.2015 29.7162 11.2015 29.7162 11.0872 29.7179C11.0174 29.7179 10.9477 29.7179 10.8759 29.7179C10.8146 29.7184 10.7534 29.7189 10.6903 29.7194C10.4836 29.687 10.3851 29.6167 10.2329 29.4754C10.1648 29.303 10.1648 29.303 10.1603 29.1124C10.251 28.9128 10.251 28.9128 10.378 28.7494C10.5932 28.6777 10.7343 28.6674 10.9588 28.6666Z" fill="#609CF5"/>
<path d="M23.3687 16.9883C23.7891 17.0988 24.0731 17.1806 24.3121 17.5691C24.4083 17.7615 24.395 17.9082 24.3964 18.1237C24.3971 18.2095 24.3978 18.2953 24.3985 18.3837C24.399 18.5234 24.399 18.5234 24.3994 18.666C24.3998 18.7615 24.4003 18.8569 24.4007 18.9552C24.4014 19.1576 24.4019 19.36 24.4021 19.5624C24.4025 19.821 24.4043 20.0796 24.4063 20.3382C24.408 20.5854 24.4082 20.8327 24.4085 21.0799C24.4094 21.1725 24.4103 21.2651 24.4112 21.3605C24.411 21.4472 24.4108 21.5339 24.4106 21.6232C24.411 21.7372 24.411 21.7372 24.4114 21.8535C24.3722 22.1715 24.261 22.4178 24.0264 22.6374C23.7508 22.7962 23.4961 22.8054 23.182 22.806C23.0997 22.8063 23.0173 22.8066 22.9325 22.8069C22.8425 22.8069 22.7525 22.8068 22.6598 22.8068C22.5648 22.807 22.4698 22.8073 22.3719 22.8075C22.1114 22.8082 21.851 22.8083 21.5905 22.8084C21.4278 22.8084 21.265 22.8086 21.1022 22.8088C20.5343 22.8095 19.9664 22.8098 19.3985 22.8097C18.8693 22.8097 18.34 22.8104 17.8108 22.8116C17.3562 22.8125 16.9017 22.8129 16.4471 22.8129C16.1757 22.8128 15.9043 22.813 15.6329 22.8138C15.3302 22.8146 15.0276 22.8143 14.7249 22.8139C14.6351 22.8143 14.5452 22.8147 14.4526 22.8151C14.3701 22.8148 14.2876 22.8145 14.2026 22.8142C14.1311 22.8142 14.0595 22.8143 13.9858 22.8143C13.5674 22.7759 13.3337 22.6037 13.0632 22.288C12.9819 22.0546 12.9806 21.8309 12.979 21.5851C12.9783 21.5022 12.9776 21.4193 12.9768 21.3339C12.9765 21.2447 12.9762 21.1554 12.9759 21.0635C12.9753 20.9255 12.9753 20.9255 12.9747 20.7847C12.974 20.59 12.9735 20.3953 12.9732 20.2006C12.9728 19.952 12.9711 19.7033 12.969 19.4547C12.9673 19.2165 12.9672 18.9784 12.9668 18.7403C12.9659 18.6514 12.965 18.5624 12.9641 18.4708C12.9655 17.9372 12.9876 17.5722 13.3807 17.1789C13.5892 17.0498 13.694 17.0334 13.9341 17.0609C13.9341 17.1088 13.9341 17.1567 13.9341 17.2061C13.8383 17.2061 13.7425 17.2061 13.6438 17.2061C13.6259 17.2495 13.6079 17.2929 13.5894 17.3377C13.4987 17.4965 13.4987 17.4965 13.3501 17.5906C13.1916 17.7036 13.1916 17.7036 13.172 17.8937C13.172 17.9649 13.172 18.0362 13.172 18.1097C13.1709 18.2311 13.1709 18.2311 13.1699 18.355C13.1707 18.4426 13.1715 18.5301 13.1724 18.6204C13.1723 18.7105 13.1722 18.8007 13.1721 18.8936C13.1722 19.0847 13.1729 19.2757 13.1745 19.4668C13.1762 19.6621 13.1767 19.8573 13.176 20.0526C13.1751 20.3345 13.1757 20.6163 13.1769 20.8982C13.1767 20.985 13.1765 21.0718 13.1763 21.1613C13.1815 21.6329 13.2061 22.0113 13.4261 22.4332C13.656 22.5891 13.8526 22.5971 14.126 22.5987C14.2094 22.5995 14.2929 22.6003 14.3789 22.6011C14.4701 22.6013 14.5614 22.6014 14.6554 22.6016C14.7527 22.6023 14.8499 22.603 14.9472 22.6038C15.2111 22.6058 15.475 22.6069 15.7389 22.6078C16.0147 22.609 16.2906 22.6109 16.5664 22.6128C17.0887 22.6162 17.6109 22.6188 18.1332 22.6212C18.7278 22.624 19.3225 22.6276 19.9171 22.6313C21.1402 22.6388 22.3633 22.6452 23.5864 22.651C23.5864 22.6031 23.5864 22.5552 23.5864 22.5058C23.5385 22.5058 23.4906 22.5058 23.4412 22.5058C23.4412 22.4579 23.4412 22.41 23.4412 22.3606C23.7286 22.2528 23.7286 22.2528 24.0218 22.1428C23.9979 22.0231 23.9739 21.9033 23.9493 21.7799C23.664 21.8216 23.664 21.8216 23.4412 21.9976C23.2907 22.0157 23.2907 22.0157 23.1013 22.0156C23.0296 22.0159 22.9579 22.0162 22.884 22.0165C22.7655 22.0159 22.7655 22.0159 22.6446 22.0153C22.5617 22.0154 22.4787 22.0156 22.3932 22.0157C22.1175 22.016 21.8417 22.0152 21.5659 22.0144C21.3744 22.0143 21.1829 22.0143 20.9914 22.0143C20.5891 22.0142 20.1867 22.0136 19.7843 22.0126C19.3208 22.0115 18.8573 22.0111 18.3938 22.0111C17.9469 22.0112 17.4999 22.0108 17.053 22.0102C16.8634 22.01 16.6739 22.0098 16.4844 22.0098C16.2183 22.0096 15.9522 22.009 15.6861 22.0082C15.6084 22.0082 15.5308 22.0083 15.4508 22.0083C14.9658 22.0063 14.4889 21.9771 14.0067 21.925C14.1919 21.7398 14.2594 21.7612 14.5164 21.7596C14.5936 21.7588 14.6707 21.758 14.7502 21.7572C14.8352 21.757 14.9202 21.7569 15.0077 21.7567C15.0969 21.756 15.1861 21.7552 15.2781 21.7545C15.5231 21.7526 15.768 21.7514 16.013 21.7505C16.2689 21.7493 16.5248 21.7474 16.7807 21.7455C17.2655 21.7421 17.7502 21.7395 18.235 21.7371C18.7868 21.7343 19.3386 21.7307 19.8904 21.727C21.0256 21.7195 22.1608 21.7132 23.2961 21.7073C23.32 20.5094 23.344 19.3115 23.3687 18.0773C20.3032 18.1012 17.2377 18.1252 14.0793 18.1499C14.0793 19.3478 14.0793 20.5457 14.0793 21.7799C14.0074 21.7799 13.9356 21.7799 13.8615 21.7799C13.8597 21.2449 13.8584 20.7099 13.8576 20.1749C13.8572 19.9928 13.8567 19.8107 13.8561 19.6286C13.8552 19.3673 13.8548 19.106 13.8544 18.8447C13.8541 18.7628 13.8537 18.681 13.8533 18.5967C13.8533 18.4834 13.8533 18.4834 13.8533 18.3677C13.8531 18.301 13.853 18.2342 13.8528 18.1655C13.8615 18.0047 13.8615 18.0047 13.9341 17.8595C14.004 17.859 14.004 17.859 14.0754 17.8585C15.2086 17.8511 16.3418 17.8432 17.475 17.8348C18.023 17.8308 18.571 17.8269 19.119 17.8234C19.5965 17.8203 20.074 17.8169 20.5516 17.8132C20.8045 17.8113 21.0575 17.8095 21.3104 17.808C21.5925 17.8063 21.8745 17.8041 22.1566 17.8018C22.2409 17.8014 22.3252 17.8009 22.412 17.8005C22.4886 17.7998 22.5651 17.7991 22.6439 17.7984C22.7441 17.7977 22.7441 17.7977 22.8463 17.7969C23.009 17.7971 23.009 17.7971 23.1509 17.7143C23.1509 17.7622 23.1509 17.8101 23.1509 17.8595C23.2228 17.8595 23.2946 17.8595 23.3687 17.8595C23.4645 17.6439 23.5603 17.4282 23.659 17.2061C23.5153 17.1701 23.5153 17.1701 23.3687 17.1335C23.3687 17.0856 23.3687 17.0376 23.3687 16.9883Z" fill="#6599F0"/>
<path d="M10.9588 28.6666C11.0338 28.6662 11.1088 28.6658 11.1861 28.6654C11.3094 28.6653 11.3094 28.6653 11.4353 28.6651C11.5219 28.6648 11.6085 28.6644 11.6978 28.664C11.9354 28.6632 12.1731 28.6626 12.4108 28.6623C12.5592 28.6621 12.7077 28.6618 12.8562 28.6615C13.3207 28.6605 13.7853 28.6598 14.2498 28.6595C14.7861 28.6592 15.3223 28.6579 15.8586 28.6558C16.2732 28.6542 16.6877 28.6535 17.1023 28.6534C17.3499 28.6533 17.5975 28.6529 17.8451 28.6516C18.1212 28.6503 18.3972 28.6505 18.6733 28.651C18.7554 28.6503 18.8375 28.6496 18.9221 28.6489C19.0349 28.6495 19.0349 28.6495 19.1499 28.6502C19.2152 28.65 19.2805 28.6499 19.3477 28.6498C19.5589 28.6825 19.6592 28.7477 19.8126 28.8946C19.8409 29.0747 19.8409 29.0747 19.8307 29.2712C19.8281 29.3367 19.8255 29.4021 19.8228 29.4695C19.8194 29.5194 19.816 29.5692 19.8126 29.6206C19.6057 29.6896 19.4678 29.7045 19.2526 29.7093C19.1488 29.7118 19.1488 29.7118 19.0428 29.7144C18.9682 29.7158 18.8935 29.7173 18.8167 29.7187C18.74 29.7204 18.6633 29.7221 18.5843 29.7238C18.4222 29.7273 18.2602 29.7306 18.0981 29.7337C17.8493 29.7386 17.6005 29.7442 17.3517 29.7499C17.1944 29.7532 17.0371 29.7564 16.8799 29.7596C16.8051 29.7613 16.7303 29.7631 16.6533 29.7648C16.5843 29.7661 16.5152 29.7673 16.4441 29.7686C16.3832 29.7698 16.3223 29.771 16.2595 29.7723C16.1113 29.7658 16.1113 29.7658 15.9662 29.6932C15.9662 29.6453 15.9662 29.5974 15.9662 29.548C17.1397 29.5241 18.3132 29.5001 19.5223 29.4754C19.5462 29.3317 19.5702 29.1879 19.5948 29.0398C19.499 29.0398 19.4032 29.0398 19.3045 29.0398C19.2327 29.0039 19.2327 29.0039 19.1594 28.9672C19.0426 28.9605 18.9255 28.9584 18.8086 28.9585C18.6974 28.9583 18.6974 28.9583 18.5841 28.9582C18.5025 28.9585 18.4209 28.9587 18.3368 28.959C18.2511 28.959 18.1655 28.959 18.0772 28.959C17.842 28.959 17.6067 28.9594 17.3715 28.9599C17.1257 28.9603 16.88 28.9604 16.6343 28.9605C16.1688 28.9607 15.7033 28.9613 15.2379 28.962C14.708 28.9628 14.1781 28.9632 13.6483 28.9636C12.5582 28.9643 11.4681 28.9656 10.378 28.9672C10.402 29.1589 10.4259 29.3506 10.4506 29.548C10.5201 29.5403 10.5201 29.5403 10.591 29.5325C11.2469 29.4682 11.8991 29.4643 12.5574 29.466C12.7479 29.4664 12.9383 29.466 13.1287 29.4655C13.25 29.4655 13.3712 29.4656 13.4924 29.4658C13.5493 29.4656 13.6061 29.4655 13.6647 29.4653C14.0626 29.4671 14.0626 29.4671 14.2244 29.548C14.254 29.7166 14.2784 29.8861 14.297 30.0562C14.1038 30.1528 13.9568 30.137 13.7408 30.1359C13.6594 30.1357 13.578 30.1354 13.4941 30.1352C13.4088 30.1346 13.3235 30.134 13.2356 30.1334C13.1497 30.133 13.0638 30.1327 12.9753 30.1324C12.7627 30.1315 12.5501 30.1303 12.3375 30.1288C12.3038 30.1962 12.3038 30.1962 12.2695 30.2649C12.2196 30.3648 12.1697 30.4646 12.1198 30.5644C12.2207 30.7549 12.2207 30.7549 12.3375 30.9274C12.2014 30.9047 12.2014 30.9047 12.0472 30.8548C11.902 30.637 11.902 30.637 11.9157 30.3784C11.9746 30.1288 11.9746 30.1288 12.1923 29.9836C12.3836 29.9671 12.3836 29.9671 12.6105 29.9694C12.7322 29.9701 12.7322 29.9701 12.8564 29.9709C12.9835 29.9727 12.9835 29.9727 13.1131 29.9745C13.2414 29.9755 13.2414 29.9755 13.3724 29.9765C13.5838 29.9782 13.7952 29.9806 14.0067 29.9836C14.0067 29.8878 14.0067 29.792 14.0067 29.6932C13.9637 29.6937 13.9207 29.6942 13.8764 29.6947C13.429 29.6995 12.9817 29.7028 12.5343 29.7052C12.3673 29.7063 12.2003 29.7078 12.0334 29.7097C11.7934 29.7123 11.5535 29.7135 11.3135 29.7145C11.2015 29.7162 11.2015 29.7162 11.0872 29.7179C11.0174 29.7179 10.9477 29.7179 10.8759 29.7179C10.8146 29.7184 10.7534 29.7189 10.6903 29.7194C10.4836 29.687 10.3851 29.6167 10.2329 29.4754C10.1648 29.303 10.1648 29.303 10.1603 29.1124C10.251 28.9128 10.251 28.9128 10.378 28.7494C10.5932 28.6777 10.7343 28.6674 10.9588 28.6666Z" fill="#669CE8"/>
<path d="M17.6354 5.95319C17.7072 5.95319 17.7791 5.95319 17.8531 5.95319C17.901 6.04902 17.9489 6.14485 17.9982 6.24358C17.9498 6.29763 17.9498 6.29763 17.9004 6.35277C17.8594 6.40209 17.8183 6.45141 17.776 6.50222C17.7347 6.55023 17.6935 6.59824 17.651 6.6477C17.5261 6.89794 17.5836 7.06113 17.6354 7.33258C17.7141 8.55046 17.7141 8.55046 17.3451 9.00237C16.8859 9.4936 16.3909 9.76558 15.713 9.81381C14.0632 9.85257 14.0632 9.85257 13.3535 9.51056C13.3535 9.48661 13.3535 9.46265 13.3535 9.43796C13.4851 9.44815 13.6166 9.45883 13.7481 9.46973C13.8214 9.47562 13.8946 9.48152 13.9701 9.48759C14.1518 9.51056 14.1518 9.51056 14.2244 9.58316C14.3695 9.58952 14.5149 9.59093 14.6601 9.59025C14.7483 9.59002 14.8365 9.58978 14.9273 9.58954C15.0202 9.58894 15.113 9.58833 15.2087 9.5877C15.3484 9.58721 15.3484 9.58721 15.4909 9.58671C15.7219 9.58585 15.9529 9.58465 16.1839 9.58316C16.1839 9.53525 16.1839 9.48733 16.1839 9.43796C16.3276 9.40203 16.3276 9.40203 16.4742 9.36536C16.4742 9.14974 16.4742 8.93412 16.4742 8.71197C16.3904 8.7479 16.3065 8.78384 16.2202 8.82087C15.7152 8.99357 15.186 8.9472 14.6598 8.92977C14.6598 8.88185 14.6598 8.83394 14.6598 8.78457C14.7369 8.7827 14.814 8.78082 14.8934 8.7789C15.6908 8.75629 15.6908 8.75629 16.4016 8.42157C16.5932 8.11817 16.578 7.82583 16.5468 7.47778C16.5213 7.38943 16.4959 7.30109 16.4696 7.21007C16.3953 6.94734 16.4013 6.79508 16.4742 6.53398C16.5221 6.48607 16.57 6.43815 16.6193 6.38878C16.5954 6.58045 16.5714 6.77211 16.5468 6.96958C16.5947 6.96958 16.6426 6.96958 16.6919 6.96958C16.7159 6.92166 16.7398 6.87375 16.7645 6.82438C16.8004 7.00406 16.8004 7.00406 16.8371 7.18738C16.8011 7.1155 16.8011 7.1155 16.7645 7.04218C16.7405 7.06614 16.7166 7.09009 16.6919 7.11478C16.7278 7.22483 16.7278 7.22483 16.7645 7.33711C16.8421 7.60517 16.8484 7.85184 16.8371 8.13117C16.8849 8.13117 16.9328 8.13117 16.9822 8.13117C16.9822 8.20305 16.9822 8.27492 16.9822 8.34897C17.0496 8.31303 17.0496 8.31303 17.1183 8.27637C17.2725 8.20377 17.2725 8.20377 17.4176 8.20377C17.4252 7.78625 17.4322 7.37944 17.3451 6.96958C17.2972 6.94562 17.2493 6.92166 17.1999 6.89698C17.3269 6.61566 17.3269 6.61566 17.4902 6.53398C17.5174 6.36503 17.5416 6.19558 17.5628 6.02579C17.5867 6.00183 17.6107 5.97787 17.6354 5.95319Z" fill="#629AEB"/>
<path d="M8.37623 28.635C8.52223 28.636 8.66788 28.6335 8.81385 28.6307C8.95256 28.631 8.95256 28.631 9.09408 28.6312C9.1785 28.6311 9.26293 28.6311 9.34991 28.631C9.64598 28.69 9.75556 28.808 9.94257 29.0398C9.96837 29.2542 9.91728 29.4059 9.86999 29.6206C9.50077 29.7437 9.10803 29.7096 8.72159 29.7107C8.56899 29.7114 8.41646 29.7136 8.26388 29.7159C8.16659 29.7164 8.06931 29.7168 7.97203 29.717C7.83957 29.7181 7.83957 29.7181 7.70443 29.7191C7.45692 29.6912 7.35488 29.6553 7.18477 29.4754C7.14419 29.1963 7.13154 29.0391 7.30244 28.8084C7.61664 28.5689 7.99494 28.6313 8.37623 28.635Z" fill="#609DF4"/>
<path d="M21.4727 28.6632C21.5665 28.6623 21.6603 28.6614 21.757 28.6605C21.8471 28.6604 21.9372 28.6602 22.03 28.6601C22.1127 28.6598 22.1954 28.6595 22.2806 28.6592C22.4927 28.6764 22.6126 28.7045 22.7881 28.822C22.8795 29.005 22.8547 29.1018 22.8289 29.303C22.8178 29.392 22.8178 29.392 22.8065 29.4828C22.8004 29.5283 22.7943 29.5737 22.7881 29.6206C22.4187 29.7438 22.0263 29.7124 21.6397 29.7146C21.5375 29.7155 21.4354 29.717 21.3333 29.7191C21.1855 29.7222 21.0379 29.7234 20.8901 29.7241C20.7576 29.7257 20.7576 29.7257 20.6225 29.7273C20.3503 29.6868 20.2696 29.6166 20.1029 29.4028C20.0303 29.2621 20.0303 29.2621 20.0303 29.1124C20.4107 28.5482 20.8414 28.6635 21.4727 28.6632Z" fill="#609DF5"/>
<path d="M13.9341 17.0609C13.9341 17.1088 13.9341 17.1567 13.9341 17.2061C13.8383 17.2061 13.7425 17.2061 13.6438 17.2061C13.6259 17.2495 13.6079 17.2929 13.5894 17.3377C13.4987 17.4965 13.4987 17.4965 13.3501 17.5906C13.1916 17.7036 13.1916 17.7036 13.172 17.8937C13.172 17.9649 13.172 18.0362 13.172 18.1097C13.1709 18.2311 13.1709 18.2311 13.1699 18.355C13.1707 18.4426 13.1715 18.5301 13.1724 18.6203C13.1723 18.7105 13.1722 18.8007 13.1721 18.8936C13.1722 19.0847 13.1729 19.2757 13.1745 19.4668C13.1762 19.6621 13.1767 19.8573 13.176 20.0526C13.1751 20.3345 13.1757 20.6163 13.1769 20.8982C13.1767 20.985 13.1765 21.0718 13.1763 21.1613C13.1815 21.6329 13.2061 22.0113 13.4261 22.4332C13.656 22.5891 13.8526 22.5971 14.126 22.5987C14.2094 22.5995 14.2929 22.6003 14.3789 22.6011C14.4701 22.6013 14.5614 22.6014 14.6554 22.6016C14.7527 22.6023 14.8499 22.603 14.9472 22.6038C15.2111 22.6058 15.475 22.6069 15.7389 22.6078C16.0147 22.609 16.2906 22.6109 16.5664 22.6128C17.0887 22.6162 17.6109 22.6188 18.1332 22.6212C18.7278 22.624 19.3225 22.6276 19.9171 22.6313C21.1402 22.6388 22.3633 22.6452 23.5864 22.651C23.5864 22.699 23.5864 22.7469 23.5864 22.7962C22.3152 22.7996 21.0441 22.8022 19.7729 22.8038C19.1827 22.8045 18.5925 22.8055 18.0022 22.8072C17.4878 22.8086 16.9734 22.8096 16.4589 22.8099C16.1865 22.8101 15.9142 22.8105 15.6418 22.8116C15.3377 22.8128 15.0336 22.8128 14.7295 22.8127C14.5941 22.8135 14.5941 22.8135 14.4559 22.8143C14.3729 22.8141 14.29 22.8139 14.2045 22.8137C14.0967 22.8139 14.0967 22.8139 13.9866 22.8141C13.5677 22.7762 13.3339 22.604 13.0632 22.288C12.9819 22.0546 12.9806 21.8309 12.979 21.5851C12.9783 21.5022 12.9776 21.4193 12.9768 21.3339C12.9765 21.2447 12.9762 21.1554 12.9759 21.0635C12.9753 20.9255 12.9753 20.9255 12.9747 20.7846C12.974 20.59 12.9735 20.3953 12.9732 20.2006C12.9728 19.952 12.9711 19.7033 12.969 19.4547C12.9673 19.2165 12.9672 18.9784 12.9668 18.7403C12.9659 18.6514 12.965 18.5624 12.9641 18.4708C12.9655 17.9372 12.9876 17.5722 13.3807 17.1789C13.5892 17.0498 13.694 17.0334 13.9341 17.0609Z" fill="#6189C8"/>
<path d="M23.3687 18.1499C23.4166 18.1499 23.4645 18.1499 23.5138 18.1499C23.5175 18.6525 23.52 19.1552 23.5218 19.6578C23.5225 19.8289 23.5235 19.9999 23.5248 20.171C23.5265 20.4166 23.5273 20.6622 23.528 20.9078C23.5287 20.9845 23.5295 21.0612 23.5303 21.1402C23.5303 21.2114 23.5303 21.2826 23.5303 21.356C23.5306 21.4187 23.5309 21.4814 23.5313 21.546C23.5138 21.7073 23.5138 21.7073 23.3687 21.9251C23.2046 21.9519 23.2046 21.9519 22.9958 21.9513C22.8773 21.9517 22.8773 21.9517 22.7565 21.9522C22.626 21.951 22.626 21.951 22.4928 21.9498C22.4015 21.9498 22.3101 21.9499 22.216 21.9499C21.9652 21.95 21.7143 21.9487 21.4635 21.9472C21.2015 21.9458 20.9395 21.9457 20.6775 21.9454C20.1812 21.9447 19.6849 21.9429 19.1885 21.9408C18.6236 21.9383 18.0586 21.9371 17.4937 21.936C16.3313 21.9338 15.169 21.9299 14.0067 21.9251C14.1919 21.7398 14.2594 21.7612 14.5164 21.7597C14.5936 21.7589 14.6707 21.758 14.7502 21.7572C14.8352 21.757 14.9202 21.7569 15.0077 21.7567C15.0969 21.756 15.1861 21.7553 15.2781 21.7545C15.5231 21.7527 15.768 21.7514 16.013 21.7505C16.2689 21.7494 16.5248 21.7474 16.7807 21.7456C17.2655 21.7422 17.7502 21.7395 18.235 21.7371C18.7868 21.7343 19.3386 21.7307 19.8904 21.7271C21.0256 21.7196 22.1608 21.7132 23.2961 21.7073C23.32 20.5333 23.344 19.3594 23.3687 18.1499Z" fill="#5891CD"/>
<path d="M10.6683 28.6768C11.8177 28.6717 12.9671 28.6679 14.1165 28.6655C14.6502 28.6644 15.1839 28.6629 15.7175 28.6604C16.1827 28.6582 16.6478 28.6568 17.1129 28.6563C17.3593 28.656 17.6055 28.6554 17.8519 28.6538C18.1268 28.6522 18.4016 28.652 18.6765 28.6521C18.7583 28.6513 18.84 28.6505 18.9243 28.6497C18.9992 28.65 19.0741 28.6503 19.1512 28.6506C19.2163 28.6504 19.2813 28.6502 19.3483 28.65C19.5592 28.6825 19.6594 28.7479 19.8126 28.8946C19.8409 29.0747 19.8409 29.0747 19.8307 29.2712C19.8281 29.3366 19.8255 29.4021 19.8228 29.4695C19.8194 29.5193 19.816 29.5692 19.8126 29.6206C19.6057 29.6896 19.4678 29.7045 19.2526 29.7093C19.1488 29.7118 19.1488 29.7118 19.0428 29.7144C18.9682 29.7158 18.8935 29.7172 18.8167 29.7187C18.74 29.7204 18.6633 29.7221 18.5843 29.7238C18.4222 29.7273 18.2602 29.7306 18.0981 29.7337C17.8493 29.7386 17.6005 29.7442 17.3517 29.7499C17.1944 29.7532 17.0371 29.7564 16.8799 29.7596C16.8051 29.7613 16.7303 29.763 16.6533 29.7648C16.5843 29.7661 16.5152 29.7673 16.4441 29.7685C16.3832 29.7698 16.3223 29.771 16.2595 29.7723C16.1113 29.7658 16.1113 29.7658 15.9662 29.6932C15.9662 29.6453 15.9662 29.5974 15.9662 29.548C17.1397 29.5241 18.3132 29.5001 19.5223 29.4754C19.5462 29.3317 19.5702 29.1879 19.5948 29.0398C19.5469 29.0398 19.499 29.0398 19.4497 29.0398C19.4138 28.8961 19.4138 28.8961 19.3771 28.7494C16.5032 28.7494 13.6293 28.7494 10.6683 28.7494C10.6683 28.7255 10.6683 28.7015 10.6683 28.6768Z" fill="#6D97CA"/>
<path d="M10.5957 28.6768C13.4936 28.7008 16.3914 28.7247 19.3771 28.7494C19.3532 28.8452 19.3292 28.9411 19.3045 29.0398C19.2327 29.0039 19.2327 29.0039 19.1594 28.9672C19.0445 28.9605 18.9292 28.9584 18.8141 28.9585C18.7412 28.9584 18.6683 28.9583 18.5933 28.9582C18.4729 28.9586 18.4729 28.9586 18.3501 28.959C18.2659 28.959 18.1816 28.959 18.0948 28.9589C17.8152 28.959 17.5356 28.9596 17.256 28.9601C17.0626 28.9603 16.8692 28.9604 16.6758 28.9604C16.218 28.9607 15.7603 28.9613 15.3025 28.962C14.7814 28.9628 14.2603 28.9632 13.7393 28.9636C12.6672 28.9643 11.5952 28.9656 10.5232 28.9672C10.5471 28.8714 10.5711 28.7756 10.5957 28.6768Z" fill="#6DA1E7"/>
<path d="M20.9244 28.6697C21.0156 28.67 21.1068 28.6702 21.2008 28.6705C21.2965 28.6711 21.3922 28.6717 21.4908 28.6723C21.5881 28.6727 21.6853 28.673 21.7825 28.6733C22.021 28.6742 22.2594 28.6753 22.4978 28.6768C22.5337 28.7846 22.5337 28.7846 22.5704 28.8946C22.5147 28.8939 22.4591 28.8931 22.4017 28.8923C22.1495 28.8893 21.8973 28.8874 21.645 28.8856C21.5575 28.8843 21.4699 28.8831 21.3797 28.8819C21.2534 28.8812 21.2534 28.8812 21.1246 28.8805C21.0083 28.8793 21.0083 28.8793 20.8896 28.8782C20.6763 28.8952 20.5597 28.9049 20.3931 29.0398C20.3339 29.2619 20.3339 29.2619 20.3206 29.4754C20.6163 29.479 20.9121 29.4817 21.2078 29.4834C21.3084 29.4841 21.409 29.4851 21.5096 29.4864C21.6542 29.4882 21.7989 29.4889 21.9436 29.4896C22.0306 29.4904 22.1176 29.4911 22.2073 29.4919C22.4384 29.4924 22.4384 29.4924 22.6429 29.3302C22.6611 29.0701 22.6611 29.0701 22.6429 28.822C22.6908 28.822 22.7387 28.822 22.7881 28.822C22.8795 29.005 22.8547 29.1019 22.8289 29.303C22.8178 29.392 22.8178 29.392 22.8065 29.4828C22.8004 29.5283 22.7943 29.5738 22.7881 29.6206C22.4187 29.7438 22.0263 29.7124 21.6397 29.7147C21.5375 29.7155 21.4354 29.717 21.3333 29.7191C21.1855 29.7222 21.0379 29.7234 20.8901 29.7241C20.7576 29.7257 20.7576 29.7257 20.6225 29.7274C20.3503 29.6869 20.2696 29.6166 20.1029 29.4028C20.0303 29.2622 20.0303 29.2622 20.0303 29.1124C20.3013 28.7104 20.4533 28.6676 20.9244 28.6697Z" fill="#7196C9"/>
<path d="M8.37623 28.635C8.52223 28.636 8.66788 28.6335 8.81385 28.6307C8.95256 28.631 8.95256 28.631 9.09408 28.6312C9.1785 28.6311 9.26293 28.6311 9.34991 28.631C9.64598 28.69 9.75556 28.808 9.94257 29.0398C9.96837 29.2542 9.91728 29.4059 9.86999 29.6206C9.50077 29.7437 9.10803 29.7096 8.72159 29.7107C8.56899 29.7114 8.41646 29.7136 8.26388 29.7159C8.16659 29.7164 8.06931 29.7168 7.97203 29.717C7.83957 29.7181 7.83957 29.7181 7.70443 29.7191C7.45692 29.6912 7.35488 29.6553 7.18477 29.4754C7.14419 29.1963 7.13154 29.0391 7.30244 28.8084C7.61664 28.5689 7.99494 28.6313 8.37623 28.635ZM7.47507 28.822C7.37885 28.9415 7.37885 28.9415 7.32992 29.1124C7.42305 29.3472 7.42305 29.3472 7.54764 29.548C7.84471 29.5498 8.14179 29.5511 8.43886 29.552C8.53995 29.5524 8.64104 29.5529 8.74213 29.5535C8.88732 29.5544 9.03251 29.5548 9.17771 29.5551C9.26512 29.5555 9.35253 29.5559 9.4426 29.5563C9.64802 29.5626 9.64802 29.5626 9.79742 29.4754C9.81442 29.1277 9.81442 29.1277 9.65227 28.822C9.42683 28.7917 9.42683 28.7917 9.16183 28.8008C9.11371 28.8011 9.06559 28.8014 9.01602 28.8017C8.86218 28.8029 8.70841 28.8056 8.5546 28.8084C8.45037 28.8095 8.34614 28.8105 8.24191 28.8114C7.98627 28.8138 7.73068 28.8176 7.47507 28.822Z" fill="#6B9EDC"/>
<path d="M13.9341 17.0609C13.9341 17.1088 13.9341 17.1567 13.9341 17.2061C13.8383 17.2061 13.7425 17.2061 13.6438 17.2061C13.6259 17.2495 13.6079 17.2929 13.5894 17.3377C13.4987 17.4965 13.4987 17.4965 13.35 17.5904C13.1913 17.7037 13.1913 17.7037 13.173 17.8951C13.1734 17.967 13.1738 18.039 13.1743 18.1131C13.1739 18.2356 13.1739 18.2356 13.1736 18.3606C13.1749 18.4488 13.1762 18.5371 13.1775 18.628C13.1777 18.7187 13.178 18.8094 13.1782 18.9028C13.179 19.0948 13.1802 19.2868 13.1825 19.4788C13.1854 19.7243 13.1867 19.9697 13.1874 20.2153C13.1881 20.45 13.1896 20.6847 13.1911 20.9194C13.1916 21.0074 13.1922 21.0953 13.1927 21.186C13.1936 21.2681 13.1946 21.3502 13.1955 21.4348C13.1962 21.5069 13.197 21.5789 13.1977 21.6531C13.2081 21.8473 13.2377 22.0262 13.2809 22.2154C13.2331 22.2154 13.1852 22.2154 13.1358 22.2154C13.1358 22.1436 13.1358 22.0717 13.1358 21.9976C13.0879 21.9976 13.04 21.9976 12.9907 21.9976C12.9856 21.4561 12.9817 20.9147 12.9794 20.3732C12.9782 20.1217 12.9767 19.8702 12.9742 19.6188C12.9714 19.3293 12.9704 19.0399 12.9694 18.7505C12.9683 18.6607 12.9671 18.5708 12.966 18.4782C12.9658 17.6964 12.9658 17.6964 13.2084 17.3513C13.4483 17.1113 13.5931 17.0219 13.9341 17.0609Z" fill="#6E99D5"/>
<path d="M23.3687 16.9883C23.7891 17.0988 24.0731 17.1806 24.3121 17.5691C24.4085 17.762 24.3944 17.9088 24.3952 18.1249C24.3957 18.2109 24.3962 18.2969 24.3966 18.3856C24.3967 18.4789 24.3968 18.5723 24.3969 18.6686C24.3971 18.7642 24.3974 18.8598 24.3976 18.9583C24.398 19.161 24.3982 19.3637 24.3981 19.5664C24.3981 19.8256 24.3991 20.0849 24.4004 20.3441C24.4014 20.5918 24.4013 20.8394 24.4014 21.087C24.4019 21.18 24.4025 21.2729 24.403 21.3687C24.4028 21.4554 24.4025 21.5421 24.4023 21.6315C24.4024 21.7076 24.4025 21.7838 24.4026 21.8622C24.384 22.0785 24.3305 22.2372 24.2395 22.4332C24.2156 22.4332 24.1916 22.4332 24.167 22.4332C24.1676 22.3751 24.1683 22.3169 24.1689 22.257C24.1747 21.708 24.1792 21.159 24.182 20.61C24.1835 20.3277 24.1856 20.0455 24.1889 19.7633C24.192 19.4907 24.1938 19.2182 24.1945 18.9456C24.195 18.8418 24.1961 18.7381 24.1977 18.6343C24.1998 18.4885 24.1999 18.3427 24.1999 18.1969C24.2006 18.114 24.2012 18.0312 24.2019 17.9458C24.1585 17.6579 24.0611 17.502 23.8767 17.2787C23.6144 17.1742 23.6144 17.1742 23.3687 17.1335C23.3687 17.0856 23.3687 17.0376 23.3687 16.9883Z" fill="#5E8ED0"/>
<path d="M16.5468 16.9883C17.2029 16.9849 17.859 16.9823 18.5151 16.9808C18.8197 16.98 19.1244 16.979 19.4291 16.9773C19.7232 16.9758 20.0172 16.9749 20.3113 16.9745C20.4235 16.9742 20.5356 16.9737 20.6477 16.9729C20.8049 16.9719 20.9621 16.9717 21.1194 16.9718C21.2088 16.9715 21.2982 16.9712 21.3904 16.9708C21.6215 16.9879 21.782 17.0342 21.9898 17.1335C21.9898 17.1574 21.9898 17.1814 21.9898 17.2061C20.481 17.2061 18.9722 17.2061 17.4176 17.2061C17.4176 17.1821 17.4176 17.1582 17.4176 17.1335C17.1302 17.1095 16.8429 17.0856 16.5468 17.0609C16.5468 17.0369 16.5468 17.013 16.5468 16.9883Z" fill="#35C8F3"/>
<path d="M14.3696 7.33257C14.5586 7.44993 14.5863 7.5477 14.6598 7.75909C14.6598 7.98597 14.6598 7.98597 14.5056 8.19469C14.2839 8.35865 14.2013 8.38715 13.9341 8.34896C13.9341 8.30105 13.9341 8.25313 13.9341 8.20377C13.8623 8.17981 13.7904 8.15585 13.7164 8.13117C13.6347 7.72279 13.6347 7.72279 13.7164 7.47777C13.9682 7.30986 14.0736 7.30173 14.3696 7.33257Z" fill="#6994CF"/>
<path d="M15.8936 7.29169C16.1113 7.33252 16.1113 7.33252 16.2882 7.4868C16.4016 7.69552 16.4016 7.69552 16.3925 7.92693C16.329 8.13112 16.329 8.13112 16.1839 8.27632C15.9711 8.29659 15.8099 8.31054 15.6033 8.27632C15.425 8.12585 15.3937 8.03212 15.3538 7.80442C15.4113 7.47608 15.5731 7.3518 15.8936 7.29169Z" fill="#639CF0"/>
<path d="M23.3687 18.1499C23.4166 18.1499 23.4645 18.1499 23.5138 18.1499C23.5175 18.6525 23.52 19.1552 23.5218 19.6578C23.5225 19.8289 23.5235 19.9999 23.5248 20.171C23.5265 20.4166 23.5273 20.6622 23.528 20.9078C23.5287 20.9845 23.5295 21.0612 23.5303 21.1402C23.5303 21.2114 23.5303 21.2826 23.5303 21.356C23.5306 21.4187 23.5309 21.4814 23.5313 21.546C23.5138 21.7073 23.5138 21.7073 23.3687 21.9251C23.2315 21.9489 23.2315 21.9489 23.0602 21.9432C22.9964 21.9414 22.9326 21.9395 22.8669 21.9376C22.4531 21.9145 22.04 21.8858 21.6269 21.8525C21.6269 21.8285 21.6269 21.8046 21.6269 21.7799C22.1777 21.7559 22.7286 21.732 23.2961 21.7073C23.32 20.5333 23.344 19.3594 23.3687 18.1499Z" fill="#6190C5"/>
<path d="M14.6734 17.9638C14.7279 17.9676 14.7823 17.9714 14.8383 17.9753C14.9724 17.9847 15.1064 17.9946 15.2404 18.0047C15.2404 18.0286 15.2404 18.0526 15.2404 18.0773C14.6656 18.1132 14.6656 18.1132 14.0793 18.1499C14.0793 19.3477 14.0793 20.5456 14.0793 21.7798C14.0074 21.7798 13.9356 21.7798 13.8615 21.7798C13.8615 20.534 13.8615 19.2882 13.8615 18.0047C14.1394 17.912 14.3866 17.942 14.6734 17.9638Z" fill="#5F8EC6"/>
<path d="M17.2725 8.71191C17.3204 8.75983 17.3683 8.80775 17.4176 8.85711C17.019 9.39228 16.5559 9.68757 15.8936 9.80091C15.0266 9.86259 14.1515 9.89503 13.3535 9.51051C13.3535 9.48655 13.3535 9.46259 13.3535 9.43791C13.4851 9.4481 13.6166 9.45878 13.7481 9.46967C13.858 9.47852 13.858 9.47852 13.9701 9.48754C14.1518 9.51051 14.1518 9.51051 14.2244 9.58311C14.3695 9.58947 14.5149 9.59087 14.6601 9.5902C14.7924 9.58985 14.7924 9.58985 14.9273 9.58949C15.0202 9.58888 15.113 9.58827 15.2087 9.58765C15.3484 9.58715 15.3484 9.58715 15.4909 9.58665C15.7219 9.58579 15.9529 9.5846 16.1839 9.58311C16.1839 9.53519 16.1839 9.48728 16.1839 9.43791C16.2408 9.43042 16.2976 9.42294 16.3563 9.41522C16.5707 9.38158 16.5707 9.38158 16.6919 9.14751C16.7877 9.17147 16.8835 9.19543 16.9822 9.22011C17.0032 9.17669 17.0241 9.13326 17.0457 9.08852C17.1273 8.92971 17.1273 8.92971 17.2725 8.71191Z" fill="#6994D0"/>
<path d="M10.378 28.7494C10.4499 28.7733 10.5217 28.7973 10.5957 28.822C10.5718 28.8699 10.5478 28.9178 10.5232 28.9672C10.4753 28.9672 10.4274 28.9672 10.378 28.9672C10.402 29.1589 10.4259 29.3505 10.4506 29.548C11.6001 29.548 12.7497 29.548 13.9341 29.548C13.9341 29.5959 13.9341 29.6438 13.9341 29.6932C13.4537 29.6987 12.9732 29.7025 12.4927 29.7051C12.3293 29.7062 12.1658 29.7077 12.0024 29.7096C11.7675 29.7123 11.5326 29.7135 11.2976 29.7145C11.188 29.7161 11.188 29.7161 11.0761 29.7179C11.0078 29.7179 10.9396 29.7179 10.8692 29.7179C10.8093 29.7184 10.7493 29.7189 10.6876 29.7194C10.4827 29.6867 10.384 29.6152 10.2329 29.4754C10.1648 29.303 10.1648 29.303 10.1603 29.1124C10.2646 28.9082 10.2646 28.9082 10.378 28.7494Z" fill="#6B96D0"/>
<path d="M10.9586 3.12177C11.0304 3.14572 11.1023 3.16968 11.1763 3.19436C11.1045 3.24228 11.0326 3.2902 10.9586 3.33956C10.9748 3.56663 11.0336 3.63223 11.2035 3.78877C11.6163 4.04372 12.1588 3.99635 12.6278 3.99296C12.706 4.2278 12.6984 4.37817 12.6868 4.62367C12.6819 5.12812 12.8185 5.43522 13.1177 5.83064C13.2084 5.95315 13.2084 5.95315 13.2084 6.17095C13.0886 6.14699 12.9689 6.12303 12.8455 6.09835C12.9174 6.06241 12.9174 6.06241 12.9907 6.02575C12.9323 5.95986 12.8739 5.89398 12.8138 5.8261C12.5222 5.49707 12.5372 5.12477 12.5144 4.7008C12.5113 4.64671 12.5081 4.59262 12.5049 4.53689C12.4972 4.40399 12.4899 4.27108 12.4826 4.13816C12.4152 4.14069 12.3477 4.14321 12.2782 4.14582C11.3871 4.16534 11.3871 4.16534 10.9586 3.92036C10.9586 3.87244 10.9586 3.82453 10.9586 3.77516C10.8628 3.7512 10.767 3.72725 10.6683 3.70256C10.7162 3.70256 10.7641 3.70256 10.8134 3.70256C10.8134 3.53486 10.8134 3.36715 10.8134 3.19436C10.8613 3.17041 10.9092 3.14645 10.9586 3.12177Z" fill="#6794D2"/>
<path d="M14.8776 17.0609C16.6498 17.0609 18.4221 17.0609 20.248 17.0609C20.248 17.0849 20.248 17.1088 20.248 17.1335C17.5537 17.2054 17.5537 17.2054 14.805 17.2787C14.8289 17.2068 14.8529 17.135 14.8776 17.0609Z" fill="#669CE8"/>
<path d="M10.1603 4.13818C10.2434 4.15615 10.2434 4.15615 10.3281 4.17448C10.5258 4.21742 10.5258 4.21742 10.7409 4.21078C10.7558 4.26619 10.7708 4.32159 10.7862 4.37867C10.919 4.63827 11.0557 4.68211 11.3215 4.79158C11.3843 4.81105 11.4472 4.83051 11.512 4.85057C11.7557 4.97246 11.867 5.12953 11.9746 5.37238C12.0605 5.66013 12.1297 5.94996 12.1923 6.24357C11.986 6.06439 11.8905 5.87443 11.7796 5.62647C11.7479 5.55685 11.7162 5.48722 11.6835 5.41548C11.6118 5.22718 11.6118 5.22718 11.6118 5.00938C11.5429 5.00638 11.474 5.00339 11.4031 5.0003C10.9468 4.93695 10.4562 4.6352 10.1603 4.28338C10.1603 4.23547 10.1603 4.18755 10.1603 4.13818Z" fill="#6994D7"/>
<path d="M13.2809 6.17096C13.452 6.3265 13.561 6.46236 13.6438 6.67916C13.6262 6.85413 13.6262 6.85413 13.5803 7.04669C13.4972 7.45767 13.4331 7.85824 13.4987 8.27635C13.7524 8.61471 14.192 8.68319 14.5873 8.78454C14.5873 8.83246 14.5873 8.88037 14.5873 8.92974C14.1466 8.89174 13.8186 8.82181 13.4536 8.55256C13.306 8.35929 13.3131 8.18975 13.2991 7.94965C13.2935 7.86654 13.2879 7.78344 13.2821 7.69782C13.2809 7.47775 13.2809 7.47775 13.3535 7.25995C13.3746 6.89337 13.376 6.5277 13.2809 6.17096Z" fill="#6495CF"/>
<path d="M17.6354 5.95319C17.7072 5.95319 17.779 5.95319 17.8531 5.95319C17.901 6.04902 17.9489 6.14485 17.9982 6.24358C17.9659 6.27961 17.9337 6.31564 17.9004 6.35277C17.8593 6.40209 17.8183 6.45141 17.776 6.50222C17.7347 6.55023 17.6935 6.59824 17.6509 6.6477C17.5261 6.89782 17.5844 7.06093 17.6354 7.33258C17.6435 7.52 17.648 7.70762 17.649 7.89522C17.65 7.98918 17.651 8.08314 17.6521 8.17995C17.6354 8.42157 17.6354 8.42157 17.4902 8.63937C17.5142 8.25604 17.5381 7.87272 17.5628 7.47778C17.5149 7.47778 17.467 7.47778 17.4176 7.47778C17.4087 7.39542 17.3997 7.31307 17.3904 7.22822C17.3755 7.14287 17.3605 7.05752 17.3451 6.96958C17.2972 6.94562 17.2493 6.92166 17.1999 6.89698C17.3269 6.61566 17.3269 6.61566 17.4902 6.53398C17.5174 6.36503 17.5416 6.19558 17.5628 6.02579C17.5867 6.00183 17.6107 5.97787 17.6354 5.95319Z" fill="#6797D5"/>
<path d="M13.0632 2.39581C13.2375 2.60496 13.3878 2.79976 13.4987 3.04921C13.2629 3.32869 13.2629 3.32869 13.0496 3.37137C12.8658 3.34277 12.7315 3.29723 12.5597 3.23071C12.1092 3.06798 11.6487 3.10366 11.1763 3.12181C11.1763 3.07389 11.1763 3.02598 11.1763 2.97661C11.5393 2.79505 12.1357 2.84675 12.5184 2.95534C12.5905 2.98608 12.5905 2.98608 12.6641 3.01745C12.9401 3.13084 13.0703 3.12712 13.3535 3.04921C13.3056 2.9953 13.2577 2.9414 13.2084 2.88586C13.0632 2.68621 13.0632 2.68621 13.0632 2.39581Z" fill="#6792CE"/>
<path d="M8.05566 28.6768C8.30207 28.6662 8.54843 28.6598 8.795 28.6541C8.86465 28.6511 8.9343 28.648 9.00606 28.6449C9.34966 28.639 9.52374 28.6373 9.81103 28.8402C9.94257 29.0398 9.94257 29.0398 9.96213 29.2023C9.93142 29.3417 9.9007 29.4812 9.86999 29.6206C9.62197 29.7033 9.43202 29.7014 9.17062 29.7003C9.07637 29.7001 8.98212 29.6998 8.88501 29.6996C8.78545 29.699 8.6859 29.6984 8.58635 29.6977C8.48595 29.6974 8.38554 29.697 8.28514 29.6967C8.03931 29.6959 7.79347 29.6947 7.54764 29.6932C7.54764 29.6692 7.54764 29.6453 7.54764 29.6206C7.60806 29.6188 7.66848 29.617 7.73072 29.6151C7.95511 29.6082 8.17949 29.601 8.40387 29.5936C8.54865 29.5889 8.69344 29.5845 8.83823 29.5802C8.9747 29.5756 8.9747 29.5756 9.11392 29.571C9.19792 29.5683 9.28191 29.5656 9.36845 29.5629C9.58437 29.5565 9.58437 29.5565 9.79742 29.4754C9.74952 29.2598 9.70162 29.0442 9.65227 28.822C9.12539 28.798 8.59851 28.7741 8.05566 28.7494C8.05566 28.7254 8.05566 28.7015 8.05566 28.6768Z" fill="#7198C6"/>
<path d="M24.3121 17.7143C24.3361 17.7143 24.36 17.7143 24.3847 17.7143C24.3881 18.276 24.3906 18.8376 24.3922 19.3993C24.393 19.6602 24.394 19.921 24.3956 20.1818C24.3972 20.4337 24.3981 20.6855 24.3985 20.9373C24.3989 21.0799 24.4 21.2224 24.4011 21.365C24.4011 21.4522 24.4012 21.5394 24.4012 21.6292C24.4015 21.7058 24.4018 21.7823 24.4021 21.8612C24.384 22.0783 24.3309 22.2367 24.2395 22.4333C24.2156 22.4333 24.1916 22.4333 24.167 22.4333C24.167 22.2416 24.167 22.0499 24.167 21.8525C24.2149 21.8525 24.2628 21.8525 24.3121 21.8525C24.3121 20.4869 24.3121 19.1213 24.3121 17.7143Z" fill="#678DBF"/>
<path d="M19.5948 2.46838C19.8326 2.4882 19.9407 2.52582 20.121 2.68618C20.2923 2.97989 20.3624 3.21689 20.3206 3.55738C20.1668 3.90925 19.9624 4.24988 19.6674 4.50117C19.6195 4.50117 19.5716 4.50117 19.5223 4.50117C19.5582 4.39336 19.5582 4.39336 19.5948 4.28337C19.6427 4.25941 19.6906 4.23546 19.74 4.21077C19.8222 4.06436 19.8222 4.06436 19.8851 3.92037C19.933 3.92037 19.9809 3.92037 20.0303 3.92037C20.0914 3.33421 20.0914 3.33421 19.8534 2.82684C19.792 2.78043 19.7306 2.73401 19.6674 2.68618C19.6435 2.61431 19.6195 2.54244 19.5948 2.46838Z" fill="#6495C6"/>
<path d="M13.9341 7.47772C14.1564 7.45957 14.1564 7.45957 14.3696 7.47772C14.4421 7.55032 14.4421 7.55032 14.4492 7.68446C14.4457 7.90779 14.4457 7.90779 14.4421 8.13112C14.2505 8.13112 14.0589 8.13112 13.8615 8.13112C13.8162 7.92693 13.8162 7.92693 13.789 7.69552C13.8369 7.62365 13.8848 7.55178 13.9341 7.47772Z" fill="#619CF3"/>
<path d="M20.9012 28.6768C21.428 28.6768 21.9549 28.6768 22.4978 28.6768C22.5217 28.7487 22.5457 28.8206 22.5704 28.8946C21.9716 28.8946 21.3729 28.8946 20.756 28.8946C20.8039 28.8707 20.8518 28.8467 20.9012 28.822C20.9012 28.7741 20.9012 28.7262 20.9012 28.6768Z" fill="#719EDB"/>
<path d="M29.8277 27.2249C29.9366 27.3111 29.9366 27.3111 30.0454 27.4427C30.059 27.6378 30.059 27.6378 30.0454 27.8056C29.9975 27.8056 29.9496 27.8056 29.9003 27.8056C29.8554 27.8596 29.8554 27.8596 29.8096 27.9145C29.6268 28.0713 29.4798 28.039 29.2471 28.0234C29.1972 27.8964 29.1972 27.8964 29.1745 27.7331C29.2562 27.5697 29.2562 27.5697 29.3923 27.4427C29.5873 27.4245 29.5873 27.4245 29.7551 27.4427C29.7791 27.3708 29.803 27.2989 29.8277 27.2249Z" fill="#141928"/>
<path d="M12.6264 29.9694C12.753 29.9701 12.753 29.9701 12.8822 29.9708C12.9704 29.9721 13.0586 29.9733 13.1494 29.9745C13.2384 29.9752 13.3274 29.9758 13.4191 29.9765C13.6392 29.9782 13.8592 29.9806 14.0793 29.9836C14.0793 30.0076 14.0793 30.0315 14.0793 30.0562C13.5045 30.0802 12.9297 30.1041 12.3375 30.1288C12.2896 30.2246 12.2417 30.3205 12.1923 30.4192C12.1684 30.4671 12.1444 30.515 12.1198 30.5644C12.2207 30.7549 12.2207 30.7549 12.3375 30.9274C12.2014 30.9047 12.2014 30.9047 12.0472 30.8548C11.9021 30.637 11.9021 30.637 11.9157 30.3784C12.0153 29.9565 12.2406 29.9657 12.6264 29.9694Z" fill="#6E9CD0"/>
<path d="M7.18478 18.0773C7.20873 18.1252 7.23267 18.1731 7.25735 18.2225C7.1122 18.3677 7.1122 18.3677 6.96706 18.4357C6.79859 18.5105 6.79859 18.5105 6.67676 18.7307C6.70071 18.7786 6.72466 18.8265 6.74933 18.8759C6.70144 18.8759 6.65354 18.8759 6.60419 18.8759C6.58024 18.9717 6.55629 19.0675 6.53161 19.1663C6.41187 19.1902 6.29212 19.2142 6.16875 19.2389C6.18789 18.8495 6.18789 18.8495 6.24132 18.6581C6.42275 18.5219 6.42275 18.5219 6.60419 18.4403C6.62814 18.3924 6.65209 18.3444 6.67676 18.2951C6.84438 18.2186 7.01372 18.1457 7.18478 18.0773Z" fill="#141A26"/>
<path d="M10.378 2.39581C10.378 2.46769 10.378 2.53956 10.378 2.61361C10.3301 2.65404 10.2822 2.69447 10.2329 2.73612C10.0589 2.93731 10.0594 3.06173 10.0727 3.32231C10.0979 3.59487 10.1251 3.86673 10.1603 4.1382C9.88282 3.86959 9.78624 3.74043 9.77928 3.35322C9.78326 3.04591 9.8057 2.85203 10.0151 2.61361C10.2102 2.48202 10.2102 2.48202 10.378 2.39581Z" fill="#6B92C7"/>
<path d="M22.2401 16.9812C22.3016 16.9814 22.3631 16.9816 22.4265 16.9819C22.5224 16.9828 22.5224 16.9828 22.6202 16.9837C22.7174 16.9842 22.7174 16.9842 22.8166 16.9847C22.9764 16.9856 23.1362 16.9868 23.2961 16.9883C23.2961 17.0601 23.2961 17.132 23.2961 17.2061C23.0844 17.21 22.8728 17.2129 22.6611 17.2151C22.6012 17.2164 22.5413 17.2176 22.4796 17.2188C22.4216 17.2193 22.3636 17.2198 22.3039 17.2202C22.2507 17.221 22.1975 17.2218 22.1426 17.2226C21.9681 17.2037 21.851 17.1474 21.6995 17.0609C21.9044 16.9925 22.0282 16.9798 22.2401 16.9812Z" fill="#47B7EF"/>
<path d="M22.6429 28.822C22.6908 28.822 22.7387 28.822 22.7881 28.822C22.8606 28.9672 22.8606 28.9672 22.7881 29.6206C22.0217 29.6206 21.2553 29.6206 20.4657 29.6206C20.4657 29.5967 20.4657 29.5727 20.4657 29.548C20.5239 29.5466 20.5822 29.5451 20.6421 29.5437C20.9054 29.5367 21.1686 29.5288 21.4319 29.5208C21.5235 29.5185 21.6151 29.5163 21.7095 29.514C21.8411 29.5098 21.8411 29.5098 21.9753 29.5055C22.0563 29.5032 22.1372 29.5009 22.2206 29.4986C22.44 29.4896 22.44 29.4896 22.6429 29.3302C22.6611 29.0701 22.6611 29.0701 22.6429 28.822Z" fill="#6496D2"/>
<path d="M13.9341 16.9883C14.7723 16.9883 15.6106 16.9883 16.4742 16.9883C16.4742 17.0122 16.4742 17.0362 16.4742 17.0609C15.9473 17.0609 15.4204 17.0609 14.8776 17.0609C14.8776 17.1088 14.8776 17.1567 14.8776 17.2061C14.2659 17.2994 14.2659 17.2994 13.9341 17.2061C13.9341 17.1342 13.9341 17.0623 13.9341 16.9883Z" fill="#37C8EE"/>
<path d="M18.2159 0.943787C18.2179 1.05873 18.2193 1.17368 18.2205 1.28863C18.2213 1.35265 18.2222 1.41666 18.223 1.48261C18.2165 1.65395 18.1919 1.79647 18.1434 1.96018C18.2392 1.98414 18.335 2.0081 18.4337 2.03278C18.4097 2.10465 18.3858 2.17653 18.3611 2.25058C18.2174 2.22662 18.0737 2.20266 17.9257 2.17798C17.9339 1.98582 17.9431 1.7938 17.9529 1.60172C17.9551 1.54693 17.9574 1.49213 17.9597 1.43568C17.9672 1.29553 17.9822 1.15582 17.9982 1.01639C18.1434 0.943787 18.1434 0.943787 18.2159 0.943787Z" fill="#7293DA"/>
<path d="M12.4101 0.217777C12.7895 0.184022 13.0509 0.164271 13.3807 0.372051C13.8615 0.89883 13.8615 0.89883 13.8615 1.16157C13.7897 1.13761 13.7178 1.11366 13.6438 1.08897C13.5939 0.939235 13.5939 0.939235 13.5712 0.798574C13.5233 0.798574 13.4754 0.798574 13.4261 0.798574C13.3082 0.698749 13.3082 0.698749 13.2084 0.580775C13.2084 0.532859 13.2084 0.484944 13.2084 0.435576C12.921 0.435576 12.6336 0.435576 12.3375 0.435576C12.3614 0.363702 12.3854 0.291829 12.4101 0.217777Z" fill="#6892D0"/>
<path d="M17.2725 8.71191C17.3204 8.75983 17.3683 8.80775 17.4176 8.85711C17.087 9.30104 16.7629 9.51104 16.2565 9.72831C16.2086 9.68039 16.1607 9.63248 16.1113 9.58311C16.2066 9.47421 16.2066 9.47421 16.329 9.36531C16.4009 9.36531 16.4727 9.36531 16.5468 9.36531C16.5947 9.29344 16.6426 9.22156 16.6919 9.14751C16.7877 9.17147 16.8835 9.19543 16.9822 9.22011C17.0032 9.17669 17.0241 9.13326 17.0457 9.08852C17.1273 8.92971 17.1273 8.92971 17.2725 8.71191Z" fill="#60A0DC"/>
<path d="M15.9798 4.09282C16.0232 4.1078 16.0666 4.12277 16.1113 4.1382C16.1567 4.31062 16.1567 4.31062 16.1839 4.5012C16.136 4.54911 16.0881 4.59703 16.0387 4.6464C15.8482 4.61917 15.8482 4.61917 15.6759 4.5738C15.6519 4.45401 15.628 4.33422 15.6033 4.2108C15.821 4.0656 15.821 4.0656 15.9798 4.09282Z" fill="#5C89CA"/>
<path d="M24.0944 21.925C24.1183 21.925 24.1423 21.925 24.167 21.925C24.2024 22.4654 24.2024 22.4654 24.04 22.651C23.8767 22.7236 23.8767 22.7236 23.5864 22.7236C23.5864 22.6518 23.5864 22.5799 23.5864 22.5058C23.5385 22.5058 23.4906 22.5058 23.4412 22.5058C23.4412 22.4579 23.4412 22.41 23.4412 22.3606C23.6568 22.3127 23.8723 22.2648 24.0944 22.2154C24.0944 22.1196 24.0944 22.0238 24.0944 21.925Z" fill="#6699F0"/>
<path d="M17.4176 3.92035C17.5374 3.94431 17.6571 3.96826 17.7805 3.99295C17.7805 4.04086 17.7805 4.08878 17.7805 4.13815C17.7087 4.13815 17.6368 4.13815 17.5628 4.13815C17.5592 4.20731 17.5557 4.27647 17.552 4.34772C17.5466 4.43878 17.5412 4.52984 17.5356 4.62366C17.5305 4.71378 17.5255 4.8039 17.5203 4.89676C17.4767 5.27081 17.3462 5.57398 17.1273 5.88054C17.0555 5.88054 16.9836 5.88054 16.9096 5.88054C16.935 5.84114 16.9603 5.80174 16.9864 5.76114C17.0195 5.7092 17.0525 5.65726 17.0865 5.60375C17.1194 5.55237 17.1522 5.50099 17.186 5.44806C17.365 5.14111 17.3675 4.83318 17.3859 4.48753C17.3906 4.4059 17.3906 4.4059 17.3954 4.32262C17.4031 4.18855 17.4104 4.05445 17.4176 3.92035Z" fill="#6993CC"/>
<path d="M16.6919 0.362976C16.7723 0.604314 16.7476 0.702154 16.6919 0.943772C16.6919 0.991688 16.6919 1.0396 16.6919 1.08897C16.5722 1.08897 16.4524 1.08897 16.329 1.08897C16.329 1.13689 16.329 1.1848 16.329 1.23417C16.1612 1.42474 16.1612 1.42474 15.9662 1.59717C15.8943 1.59717 15.8225 1.59717 15.7484 1.59717C15.8512 1.45948 15.954 1.32185 16.0569 1.18426C16.1428 1.06929 16.1428 1.06929 16.2304 0.951996C16.3812 0.752963 16.5349 0.557123 16.6919 0.362976Z" fill="#6C92C9"/>
<path d="M16.5468 6.38873C16.618 6.61035 16.618 6.74791 16.5468 6.96953C16.5947 6.96953 16.6426 6.96953 16.6919 6.96953C16.7159 6.92161 16.7398 6.8737 16.7645 6.82433C16.7884 6.94412 16.8124 7.06391 16.837 7.18733C16.8131 7.13941 16.7892 7.0915 16.7645 7.04213C16.7405 7.06609 16.7166 7.09004 16.6919 7.11473C16.7102 7.22595 16.7337 7.33634 16.7599 7.44596C16.7741 7.50595 16.7882 7.56594 16.8027 7.62775C16.8141 7.67407 16.8254 7.7204 16.837 7.76812C16.7652 7.76812 16.6934 7.76812 16.6193 7.76812C16.3248 6.83273 16.3248 6.83273 16.5468 6.38873Z" fill="#6998DB"/>
<path d="M19.3771 4.57379C19.3532 4.64567 19.3292 4.71754 19.3045 4.79159C19.0856 4.88869 18.8625 4.96326 18.6358 5.0403C18.4127 5.13966 18.4127 5.13966 18.3336 5.38458C18.3187 5.45243 18.3038 5.52028 18.2885 5.59018C18.2406 5.59018 18.1927 5.59018 18.1434 5.59018C18.1704 5.36339 18.2064 5.15057 18.2885 4.93679C18.4836 4.83696 18.4836 4.83696 18.724 4.79159C18.8155 4.75427 18.9063 4.7149 18.9961 4.67362C19.232 4.57379 19.232 4.57379 19.3771 4.57379Z" fill="#5D98D0"/>
<path d="M11.8295 1.37939C11.8774 1.37939 11.9253 1.37939 11.9746 1.37939C12.0225 1.64293 12.0704 1.90647 12.1198 2.17799C11.9656 2.19406 11.8114 2.20897 11.6571 2.22336C11.5283 2.236 11.5283 2.236 11.3969 2.24889C11.3241 2.24945 11.2513 2.25001 11.1763 2.25059C11.1284 2.20267 11.0805 2.15476 11.0312 2.10539C11.4623 2.06945 11.4623 2.06945 11.9021 2.03279C11.8781 1.81717 11.8542 1.60155 11.8295 1.37939Z" fill="#6993D2"/>
<path d="M14.3695 4.13817C14.3935 4.25796 14.4174 4.37775 14.4421 4.50117C14.3224 4.54909 14.2026 4.597 14.0793 4.64637C13.9659 4.55562 13.9659 4.55562 13.8615 4.42857C13.8751 4.2743 13.8751 4.2743 13.9341 4.13817C14.1149 4.04775 14.1816 4.08178 14.3695 4.13817Z" fill="#5E8AD9"/>
<path d="M16.9822 1.45197C17.0301 1.47592 17.078 1.49988 17.1273 1.52456C17.0354 1.6533 16.9431 1.78182 16.8507 1.91025C16.7993 1.98184 16.7479 2.05344 16.695 2.1272C16.5797 2.27964 16.4688 2.41176 16.329 2.54096C16.2572 2.517 16.1853 2.49304 16.1113 2.46836C16.2111 2.32316 16.2111 2.32316 16.329 2.17796C16.3769 2.17796 16.4248 2.17796 16.4742 2.17796C16.4906 2.12555 16.5071 2.07315 16.5241 2.01915C16.6373 1.77633 16.7865 1.6323 16.9822 1.45197Z" fill="#6293D0"/>
<path d="M0.145147 27.0797C0.193045 27.1036 0.240944 27.1276 0.290294 27.1523C0.266345 27.296 0.242395 27.4397 0.21772 27.5878C0.39734 27.6597 0.39734 27.6597 0.580588 27.733C0.580588 27.781 0.580588 27.8289 0.580588 27.8782C0.628486 27.9022 0.676385 27.9262 0.725735 27.9508C0.580588 28.0234 0.580588 28.0234 0.40369 27.9781C0.174963 27.8553 0.101636 27.7525 0 27.5152C0.0197585 27.3423 0.0675828 27.2348 0.145147 27.0797Z" fill="#10151E"/>
<path d="M17.9257 30.0562C18.0214 30.0562 18.1172 30.0562 18.2159 30.0562C18.2399 30.152 18.2638 30.2479 18.2885 30.3466C18.3364 30.3466 18.3843 30.3466 18.4337 30.3466C18.394 30.5916 18.3571 30.7156 18.2159 30.9274C18.1441 30.9274 18.0722 30.9274 17.9982 30.9274C18.0237 30.86 18.0491 30.7926 18.0753 30.7232C18.1669 30.4932 18.1669 30.4932 18.0708 30.274C18.0229 30.2501 17.975 30.2261 17.9257 30.2014C17.9257 30.1535 17.9257 30.1056 17.9257 30.0562Z" fill="#7599CB"/>
<path d="M10.378 28.7494C10.4499 28.7733 10.5217 28.7973 10.5957 28.822C10.5718 28.8699 10.5478 28.9178 10.5232 28.9672C10.4753 28.9672 10.4274 28.9672 10.378 28.9672C10.402 29.1589 10.4259 29.3505 10.4506 29.548C10.6182 29.548 10.7859 29.548 10.9586 29.548C10.9586 29.5719 10.9586 29.5959 10.9586 29.6206C10.5192 29.6348 10.5192 29.6348 10.378 29.6206C10.2016 29.4441 10.1775 29.3593 10.1603 29.1124C10.2646 28.9082 10.2646 28.9082 10.378 28.7494Z" fill="#6C94CF"/>
<path d="M2.39492 23.5948C2.44282 23.6428 2.49072 23.6907 2.54007 23.74C2.50564 23.7655 2.47122 23.791 2.43575 23.8172C2.27421 24.0176 2.28175 24.2148 2.24978 24.466C2.20188 24.514 2.15398 24.5619 2.10463 24.6112C2.05673 24.5633 2.00883 24.5154 1.95948 24.466C1.96685 24.2982 1.96685 24.2982 2.00484 24.103C2.01626 24.0387 2.02767 23.9743 2.03943 23.9079C2.10463 23.74 2.10463 23.74 2.25601 23.6448C2.30186 23.6283 2.3477 23.6118 2.39492 23.5948Z" fill="#151C27"/>
<path d="M13.8615 1.16162C14.0067 1.30682 14.1518 1.45202 14.297 1.59722C14.4048 1.60858 14.5132 1.61542 14.6216 1.62019C14.7194 1.62475 14.7194 1.62475 14.8193 1.62941C14.9222 1.63369 14.9222 1.63369 15.0272 1.63806C15.0961 1.64119 15.165 1.64433 15.236 1.64756C15.4068 1.65528 15.5776 1.66269 15.7484 1.66982C15.7484 1.69378 15.7484 1.71773 15.7484 1.74242C15.4884 1.75508 15.2285 1.76281 14.9683 1.76964C14.8577 1.77512 14.8577 1.77512 14.7449 1.7807C14.5386 1.78477 14.3541 1.78363 14.1518 1.74242C13.8615 1.43104 13.8615 1.43104 13.8615 1.16162Z" fill="#7095CB"/>
<path d="M16.1113 7.33253C16.1592 7.4044 16.2071 7.47628 16.2565 7.55033C16.0649 7.55033 15.8733 7.55033 15.6759 7.55033C15.6654 7.59226 15.6549 7.63418 15.6441 7.67738C15.6063 7.82863 15.5685 7.97988 15.5307 8.13113C15.3856 7.98593 15.3856 7.98593 15.3584 7.8135C15.3856 7.62293 15.3856 7.62293 15.5035 7.45504C15.7236 7.29861 15.8468 7.29226 16.1113 7.33253Z" fill="#6494CA"/>
<path d="M12.4101 6.53394C12.4819 6.53394 12.5538 6.53394 12.6278 6.53394C12.7586 6.79576 12.7346 7.07319 12.6516 7.34983C12.5986 7.49057 12.541 7.62953 12.4826 7.76813C12.4587 7.76813 12.4347 7.76813 12.4101 7.76813C12.4203 7.66374 12.431 7.55938 12.4418 7.45504C12.4477 7.39693 12.4536 7.33881 12.4597 7.27893C12.4826 7.11473 12.4826 7.11473 12.5552 6.89693C12.4914 6.70404 12.4914 6.70404 12.4101 6.53394Z" fill="#6B95D3"/>
<path d="M11.8385 2.89942C11.9315 2.90007 12.0245 2.90073 12.1203 2.9014C12.192 2.90224 12.2637 2.90308 12.3375 2.90395C12.3375 2.97583 12.3375 3.0477 12.3375 3.12175C11.9543 3.12175 11.5711 3.12175 11.1763 3.12175C11.1763 3.07384 11.1763 3.02592 11.1763 2.97655C11.3943 2.86754 11.5966 2.89721 11.8385 2.89942Z" fill="#55A1DF"/>
<path d="M16.9822 2.17798C17.0463 2.35706 17.0643 2.44214 16.9984 2.62379C16.9706 2.67432 16.9428 2.72486 16.9142 2.77692C16.8866 2.82821 16.859 2.87949 16.8305 2.93233C16.8087 2.97089 16.7869 3.00945 16.7645 3.04917C16.9546 3.17595 17.0575 3.22248 17.2725 3.26697C17.0729 3.32142 17.0729 3.32142 16.837 3.33957C16.6647 3.19891 16.6647 3.19891 16.5468 3.04917C16.6919 2.75877 16.837 2.46838 16.9822 2.17798Z" fill="#6C8FC6"/>
<path d="M18.5062 2.90398C18.5302 2.9519 18.5541 2.99981 18.5788 3.04918C18.1717 3.0971 17.7645 3.14501 17.3451 3.19438C17.4176 3.04918 17.4176 3.04918 17.5991 2.96751C17.9079 2.89027 18.1899 2.89133 18.5062 2.90398Z" fill="#63A0D7"/>
<path d="M12.4826 8.56677C12.7137 8.66635 12.8434 8.77453 12.9997 8.97061C13.151 9.16283 13.151 9.16283 13.3535 9.29277C13.3535 9.34068 13.3535 9.3886 13.3535 9.43797C13.0304 9.33639 12.848 9.18575 12.6278 8.92977C12.5325 8.72558 12.5325 8.72558 12.4826 8.56677Z" fill="#6994D1"/>
<path d="M12.4826 7.69556C12.5066 7.69556 12.5305 7.69556 12.5552 7.69556C12.5687 7.81909 12.5687 7.81909 12.5824 7.94512C12.6049 8.07314 12.6049 8.07314 12.6278 8.20375C12.6757 8.22771 12.7236 8.25167 12.7729 8.27635C12.749 8.39614 12.725 8.51593 12.7004 8.63935C12.5592 8.58717 12.5592 8.58717 12.4101 8.49415C12.3607 8.34215 12.3607 8.34215 12.3466 8.16745C12.3408 8.10981 12.335 8.05216 12.329 7.99276C12.3375 7.84076 12.3375 7.84076 12.4826 7.69556Z" fill="#609CDD"/>
<path d="M17.2725 5.73535C17.2485 5.90306 17.2246 6.07076 17.1999 6.24355C17.0802 6.21959 16.9604 6.19563 16.837 6.17095C16.837 6.21886 16.837 6.26678 16.837 6.31615C16.7652 6.29219 16.6934 6.26823 16.6193 6.24355C16.7611 6.02705 16.9856 5.73535 17.2725 5.73535Z" fill="#6399E1"/>
<path d="M17.4902 4.35596C17.5621 4.37991 17.6339 4.40387 17.7079 4.42856C17.7363 4.85394 17.7363 4.85394 17.7079 5.00935C17.6121 5.10518 17.5163 5.20102 17.4176 5.29975C17.4416 4.9883 17.4655 4.67685 17.4902 4.35596Z" fill="#6699EA"/>
<path d="M19.3771 15.1733C19.4969 15.1972 19.6166 15.2212 19.74 15.2459C19.5455 15.4404 19.3483 15.4615 19.0868 15.5363C19.0389 15.5842 18.991 15.6321 18.9417 15.6815C18.9177 15.6336 18.8938 15.5856 18.8691 15.5363C18.9371 15.382 18.9371 15.382 19.0142 15.2459C19.134 15.2698 19.2537 15.2938 19.3771 15.3185C19.3771 15.2706 19.3771 15.2226 19.3771 15.1733Z" fill="#131926"/>
<path d="M9.94257 2.97656C9.96652 2.97656 9.99047 2.97656 10.0151 2.97656C10.063 3.35989 10.1109 3.74321 10.1603 4.13815C9.86999 3.84776 9.86999 3.84776 9.79742 3.62996C9.82208 3.46576 9.82208 3.46576 9.86546 3.28965C9.87958 3.23097 9.89371 3.17229 9.90827 3.11184C9.91958 3.0672 9.9309 3.02256 9.94257 2.97656Z" fill="#689ADB"/>
<path d="M16.6193 7.76813C16.6912 7.76813 16.763 7.76813 16.837 7.76813C16.837 7.88792 16.837 8.00771 16.837 8.13113C16.8849 8.13113 16.9328 8.13113 16.9822 8.13113C16.9582 8.203 16.9343 8.27487 16.9096 8.34892C16.7899 8.32497 16.6701 8.30101 16.5468 8.27632C16.5707 8.10862 16.5947 7.94091 16.6193 7.76813Z" fill="#5AA5E6"/>
<path d="M17.1273 1.16162C17.1992 1.18558 17.271 1.20954 17.3451 1.23422C17.4064 1.47947 17.4255 1.6462 17.3451 1.88762C17.2732 1.88762 17.2014 1.88762 17.1273 1.88762C17.0495 1.65388 17.0642 1.60417 17.1273 1.37942C17.1273 1.30755 17.1273 1.23567 17.1273 1.16162Z" fill="#5B95DA"/>
<path d="M19.1594 3.4848C19.1833 3.53272 19.2073 3.58063 19.232 3.63C18.8377 4.04629 18.8377 4.04629 18.5788 4.1382C18.483 4.1382 18.3872 4.1382 18.2885 4.1382C18.2885 4.09028 18.2885 4.04237 18.2885 3.993C18.3783 3.96305 18.4681 3.9331 18.5607 3.90225C18.8189 3.80652 18.981 3.70043 19.1594 3.4848Z" fill="#6D91D2"/>
<path d="M19.5948 2.46838C19.9396 2.52283 19.9396 2.52283 20.1029 2.68618C20.1329 2.84329 20.1329 2.84329 20.1482 3.02196C20.1536 3.08129 20.1591 3.14062 20.1647 3.20175C20.17 3.26998 20.17 3.26998 20.1754 3.33958C20.1553 3.2955 20.1352 3.25142 20.1145 3.20601C20.0305 3.03153 20.0305 3.03153 19.8443 2.86314C19.6674 2.68618 19.6674 2.68618 19.5948 2.46838Z" fill="#6C93D2"/>
<path d="M16.9096 0.217818C17.5753 0.172066 17.5753 0.172066 17.8259 0.363017C17.8588 0.410933 17.8917 0.458848 17.9256 0.508216C17.8538 0.484258 17.782 0.4603 17.7079 0.435616C17.5583 0.430608 17.4086 0.429469 17.2589 0.431079C17.18 0.431734 17.1012 0.432389 17.0199 0.433064C16.9596 0.433906 16.8992 0.434749 16.837 0.435616C16.861 0.363743 16.8849 0.291869 16.9096 0.217818Z" fill="#6C93C8"/>
<path d="M12.0472 14.8829C12.0951 14.9068 12.143 14.9308 12.1923 14.9555C12.0912 15.1999 11.9762 15.3175 11.7569 15.4637C11.709 15.3918 11.6611 15.3199 11.6118 15.2459C11.6597 15.2219 11.7076 15.198 11.7569 15.1733C11.7809 15.1014 11.8048 15.0295 11.8295 14.9555C11.9013 14.9315 11.9732 14.9076 12.0472 14.8829Z" fill="#121725"/>
<path d="M12.9181 2.25061C12.966 2.25061 13.0139 2.25061 13.0632 2.25061C13.0872 2.44227 13.1111 2.63394 13.1358 2.83141C13.2076 2.85536 13.2795 2.87932 13.3535 2.90401C13.3535 2.95192 13.3535 2.99984 13.3535 3.04921C13.1906 3.02111 13.0726 2.98244 12.9317 2.89493C12.7942 2.67776 12.8679 2.49229 12.9181 2.25061Z" fill="#5F98E5"/>
<path d="M17.9982 1.6698C18.0461 1.69376 18.094 1.71772 18.1434 1.7424C18.1434 1.81427 18.1434 1.88615 18.1434 1.9602C18.2392 1.98416 18.335 2.00811 18.4337 2.0328C18.4097 2.10467 18.3858 2.17654 18.3611 2.2506C18.1455 2.21466 18.1455 2.21466 17.9257 2.178C17.9496 2.01029 17.9736 1.84259 17.9982 1.6698Z" fill="#638FD8"/>
<path d="M12.9907 1.5246C13.3238 1.63568 13.431 1.9041 13.5894 2.20522C13.6073 2.24415 13.6253 2.28308 13.6438 2.32319C13.3485 2.22473 13.2469 2.06165 13.0632 1.815C13.0043 1.64257 13.0043 1.64257 12.9907 1.5246Z" fill="#6E92D3"/>
<path d="M17.2725 8.71191C17.3204 8.75983 17.3683 8.80775 17.4176 8.85711C17.3522 8.94265 17.2854 9.02716 17.2181 9.11121C17.1625 9.18196 17.1625 9.18196 17.1058 9.25414C16.9822 9.36531 16.9822 9.36531 16.6919 9.36531C16.6919 9.31739 16.6919 9.26948 16.6919 9.22011C16.7877 9.22011 16.8835 9.22011 16.9822 9.22011C17.0032 9.17669 17.0241 9.13326 17.0457 9.08852C17.1273 8.92971 17.1273 8.92971 17.2725 8.71191Z" fill="#6591D0"/>
<path d="M16.2565 7.84076C16.3044 7.84076 16.3523 7.84076 16.4016 7.84076C16.2655 8.19468 16.2655 8.19468 16.1839 8.27636C15.9901 8.2866 15.7975 8.27944 15.6033 8.27636C15.5793 8.22844 15.5554 8.18053 15.5307 8.13116C15.5966 8.13715 15.6624 8.14314 15.7303 8.14931C16.0166 8.12727 16.0729 8.05063 16.2565 7.84076Z" fill="#6D93D1"/>
<path d="M12.2649 30.274C12.2889 30.3219 12.3128 30.3698 12.3375 30.4192C12.2896 30.3952 12.2417 30.3713 12.1923 30.3466C12.2163 30.3226 12.2402 30.2987 12.2649 30.274ZM12.1198 30.4192C12.3133 30.6128 12.5068 30.8064 12.7004 31C12.5567 31 12.413 31 12.2649 31C12.1774 30.8307 12.1078 30.6735 12.0472 30.4918C12.0711 30.4678 12.0951 30.4439 12.1198 30.4192Z" fill="#669DEB"/>
<path d="M27.9408 15.3911C28.1084 15.4151 28.2761 15.439 28.4488 15.4637C28.3315 15.6119 28.2104 15.7571 28.0859 15.8993C28.038 15.8993 27.9901 15.8993 27.9408 15.8993C27.9408 15.7316 27.9408 15.5639 27.9408 15.3911Z" fill="#14182A"/>
<path d="M22.4252 14.8103C22.4971 14.8582 22.5689 14.9061 22.6429 14.9555C22.595 14.9555 22.5471 14.9555 22.4978 14.9555C22.5217 15.0274 22.5457 15.0992 22.5704 15.1733C22.4985 15.1733 22.4267 15.1733 22.3526 15.1733C22.3287 15.2212 22.3047 15.2691 22.2801 15.3185C22.1304 15.3639 22.1304 15.3639 21.9898 15.3911C21.9898 15.3432 21.9898 15.2953 21.9898 15.2459C22.1095 15.1476 22.2305 15.0508 22.3526 14.9555C22.3766 14.9076 22.4005 14.8597 22.4252 14.8103Z" fill="#121623"/>
<path d="M12.7729 1.30676C12.8208 1.30676 12.8687 1.30676 12.9181 1.30676C12.942 1.5703 12.966 1.83384 12.9907 2.10536C12.9188 2.14129 12.9188 2.14129 12.8455 2.17796C12.7758 1.96872 12.7653 1.83685 12.7684 1.61985C12.7691 1.56117 12.7697 1.50249 12.7704 1.44204C12.7712 1.3974 12.7721 1.35276 12.7729 1.30676Z" fill="#638FD5"/>
<path d="M7.25735 28.822C7.2813 28.822 7.30525 28.822 7.32992 28.822C7.37782 29.0856 7.42572 29.3491 7.47507 29.6206C7.37927 29.5727 7.28347 29.5248 7.18477 29.4754C7.1757 28.9854 7.1757 28.9854 7.25735 28.822Z" fill="#7491C0"/>
<path d="M1.98216 25.3282C2.04278 25.3686 2.04278 25.3686 2.10463 25.4099C1.94943 25.5651 1.87728 25.586 1.66919 25.6277C1.66919 25.5797 1.66919 25.5318 1.66919 25.4825C1.59734 25.4585 1.52549 25.4345 1.45147 25.4099C1.77303 25.249 1.77303 25.249 1.98216 25.3282Z" fill="#151B23"/>
<path d="M27.5779 14.7377C27.6019 14.7856 27.6258 14.8336 27.6505 14.8829C27.6984 14.9069 27.7463 14.9308 27.7956 14.9555C27.7238 15.0633 27.7238 15.0633 27.6505 15.1733C27.6744 15.2212 27.6984 15.2692 27.7231 15.3185C27.6512 15.3425 27.5794 15.3664 27.5053 15.3911C27.5053 15.3432 27.5053 15.2953 27.5053 15.2459C27.4335 15.222 27.3617 15.198 27.2876 15.1733C27.3221 15.1419 27.3565 15.1104 27.392 15.078C27.5225 14.9539 27.5225 14.9539 27.5779 14.7377Z" fill="#151B24"/>
<path d="M19.8851 14.4473C20.1029 14.7105 20.1029 14.7105 20.1029 14.9555C19.994 15.078 19.994 15.078 19.8851 15.1733C19.8133 15.1494 19.7414 15.1254 19.6674 15.1007C19.7153 15.0288 19.7632 14.957 19.8126 14.8829C19.8409 14.7385 19.8657 14.5932 19.8851 14.4473Z" fill="#101522"/>
<path d="M9.5797 29.0398C9.65155 29.0398 9.7234 29.0398 9.79742 29.0398C9.79742 29.1835 9.79742 29.3273 9.79742 29.4754C9.62978 29.4993 9.46213 29.5233 9.28941 29.548C9.3852 29.524 9.481 29.5001 9.5797 29.4754C9.5797 29.3316 9.5797 29.1879 9.5797 29.0398Z" fill="#6099E7"/>
<path d="M24.0218 22.3607C24.0697 22.4086 24.1176 22.4565 24.167 22.5059C23.9039 22.7237 23.9039 22.7237 23.659 22.7237C23.6829 22.6278 23.7069 22.532 23.7315 22.4333C23.8676 22.3879 23.8676 22.3879 24.0218 22.3607Z" fill="#6794CD"/>
<path d="M27.5054 15.8267C27.649 15.8746 27.7927 15.9226 27.9408 15.9719C27.7291 16.1131 27.6051 16.15 27.3602 16.1897C27.4081 16.0699 27.456 15.9501 27.5054 15.8267Z" fill="#121824"/>
<path d="M14.7324 14.5199C14.7803 14.5439 14.8282 14.5678 14.8776 14.5925C14.8776 14.7362 14.8776 14.88 14.8776 15.0281C14.7578 15.0521 14.6381 15.076 14.5147 15.1007C14.5865 14.909 14.6584 14.7174 14.7324 14.5199Z" fill="#141A22"/>
<path d="M23.4412 13.5761C23.4891 13.6001 23.537 13.624 23.5864 13.6487C23.5624 13.8883 23.5385 14.1279 23.5138 14.3747C23.4899 14.3747 23.4659 14.3747 23.4412 14.3747C23.413 14.2691 23.386 14.1632 23.3596 14.0571C23.3444 13.9981 23.3293 13.9392 23.3137 13.8784C23.3079 13.8266 23.3021 13.7747 23.2961 13.7213C23.344 13.6734 23.3919 13.6255 23.4412 13.5761Z" fill="#131C29"/>
<path d="M16.5468 8.27637C16.5947 8.32428 16.6426 8.3722 16.6919 8.42157C16.4507 8.7075 16.4507 8.7075 16.202 8.73011C16.1481 8.72412 16.0943 8.71814 16.0387 8.71196C16.0956 8.66704 16.1525 8.62212 16.2111 8.57584C16.3993 8.42893 16.3993 8.42893 16.5468 8.27637Z" fill="#6A94D7"/>
<path d="M16.6919 0.362976C16.7723 0.604314 16.7476 0.702154 16.6919 0.943772C16.6919 0.991688 16.6919 1.0396 16.6919 1.08897C16.6201 1.06501 16.5482 1.04106 16.4742 1.01637C16.5286 0.526325 16.5286 0.526325 16.6919 0.362976Z" fill="#6694DE"/>
<path d="M10.378 28.7494C10.4499 28.7733 10.5217 28.7973 10.5957 28.822C10.5718 28.8699 10.5478 28.9178 10.5232 28.9672C10.4753 28.9672 10.4274 28.9672 10.378 28.9672C10.402 29.1109 10.4259 29.2547 10.4506 29.4028C10.4027 29.3788 10.3548 29.3549 10.3054 29.3302C10.251 29.1169 10.251 29.1169 10.2329 28.8946C10.2808 28.8467 10.3287 28.7988 10.378 28.7494Z" fill="#6F99DC"/>
<path d="M17.2725 6.82434C17.4222 6.8561 17.4222 6.8561 17.5628 6.89694C17.5388 7.0886 17.5149 7.28027 17.4902 7.47774C17.3842 7.28554 17.3451 7.195 17.3451 6.96954C17.2972 6.94558 17.2493 6.92162 17.1999 6.89694C17.2239 6.87298 17.2478 6.84902 17.2725 6.82434Z" fill="#599FE0"/>
<path d="M14.0793 4.06555C14.2335 4.09278 14.2335 4.09278 14.3695 4.13815C14.3935 4.25794 14.4174 4.37773 14.4421 4.50115C14.3703 4.53709 14.3703 4.53709 14.297 4.57375C14.297 4.47792 14.297 4.38209 14.297 4.28335C14.1772 4.25939 14.0575 4.23543 13.9341 4.21075C13.982 4.16284 14.0299 4.11492 14.0793 4.06555Z" fill="#6385B4"/>
<path d="M15.7484 14.9555C15.9628 15.0551 16.1432 15.1725 16.329 15.3185C16.2572 15.3544 16.2572 15.3544 16.1839 15.3911C15.9979 15.3004 15.9979 15.3004 15.821 15.1733C15.7971 15.1014 15.7731 15.0296 15.7484 14.9555Z" fill="#111A24"/>
<path d="M2.75779 14.7377C2.80569 14.7617 2.85359 14.7856 2.90294 14.8103C2.9483 14.9601 2.9483 14.9601 2.97551 15.1007C2.83182 15.1007 2.68812 15.1007 2.54007 15.1007C2.61192 14.9809 2.68377 14.8612 2.75779 14.7377Z" fill="#141927"/>
<path d="M18.2885 4.93677C18.3364 5.00864 18.3843 5.08051 18.4337 5.15457C18.3702 5.38598 18.3702 5.38598 18.2885 5.59016C18.2406 5.59016 18.1927 5.59016 18.1434 5.59016C18.1913 5.37454 18.2392 5.15892 18.2885 4.93677Z" fill="#638FCE"/>
<path d="M11.6934 2.93573C11.7594 2.94312 11.8255 2.95051 11.8935 2.95813C11.9443 2.96421 11.995 2.9703 12.0472 2.97657C12.0472 3.00052 12.0472 3.02448 12.0472 3.04916C11.6161 3.0851 11.6161 3.0851 11.1763 3.12176C11.1763 3.07385 11.1763 3.02593 11.1763 2.97657C11.3667 2.88135 11.4833 2.91148 11.6934 2.93573Z" fill="#6E97C8"/>
<path d="M25.9087 10.1639C25.9324 10.1639 25.9561 10.1639 25.9805 10.1639C25.9805 10.3316 25.9805 10.4994 25.9805 10.6721C25.9568 10.6721 25.9331 10.6721 25.9087 10.6721C25.9087 10.5044 25.9087 10.3367 25.9087 10.1639Z" fill="black"/>
<path d="M16.9096 16.2623C17.1999 16.3349 17.1999 16.3349 17.1999 16.3349L16.9096 16.2623Z" fill="#0A0A0A"/>
<path d="M25.9087 7.33258C25.9805 7.62298 25.9805 7.62298 25.9805 7.62298L25.9087 7.33258Z" fill="black"/>
<path d="M28.5939 25.4099C28.7391 25.4825 28.7391 25.4825 28.7391 25.4825L28.5939 25.4099Z" fill="#191919"/>
<path d="M24.2395 16.3349C24.3847 16.4075 24.3847 16.4075 24.3847 16.4075L24.2395 16.3349Z" fill="#20204A"/>
<path d="M21.772 16.3349C21.9172 16.4075 21.9172 16.4075 21.9172 16.4075L21.772 16.3349Z" fill="#202020"/>
<path d="M6.16875 16.3349C6.31389 16.4075 6.31389 16.4075 6.31389 16.4075L6.16875 16.3349Z" fill="#121212"/>
<path d="M22.1349 16.2623C22.2801 16.3349 22.2801 16.3349 22.2801 16.3349L22.1349 16.2623Z" fill="black"/>
<path d="M26.7796 15.1733C26.9248 15.2459 26.9248 15.2459 26.9248 15.2459L26.7796 15.1733Z" fill="black"/>
</g>
<defs>
<clipPath id="clip0_270_6265">
<rect width="30.3357" height="31" fill="white"/>
</clipPath>
</defs>
</svg>
