<svg width="30" height="30" viewBox="0 0 30 30" fill="none" xmlns="http://www.w3.org/2000/svg">
<g clip-path="url(#clip0_270_6176)">
<path d="M29.8795 16.5182C29.8795 16.5182 29.8795 16.5182 29.8795 21.4799C29.8398 21.4599 29.9205 21.5186 29.8795 21.498C29.8 21.5381 29.7205 21.5781 29.6386 21.6194C29.4748 21.6297 29.3174 21.6336 29.1538 21.6313C29.1073 21.6311 29.0609 21.631 29.013 21.6308C28.8651 21.6301 28.7172 21.6286 28.5693 21.627C28.4688 21.6264 28.3683 21.6259 28.2678 21.6254C28.0219 21.624 27.776 21.6219 27.5301 21.6194C27.531 21.6954 27.5319 21.7714 27.5329 21.8497C27.5373 22.2214 27.4128 22.548 27.2892 22.8947C27.2739 22.9387 27.2586 22.9826 27.2428 23.0278C26.9198 23.7962 26.1976 24.3041 25.4631 24.6141C24.7708 24.8875 23.8817 24.8768 23.1928 24.5951C22.34 24.2158 21.7327 23.5925 21.3742 22.7282C21.2377 22.3456 21.2048 22.0303 21.2048 21.6194C17.5669 21.6194 13.9289 21.6194 10.1807 21.6194C10.1807 21.7597 10.1807 21.9 10.1807 22.0445C10.0127 22.9102 9.60129 23.6859 8.8886 24.2199C8.04059 24.754 7.10675 24.926 6.12575 24.7128C5.26404 24.457 4.6408 23.8829 4.18298 23.1201C4.06191 22.8899 3.97929 22.6609 3.91566 22.4089C3.90199 22.3576 3.88833 22.3062 3.87425 22.2533C3.84724 22.0409 3.85182 21.8335 3.85542 21.6194C3.80727 21.6149 3.75913 21.6104 3.70952 21.6057C2.91154 21.5094 2.322 21.2162 1.80723 20.587C1.61768 20.3241 1.52174 20.0495 1.44578 19.7368C1.39049 19.7353 1.3352 19.7337 1.27824 19.7321C0.779692 19.7089 0.36905 19.6838 -1.28895e-06 19.3117C-0.0165166 19.1927 -0.0165166 19.1927 -0.0184589 19.0454C-0.019422 18.9902 -0.020386 18.9351 -0.0213783 18.8783C-0.0217014 18.8186 -0.0220235 18.7589 -0.0223563 18.6973C-0.0231722 18.6054 -0.0231731 18.6054 -0.0240054 18.5117C-0.0248805 18.3819 -0.0254138 18.2522 -0.0256361 18.1224C-0.0263524 17.9238 -0.0293138 17.7253 -0.0323573 17.5266C-0.0329274 17.4007 -0.0333633 17.2747 -0.0336515 17.1488C-0.0348282 17.0893 -0.0360039 17.0298 -0.0372162 16.9685C-0.0344976 16.5563 -0.0344985 16.5563 0.141174 16.3623C0.472365 16.1822 0.727873 16.1463 1.09916 16.1816C1.16411 16.1876 1.22907 16.1936 1.29599 16.1998C1.34542 16.2047 1.39485 16.2096 1.44578 16.2146C1.4455 16.1705 1.44523 16.1264 1.44494 16.081C1.43827 15.0058 1.4333 13.9307 1.43018 12.8555C1.42863 12.3355 1.42651 11.8156 1.42306 11.2956C1.42005 10.8422 1.41811 10.3887 1.41744 9.93527C1.41705 9.69539 1.41614 9.45555 1.41394 9.21569C1.41187 8.98938 1.41126 8.76312 1.41171 8.5368C1.41159 8.41524 1.40998 8.29369 1.40831 8.17214C1.41286 7.35813 1.68326 6.7946 2.24233 6.22517C2.72099 5.78946 3.28015 5.69009 3.90609 5.69226C3.99412 5.69185 3.99412 5.69185 4.08393 5.69142C4.28004 5.69066 4.47615 5.69076 4.67226 5.69086C4.8131 5.69049 4.95393 5.69008 5.09476 5.68962C5.477 5.68855 5.85924 5.68826 6.24148 5.68818C6.52052 5.68808 6.79956 5.68773 7.0786 5.68735C7.82937 5.68635 8.58014 5.68589 9.33091 5.68598C9.3948 5.68598 9.3948 5.68599 9.45998 5.68599C9.50262 5.686 9.54527 5.686 9.58921 5.68601C10.28 5.68606 10.9708 5.68489 11.6615 5.68318C12.3718 5.68143 13.082 5.6806 13.7922 5.6807C14.1906 5.68074 14.5889 5.68039 14.9873 5.6791C15.3621 5.67793 15.7369 5.67792 16.1117 5.6788C16.249 5.67893 16.3862 5.67864 16.5235 5.67791C17.4958 5.67304 18.2298 5.7208 18.9797 6.41067C19.3181 6.75974 19.4891 7.1774 19.5783 7.65182C19.634 7.65148 19.634 7.65148 19.6908 7.65114C20.5954 7.64577 21.4999 7.64175 22.4045 7.63923C22.842 7.63798 23.2794 7.63628 23.7168 7.63349C24.0983 7.63107 24.4797 7.6295 24.8611 7.62896C25.0629 7.62865 25.2648 7.62778 25.4666 7.62613C25.6923 7.62437 25.9179 7.62413 26.1436 7.62424C26.2101 7.62337 26.2765 7.62249 26.3449 7.6216C26.867 7.62441 27.2711 7.75511 27.6506 8.13765C27.9961 8.6715 28.0258 9.08724 28.0309 9.7166C28.0335 9.82486 28.0335 9.82486 28.0362 9.93531C28.0367 10.0047 28.0372 10.074 28.0377 10.1455C28.039 10.2405 28.039 10.2405 28.0404 10.3374C28.012 10.5061 28.012 10.5061 27.9186 10.6477C27.7203 10.7838 27.5448 10.7856 27.3127 10.786C27.2689 10.787 27.2251 10.788 27.18 10.789C27.0407 10.792 26.9014 10.7933 26.762 10.7945C26.6674 10.7962 26.5727 10.7981 26.478 10.8C26.2464 10.8045 26.0148 10.8075 25.7831 10.8097C26.1735 11.5106 26.5736 12.2036 26.9961 12.8854C27.1906 13.1993 27.3824 13.5147 27.5706 13.8325C27.6309 13.9343 27.6915 14.036 27.7522 14.1375C27.895 14.376 28.0351 14.6152 28.1699 14.8584C28.4456 15.3812 28.4456 15.3812 28.9194 15.6984C28.9686 15.7115 29.0177 15.7247 29.0684 15.7382C29.3746 15.8439 29.6756 16.1148 29.8261 16.4043C29.8437 16.4419 29.8614 16.4795 29.8795 16.5182ZM21.2651 12.4494C21.2651 13.4715 21.2651 14.4935 21.2651 15.5466C22.6765 15.5466 24.0879 15.5466 25.5422 15.5466C25.2311 14.9714 25.2311 14.9714 24.9056 14.4053C24.8694 14.3437 24.8694 14.3437 24.8324 14.2809C24.782 14.1954 24.7315 14.11 24.681 14.0246C24.6045 13.8951 24.5281 13.7656 24.4518 13.6361C24.4023 13.5521 24.3528 13.4682 24.3032 13.3843C24.2809 13.3464 24.2585 13.3085 24.2355 13.2694C24.1919 13.1957 24.1476 13.1223 24.1028 13.0493C24.0361 12.9352 24.0361 12.9352 23.9725 12.8009C23.8466 12.5466 23.8466 12.5466 23.6132 12.4077C23.4616 12.393 23.3173 12.3946 23.1652 12.4019C23.117 12.4024 23.0687 12.4029 23.019 12.4034C22.8397 12.406 22.6604 12.4127 22.4812 12.419C22.0799 12.429 21.6785 12.4391 21.2651 12.4494ZM12.7108 14.3927C12.6929 14.5105 12.6929 14.5105 12.6964 14.6471C12.6962 14.7004 12.696 14.7537 12.6959 14.8086C12.6963 14.8672 12.6967 14.9259 12.6972 14.9863C12.6971 15.0479 12.6971 15.1095 12.6971 15.173C12.6972 15.3774 12.6981 15.5818 12.6991 15.7861C12.6993 15.9276 12.6995 16.069 12.6996 16.2104C12.7001 16.5832 12.7012 16.956 12.7026 17.3288C12.704 17.7758 12.7046 18.2228 12.7053 18.6698C12.7064 19.3494 12.7088 20.0289 12.7108 20.7085C14.0825 20.7085 15.4542 20.7085 16.8675 20.7085C16.871 19.5889 16.871 19.5889 16.8734 18.4694C16.8741 18.013 16.8749 17.5566 16.8766 17.1003C16.8779 16.7325 16.8786 16.3647 16.8789 15.997C16.8791 15.8564 16.8796 15.7158 16.8802 15.5752C16.8811 15.3789 16.8812 15.1826 16.8811 14.9863C16.8818 14.8983 16.8818 14.8983 16.8825 14.8086C16.8823 14.7553 16.8821 14.702 16.882 14.6471C16.8821 14.5774 16.8821 14.5774 16.8823 14.5063C16.8772 14.3778 16.8772 14.3778 16.747 14.2713C16.5772 14.2526 16.5772 14.2526 16.3758 14.2555C16.2978 14.2552 16.2198 14.2548 16.1394 14.2544C16.0539 14.2546 15.9684 14.2548 15.8829 14.2551C15.7956 14.255 15.7082 14.2549 15.6209 14.2548C15.4378 14.2546 15.2547 14.2549 15.0716 14.2554C14.8366 14.2561 14.6016 14.2557 14.3666 14.255C14.1862 14.2545 14.0059 14.2547 13.8255 14.255C13.7389 14.2551 13.6522 14.255 13.5655 14.2547C13.4445 14.2544 13.3235 14.2549 13.2025 14.2555C13.1336 14.2556 13.0647 14.2557 12.9937 14.2558C12.8223 14.2546 12.8223 14.2546 12.7108 14.3927ZM27.1687 16.4575C27.1665 16.5335 27.1643 16.6095 27.1621 16.6878C27.1609 16.7306 27.1596 16.7733 27.1584 16.8174C27.1798 17.0795 27.3458 17.2511 27.5339 17.4178C27.7385 17.5442 27.9046 17.5579 28.1389 17.5565C28.2277 17.5562 28.2277 17.5562 28.3183 17.5559C28.38 17.5554 28.4417 17.5549 28.5053 17.5544C28.5677 17.5541 28.6301 17.5539 28.6943 17.5536C28.8484 17.5529 29.0025 17.5519 29.1566 17.5506C29.1638 17.2294 29.1513 17.0355 28.9759 16.7611C28.7212 16.5294 28.5787 16.4497 28.2394 16.4516C28.1462 16.4519 28.1462 16.4518 28.0511 16.4521C27.986 16.4527 27.921 16.4532 27.8539 16.4537C27.7884 16.454 27.7228 16.4542 27.6553 16.4545C27.4931 16.4552 27.3309 16.4562 27.1687 16.4575ZM0.783131 17.0648C0.700381 17.2316 0.722115 17.3573 0.730185 17.5435C0.733097 17.6143 0.736009 17.6852 0.739009 17.7582C0.742387 17.8325 0.745765 17.9068 0.749246 17.9833C0.752391 18.0581 0.755536 18.1328 0.758776 18.2098C0.766606 18.395 0.774737 18.5801 0.783131 18.7652C1.00181 18.7652 1.22048 18.7652 1.44578 18.7652C1.44578 18.204 1.44578 17.6429 1.44578 17.0648C1.22711 17.0648 1.00843 17.0648 0.783131 17.0648ZM5.25579 20.0917C4.83256 20.6135 4.7022 21.2027 4.73174 21.8657C4.77289 22.2269 4.8873 22.5174 5.06024 22.834C5.08128 22.875 5.10233 22.9161 5.12401 22.9583C5.33285 23.3069 5.67854 23.4919 6.0241 23.6842C6.06176 23.7064 6.09942 23.7285 6.13822 23.7513C6.6007 23.9755 7.25614 23.9408 7.74237 23.8088C7.92061 23.737 8.08554 23.657 8.25301 23.5628C8.29362 23.5415 8.33424 23.5203 8.37608 23.4985C8.72199 23.2883 8.90587 22.9395 9.09638 22.5911C9.11836 22.5524 9.14034 22.5138 9.16298 22.4739C9.39299 21.984 9.34556 21.2746 9.18298 20.773C8.9054 20.1227 8.41472 19.6456 7.76355 19.3763C6.81218 19.1037 5.92773 19.3796 5.25579 20.0917ZM22.7207 19.957C22.221 20.4889 22.0777 21.1656 22.092 21.8728C22.1349 22.4787 22.4503 22.9572 22.8843 23.3656C23.366 23.7571 23.9353 23.9602 24.5534 23.916C25.1211 23.8364 25.6576 23.5855 26.0843 23.1984C26.2044 23.0426 26.2044 23.0426 26.3065 22.872C26.3415 22.8164 26.3765 22.7608 26.4126 22.7035C26.722 22.13 26.7493 21.5036 26.5703 20.8836C26.3423 20.2624 25.9378 19.7668 25.3426 19.4712C24.3861 19.0991 23.489 19.2714 22.7207 19.957Z" fill="#1D2537"/>
<path d="M3.23681 8.59261C3.30725 8.59192 3.37769 8.59124 3.45027 8.59053C3.52732 8.59102 3.60437 8.59151 3.68376 8.59202C3.7659 8.59169 3.84804 8.59126 3.93018 8.59073C4.1531 8.58962 4.376 8.59005 4.59892 8.59082C4.8322 8.59144 5.06549 8.59087 5.29877 8.59049C5.69054 8.59004 6.08229 8.59063 6.47405 8.59178C6.92699 8.59311 7.37989 8.59268 7.83283 8.59134C8.2217 8.59024 8.61057 8.59008 8.99945 8.59072C9.23171 8.5911 9.46395 8.59115 9.69621 8.59034C9.91458 8.58964 10.1329 8.59013 10.3513 8.59153C10.4696 8.59201 10.588 8.59129 10.7064 8.59053C10.7768 8.59122 10.8472 8.5919 10.9198 8.59261C10.981 8.5927 11.0422 8.59279 11.1053 8.59288C11.3087 8.6318 11.3802 8.70358 11.506 8.86637C11.5372 9.04233 11.5372 9.04233 11.538 9.24497C11.5385 9.35559 11.5385 9.35559 11.539 9.46844C11.538 9.54531 11.5371 9.62218 11.5361 9.70139C11.5375 9.81529 11.5375 9.81529 11.539 9.93149C11.5372 10.3516 11.5243 10.7093 11.2651 11.0526C11.2243 11.0862 11.1835 11.1198 11.1414 11.1544C10.9822 11.3459 10.996 11.4616 10.9996 11.7093C10.9999 11.7504 11.0001 11.7915 11.0004 11.8339C11.0011 11.923 11.0024 12.0121 11.0041 12.1012C11.007 12.2427 11.0083 12.3841 11.0093 12.5257C11.0116 12.8267 11.0159 13.1276 11.0203 13.4286C11.0252 13.7763 11.0292 14.124 11.0319 14.4718C11.0332 14.6103 11.0358 14.7488 11.0384 14.8873C11.0454 15.4325 11.0507 15.9573 10.6965 16.3967C10.4729 16.5727 10.3152 16.6546 10.03 16.6559C9.97591 16.6564 9.92187 16.6569 9.86618 16.6575C9.77793 16.6574 9.77793 16.6574 9.68789 16.6573C9.62556 16.6577 9.56324 16.6581 9.49902 16.6585C9.2928 16.6597 9.08659 16.6599 8.88037 16.66C8.73706 16.6604 8.59376 16.6608 8.45045 16.6613C8.14995 16.662 7.84945 16.6622 7.54895 16.6622C7.16392 16.6621 6.77892 16.6638 6.3939 16.6659C6.09788 16.6672 5.80187 16.6675 5.50585 16.6674C5.3639 16.6676 5.22195 16.6681 5.08001 16.669C4.88143 16.6702 4.68291 16.6699 4.48434 16.6692C4.39644 16.6702 4.39644 16.6702 4.30678 16.6712C3.96456 16.668 3.76422 16.6296 3.49398 16.3967C3.22288 16.0939 3.18405 15.8693 3.18614 15.4733C3.18611 15.3814 3.18607 15.2894 3.18604 15.1975C3.18612 15.1488 3.18621 15.1001 3.1863 15.0499C3.18651 14.7916 3.18495 14.5333 3.18371 14.275C3.18225 13.9465 3.1813 13.618 3.18223 13.2895C3.18293 13.0239 3.18188 12.7583 3.17967 12.4927C3.17915 12.3917 3.17928 12.2907 3.18006 12.1896C3.20927 11.5719 3.20927 11.5719 2.95644 11.0366C2.89505 10.9808 2.83332 10.9253 2.77109 10.8704C2.5812 10.5123 2.62841 10.1086 2.62801 9.71277C2.62654 9.63508 2.62506 9.55738 2.62354 9.47733C2.62331 9.40277 2.62308 9.3282 2.62284 9.25138C2.62234 9.18335 2.62185 9.11531 2.62134 9.04522C2.68057 8.68323 2.89715 8.59312 3.23681 8.59261ZM3.55422 9.47366C3.44817 9.79439 3.44398 10.1331 3.56551 10.4491C3.66813 10.5761 3.66813 10.5761 3.82154 10.6275C3.97926 10.6401 3.97926 10.6401 4.11145 10.5516C4.2568 10.4051 4.27577 10.2924 4.28511 10.0881C4.28496 10.0231 4.2848 9.95811 4.28464 9.89117C4.2848 9.82588 4.28495 9.76059 4.28511 9.69332C4.295 9.53884 4.295 9.53884 4.21687 9.47366C4.10525 9.46927 3.99348 9.46857 3.88178 9.46986C3.82082 9.47041 3.75986 9.47096 3.69706 9.47152C3.64992 9.47223 3.60278 9.47293 3.55422 9.47366ZM5.12048 9.53438C5.10971 9.67201 5.10434 9.81008 5.10166 9.9481C5.09941 10.0236 5.09716 10.0992 5.09484 10.177C5.10339 10.3877 5.10339 10.3877 5.2325 10.5333C5.35574 10.6427 5.35574 10.6427 5.51582 10.6275C5.69704 10.5526 5.74555 10.4942 5.84338 10.3239C5.86744 10.127 5.86744 10.127 5.85844 9.91773C5.8575 9.84736 5.85657 9.77698 5.85561 9.70447C5.86229 9.54021 5.86229 9.54021 5.78314 9.47366C5.68288 9.46769 5.58236 9.46578 5.48193 9.46606C5.42726 9.46591 5.37259 9.46575 5.31627 9.46559C5.18255 9.45837 5.18255 9.45837 5.12048 9.53438ZM6.68675 9.53438C6.67756 9.65052 6.67338 9.76708 6.67169 9.88357C6.67014 9.94714 6.66858 10.0107 6.66698 10.0762C6.68927 10.287 6.74165 10.3985 6.86747 10.5668C7.01166 10.6373 7.01166 10.6373 7.16868 10.6275C7.35666 10.5222 7.40081 10.472 7.46988 10.2631C7.47554 10.1392 7.47771 10.0152 7.47741 9.89117C7.47757 9.82588 7.47772 9.76059 7.47788 9.69332C7.48777 9.53884 7.48777 9.53884 7.40964 9.47366C7.29933 9.46767 7.18879 9.46578 7.07832 9.46606C6.98793 9.46583 6.98793 9.46583 6.89571 9.46559C6.75036 9.45673 6.75036 9.45673 6.68675 9.53438ZM8.31326 9.53438C8.30566 9.66199 8.30267 9.7899 8.30196 9.91773C8.30111 9.98764 8.30025 10.0575 8.29937 10.1296C8.31259 10.3145 8.32634 10.4178 8.43374 10.5668C8.61802 10.6163 8.61802 10.6163 8.79518 10.6275C8.95607 10.4573 9.03151 10.36 9.0618 10.1236C9.05954 10.0544 9.05729 9.98524 9.05497 9.91394C9.05276 9.8092 9.05276 9.8092 9.0505 9.70234C9.05464 9.53999 9.05464 9.53999 8.97591 9.47366C8.87565 9.46769 8.77513 9.46578 8.6747 9.46606C8.62003 9.46591 8.56536 9.46575 8.50904 9.46559C8.37532 9.45837 8.37532 9.45837 8.31326 9.53438ZM9.93976 9.47366C9.87051 9.6831 9.8778 9.83069 9.89082 10.0506C9.89416 10.1201 9.89749 10.1896 9.90093 10.2612C9.92346 10.4496 9.92346 10.4496 10.0537 10.5611C10.1797 10.6394 10.1797 10.6394 10.3351 10.6275C10.5336 10.5454 10.5703 10.4563 10.6627 10.2631C10.6866 10.0756 10.6866 10.0756 10.6777 9.88357C10.6768 9.81938 10.6758 9.75519 10.6749 9.68905C10.6797 9.5384 10.6797 9.5384 10.6024 9.47366C10.4908 9.46927 10.379 9.46857 10.2673 9.46986C10.2064 9.47041 10.1454 9.47096 10.0826 9.47152C10.0355 9.47223 9.98833 9.47293 9.93976 9.47366ZM4.63856 11.2348C4.34036 11.3851 4.34036 11.3851 4.03615 11.5384C4.03615 12.3801 4.03615 13.2218 4.03615 14.089C4.19518 14.1091 4.35422 14.1291 4.51808 14.1498C4.69187 13.9746 4.66161 13.789 4.66868 13.5539C4.68627 12.9773 4.68627 12.9773 4.81928 12.753C4.94117 12.6963 4.94117 12.6963 5.08283 12.6657C5.3735 12.5853 5.43988 12.4607 5.60241 12.2064C5.7869 12.1723 5.7869 12.1723 5.96386 12.2064C6.11804 12.319 6.14333 12.3848 6.20482 12.5708C6.34056 12.6263 6.47694 12.6594 6.61874 12.6958C6.74699 12.753 6.74699 12.753 6.82064 12.869C6.91715 13.1306 6.94598 13.3685 6.9616 13.645C6.9642 13.6876 6.9668 13.7302 6.96948 13.7741C6.97586 13.8791 6.98193 13.9841 6.98795 14.089C7.04759 14.089 7.10723 14.089 7.16868 14.089C7.17093 14.0275 7.17318 13.966 7.1755 13.9026C7.17946 13.8205 7.18346 13.7384 7.1875 13.6563C7.18886 13.616 7.19022 13.5756 7.19162 13.5339C7.20662 13.2535 7.25797 13.0499 7.40964 12.8137C7.52636 12.7357 7.52636 12.7357 7.65061 12.6885C7.87721 12.5889 7.96214 12.4954 8.07229 12.2672C8.24763 12.1788 8.3603 12.1791 8.55422 12.2064C8.63579 12.3271 8.71594 12.4486 8.79518 12.5708C8.91481 12.6408 9.03355 12.6936 9.16251 12.7438C9.32791 12.8448 9.37913 12.9392 9.45783 13.1174C9.47671 13.2878 9.48853 13.4479 9.49172 13.6184C9.49546 13.7769 9.50393 13.9309 9.51807 14.089C9.68308 14.1722 9.81753 14.1574 10 14.1498C10.0398 14.1297 10.0795 14.1097 10.1205 14.089C10.1205 13.2473 10.1205 12.4056 10.1205 11.5384C9.54051 11.1791 9.54051 11.1791 9.26229 11.3055C9.20754 11.3423 9.15279 11.3791 9.09639 11.417C8.88719 11.4412 8.88719 11.4412 8.67094 11.4397C8.56366 11.4405 8.56366 11.4405 8.45421 11.4412C8.23898 11.4153 8.13143 11.3509 7.95181 11.2348C7.79202 11.2749 7.79202 11.2749 7.65061 11.3562C7.2802 11.4807 6.82964 11.4839 6.47591 11.3183C6.42621 11.2907 6.37651 11.2632 6.3253 11.2348C6.15973 11.2732 6.15973 11.2732 6.0241 11.3562C5.7467 11.4961 5.36284 11.4393 5.06024 11.417C4.932 11.3655 4.932 11.3655 4.83434 11.3069C4.73743 11.2712 4.73743 11.2712 4.63856 11.2348ZM5.48193 13.4818C5.48193 13.6822 5.48193 13.8826 5.48193 14.089C5.68073 14.089 5.87952 14.089 6.08434 14.089C6.08434 13.8886 6.08434 13.6882 6.08434 13.4818C5.88554 13.4818 5.68675 13.4818 5.48193 13.4818ZM8.07229 13.4818C8.07229 13.6822 8.07229 13.8826 8.07229 14.089C8.14933 14.1003 8.22636 14.1116 8.30573 14.1232C8.37072 14.1327 8.37072 14.1327 8.43703 14.1424C8.55912 14.16 8.55912 14.16 8.6747 14.089C8.67632 13.9992 8.67749 13.9094 8.67847 13.8196C8.67917 13.7695 8.67986 13.7195 8.68058 13.668C8.68872 13.543 8.68872 13.543 8.61446 13.4818C8.43354 13.4731 8.25349 13.4792 8.07229 13.4818ZM4.03615 15C4.0329 15.1088 4.03056 15.2176 4.02862 15.3264C4.02722 15.387 4.02582 15.4476 4.02438 15.51C4.01975 15.6779 4.01975 15.6779 4.15663 15.7894C4.34114 15.8015 4.52021 15.806 4.7048 15.8052C4.76162 15.8054 4.81843 15.8056 4.87697 15.8058C5.06545 15.8063 5.25392 15.806 5.4424 15.8056C5.57295 15.8057 5.7035 15.8058 5.83404 15.8059C6.10792 15.8061 6.38179 15.8058 6.65566 15.8053C7.00734 15.8046 7.35902 15.805 7.71071 15.8057C7.98036 15.8062 8.25001 15.806 8.51967 15.8057C8.64937 15.8056 8.77908 15.8057 8.90878 15.806C9.0898 15.8063 9.27081 15.8058 9.45183 15.8052C9.50585 15.8054 9.55987 15.8057 9.61552 15.8059C9.89704 15.8177 9.89704 15.8177 10.1205 15.668C10.1374 15.5219 10.1374 15.5219 10.1318 15.3605C10.1314 15.306 10.131 15.2514 10.1306 15.1952C10.1352 15.0623 10.1352 15.0623 10.0602 15C9.87319 14.9942 9.68748 14.9923 9.50041 14.9931C9.41226 14.9931 9.41226 14.9931 9.32234 14.9931C9.12709 14.9931 8.93184 14.9936 8.73659 14.994C8.60161 14.9942 8.46664 14.9942 8.33166 14.9943C7.97563 14.9945 7.6196 14.9951 7.26357 14.9958C6.90057 14.9964 6.53758 14.9967 6.17458 14.997C5.46177 14.9977 4.74896 14.9987 4.03615 15Z" fill="#609DF6"/>
<path d="M13.5825 13.3888C13.6792 13.3886 13.776 13.3884 13.8727 13.3881C14.0748 13.3877 14.277 13.3882 14.4791 13.3894C14.7372 13.3908 14.9952 13.39 15.2532 13.3885C15.4528 13.3876 15.6524 13.3879 15.852 13.3885C15.9471 13.3887 16.0422 13.3885 16.1373 13.3879C17.1357 13.3833 17.1357 13.3833 17.4699 13.664C17.6753 13.9683 17.7411 14.1666 17.7437 14.5415C17.7444 14.5847 17.745 14.6278 17.7456 14.6722C17.7474 14.8142 17.7475 14.956 17.7476 15.098C17.7485 15.1984 17.7495 15.2989 17.7506 15.3993C17.7532 15.6642 17.7544 15.929 17.7553 16.1939C17.7565 16.4576 17.759 16.7213 17.7614 16.985C17.7658 17.4874 17.7684 17.9898 17.7701 18.4922C17.7707 18.6673 17.7715 18.8424 17.7726 19.0175C17.7739 19.2379 17.7749 19.4583 17.7758 19.6787C17.7762 19.7412 17.7767 19.8037 17.7772 19.8681C17.7778 20.1754 17.7637 20.4663 17.7108 20.7692C17.4325 20.7692 17.1542 20.7692 16.8675 20.7692C16.8202 20.5786 16.7998 20.4545 16.8004 20.2647C16.8004 20.1869 16.8004 20.1869 16.8004 20.1075C16.8009 20.0229 16.8009 20.0229 16.8013 19.9367C16.8015 19.847 16.8015 19.847 16.8016 19.7556C16.8018 19.6259 16.8022 19.4962 16.8027 19.3666C16.8035 19.1617 16.8039 18.9568 16.8042 18.7519C16.8048 18.3173 16.806 17.8827 16.8072 17.4481C16.8086 16.944 16.8099 16.4399 16.8106 15.9358C16.811 15.7334 16.8117 15.531 16.8125 15.3285C16.8127 15.2053 16.8129 15.082 16.8131 14.9588C16.8136 14.8737 16.8136 14.8737 16.8141 14.7868C16.8141 14.6554 16.811 14.524 16.8072 14.3927C16.6979 14.2825 16.5286 14.3242 16.3817 14.3241C16.3035 14.3239 16.2253 14.3237 16.1447 14.3235C16.0587 14.3237 15.9727 14.3238 15.8867 14.3239C15.7991 14.3239 15.7116 14.3238 15.624 14.3237C15.4403 14.3237 15.2565 14.3238 15.0728 14.3241C14.8368 14.3244 14.6008 14.3242 14.3648 14.3239C14.1839 14.3236 14.003 14.3237 13.8222 14.3239C13.7351 14.3239 13.6481 14.3239 13.561 14.3237C13.4396 14.3236 13.3181 14.3238 13.1967 14.3241C13.1274 14.3242 13.0582 14.3242 12.9868 14.3243C12.8355 14.3142 12.8355 14.3142 12.7711 14.3927C12.7646 14.4756 12.7622 14.5589 12.7616 14.6421C12.7607 14.7227 12.7607 14.7227 12.7598 14.8049C12.7594 14.8643 12.7591 14.9237 12.7587 14.985C12.7578 15.0783 12.7578 15.0783 12.7569 15.1734C12.755 15.3801 12.7535 15.5868 12.752 15.7935C12.7508 15.9364 12.7495 16.0793 12.7482 16.2221C12.7449 16.599 12.7419 16.9759 12.739 17.3528C12.736 17.737 12.7326 18.1213 12.7293 18.5055C12.7228 19.2601 12.7167 20.0147 12.7108 20.7692C12.4524 20.7692 12.194 20.7692 11.9277 20.7692C11.8175 20.5471 11.7922 20.4855 11.7934 20.2556C11.7934 20.2017 11.7934 20.1478 11.7934 20.0923C11.794 20.0336 11.7946 19.975 11.7953 19.9146C11.7954 19.8524 11.7956 19.7903 11.7958 19.7263C11.7966 19.5206 11.7983 19.315 11.8002 19.1094C11.8011 18.9664 11.8021 18.8235 11.803 18.6805C11.8051 18.3807 11.8077 18.0809 11.8106 17.7811C11.8143 17.3972 11.8163 17.0133 11.8179 16.6293C11.8193 16.334 11.8219 16.0386 11.8247 15.7433C11.8259 15.6018 11.8267 15.4603 11.8272 15.3187C11.8279 15.1206 11.8301 14.9225 11.8327 14.7244C11.8326 14.6661 11.8324 14.6078 11.8323 14.5478C11.8391 14.182 11.8944 13.9625 12.1084 13.664C12.5221 13.3196 13.0759 13.3858 13.5825 13.3888Z" fill="#5F9EF6"/>
<path d="M3.90609 5.69229C3.99412 5.69187 3.99412 5.69187 4.08393 5.69145C4.28005 5.69069 4.47615 5.69078 4.67227 5.69088C4.8131 5.69052 4.95393 5.69011 5.09477 5.68965C5.47701 5.68858 5.85924 5.68829 6.24148 5.68821C6.52052 5.68811 6.79957 5.68776 7.07861 5.68738C7.82938 5.68637 8.58014 5.68592 9.33091 5.68601C9.3948 5.68601 9.3948 5.68601 9.45998 5.68602C9.50263 5.68603 9.54527 5.68603 9.58921 5.68604C10.28 5.68609 10.9708 5.68492 11.6616 5.68321C12.3718 5.68146 13.082 5.68063 13.7922 5.68073C14.1906 5.68077 14.5889 5.68042 14.9873 5.67913C15.3621 5.67795 15.7369 5.67795 16.1117 5.67883C16.249 5.67896 16.3862 5.67867 16.5235 5.67794C17.8568 5.67126 17.8568 5.67126 18.3735 5.95144C18.335 5.96898 18.2965 5.98651 18.2568 6.00458C18.1234 6.06247 18.1234 6.06247 18.0723 6.19436C18.1121 6.2144 18.1518 6.23444 18.1928 6.25509C18.1033 6.31521 18.1033 6.31521 18.0121 6.37654C17.9681 6.53218 17.9681 6.53218 17.9518 6.68019C17.9191 6.67591 17.8864 6.67163 17.8527 6.66721C17.2318 6.59784 16.6086 6.61047 15.9848 6.61064C15.8527 6.61046 15.7207 6.61025 15.5886 6.61002C15.2314 6.60949 14.8742 6.60934 14.517 6.6093C14.2936 6.60926 14.0702 6.60913 13.8468 6.60897C13.0267 6.60838 12.2065 6.60816 11.3863 6.60821C10.7807 6.60824 10.1751 6.60776 9.56948 6.60696C8.86473 6.60603 8.15998 6.60552 7.45524 6.60556C7.08271 6.60558 6.71018 6.60541 6.33765 6.60476C5.98743 6.60417 5.6372 6.60417 5.28698 6.60461C5.15871 6.60467 5.03044 6.60453 4.90218 6.60416C4.7266 6.60369 4.55103 6.60398 4.37545 6.60444C4.3 6.60398 4.3 6.60398 4.22303 6.6035C3.70167 6.60654 3.25367 6.66451 2.83133 6.98383C2.79157 6.98383 2.75181 6.98383 2.71085 6.98383C2.69361 7.01859 2.67637 7.05335 2.65861 7.08916C2.55554 7.29696 2.45247 7.50477 2.3494 7.71258C2.31306 7.70201 2.27672 7.69144 2.23927 7.68055C2.0794 7.64548 1.96448 7.67295 1.80723 7.71258C1.80723 7.6725 1.80723 7.63241 1.80723 7.59112C1.68795 7.67128 1.56868 7.75144 1.44579 7.83403C1.48462 7.12931 1.8407 6.60385 2.3494 6.13363C2.83869 5.78142 3.31757 5.69025 3.90609 5.69229Z" fill="#182032"/>
<path d="M1.80723 7.59106C1.80723 7.63115 1.80723 7.67123 1.80723 7.71252C1.8532 7.69123 1.89917 7.66994 1.94654 7.648C2.10843 7.59106 2.10843 7.59106 2.28916 7.65179C2.38156 7.8381 2.35743 8.03304 2.35664 8.23743C2.35669 8.28589 2.35674 8.33435 2.3568 8.38428C2.3569 8.54756 2.35656 8.71083 2.35624 8.87411C2.35622 8.99079 2.35623 9.10748 2.35626 9.22417C2.35628 9.54172 2.35593 9.85928 2.35551 10.1768C2.35513 10.5084 2.35509 10.84 2.35502 11.1716C2.35483 11.7998 2.35434 12.428 2.35374 13.0563C2.35306 13.7713 2.35273 14.4864 2.35243 15.2015C2.3518 16.6728 2.35074 18.1441 2.3494 19.6154C2.16867 19.6761 2.16867 19.6761 1.98795 19.6154C1.92831 19.6354 1.86867 19.6554 1.80723 19.6761C1.76747 19.656 1.72771 19.636 1.68675 19.6154C1.68675 19.6955 1.68675 19.7757 1.68675 19.8583C1.65537 19.8387 1.624 19.8191 1.59168 19.799C1.40331 19.7187 1.24322 19.7199 1.03916 19.714C0.618318 19.6897 0.307173 19.6214 -3.66767e-07 19.3117C-0.0165157 19.1927 -0.0165157 19.1927 -0.018458 19.0453C-0.0194211 18.9902 -0.0203842 18.9351 -0.0213765 18.8783C-0.0216995 18.8185 -0.0220226 18.7588 -0.0223554 18.6973C-0.0228993 18.6361 -0.0234432 18.5748 -0.0240035 18.5117C-0.0248786 18.3819 -0.0254129 18.2521 -0.0256351 18.1224C-0.0263515 17.9237 -0.0293129 17.7252 -0.0323564 17.5266C-0.0329265 17.4007 -0.0333623 17.2747 -0.0336506 17.1487C-0.0348272 17.0893 -0.0360039 17.0298 -0.0372162 16.9685C-0.0344976 16.5563 -0.0344976 16.5563 0.141175 16.3623C0.472366 16.1822 0.727874 16.1463 1.09916 16.1816C1.16411 16.1876 1.22907 16.1936 1.29599 16.1998C1.34542 16.2047 1.39485 16.2095 1.44578 16.2145C1.44556 16.1716 1.44534 16.1286 1.44511 16.0843C1.43979 15.0393 1.4358 13.9942 1.4333 12.9491C1.43206 12.4437 1.43036 11.9383 1.4276 11.4329C1.4252 10.9924 1.42365 10.552 1.42311 10.1115C1.4228 9.87822 1.42206 9.64497 1.42031 9.41171C1.41867 9.19219 1.41817 8.97269 1.41853 8.75316C1.41843 8.63412 1.41713 8.51508 1.4158 8.39604C1.41613 8.3252 1.41646 8.25435 1.41681 8.18135C1.41658 8.11977 1.41636 8.0582 1.41613 7.99475C1.45654 7.77563 1.5689 7.59106 1.80723 7.59106ZM0.783132 17.0647C0.700382 17.2316 0.722116 17.3573 0.730186 17.5435C0.733098 17.6143 0.73601 17.6852 0.73901 17.7581C0.742388 17.8324 0.745766 17.9067 0.749247 17.9833C0.752392 18.058 0.755537 18.1328 0.758777 18.2098C0.766607 18.3949 0.774738 18.5801 0.783132 18.7652C1.00181 18.7652 1.22048 18.7652 1.44578 18.7652C1.44578 18.204 1.44578 17.6429 1.44578 17.0647C1.22711 17.0647 1.00843 17.0647 0.783132 17.0647Z" fill="#182134"/>
<path d="M24.887 20.323C25.2574 20.5172 25.5361 20.8582 25.6626 21.2551C25.7028 21.6461 25.717 22.0194 25.4819 22.3482C25.2284 22.639 25.0211 22.8759 24.624 22.913C24.5517 22.9132 24.4795 22.9135 24.4051 22.9137C24.3332 22.9147 24.2613 22.9158 24.1872 22.9168C23.854 22.882 23.6214 22.7456 23.3885 22.5076C23.3541 22.4733 23.3196 22.439 23.2841 22.4037C23.0164 22.063 23.03 21.6699 23.0723 21.2551C23.1758 20.8794 23.4146 20.6157 23.7349 20.4049C24.0888 20.2321 24.5095 20.2062 24.887 20.323ZM24.0361 21.2551C23.9443 21.4403 23.9617 21.5977 23.9759 21.8016C24.0683 21.9487 24.1382 21.977 24.2997 22.0369C24.5122 22.0471 24.5985 22.0017 24.759 21.8624C24.8339 21.6454 24.8363 21.5408 24.7515 21.3272C24.6488 21.1854 24.6488 21.1854 24.4955 21.1374C24.3107 21.133 24.1989 21.1684 24.0361 21.2551Z" fill="#182032"/>
<path d="M7.61295 20.3783C7.95591 20.5814 8.18931 20.8757 8.31325 21.2551C8.36782 21.683 8.33564 22.0596 8.07229 22.4089C7.73044 22.766 7.49857 22.9035 6.99925 22.9137C6.65811 22.9098 6.45762 22.9005 6.20482 22.6518C5.8209 22.2494 5.69922 22.0071 5.70666 21.4415C5.74725 20.9754 5.98658 20.7187 6.33118 20.426C6.6749 20.1805 7.23978 20.208 7.61295 20.3783ZM6.68675 21.2551C6.57276 21.4083 6.56612 21.4908 6.57003 21.684C6.61225 21.8699 6.61225 21.8699 6.75828 21.98C6.96987 22.0606 7.07576 22.0587 7.28916 21.9838C7.42741 21.822 7.47247 21.735 7.46235 21.5208C7.40433 21.362 7.36511 21.2924 7.22892 21.1944C7.00764 21.12 6.87828 21.1153 6.68675 21.2551Z" fill="#182032"/>
<path d="M1.44578 16.2146C1.44578 16.4952 1.44578 16.7757 1.44578 17.0648C1.22711 17.0848 1.00843 17.1049 0.783132 17.1255C0.783132 17.6666 0.783132 18.2077 0.783132 18.7652C1.00181 18.7652 1.22048 18.7652 1.44578 18.7652C1.44903 18.8942 1.45137 19.0233 1.45331 19.1523C1.45471 19.2242 1.45611 19.2961 1.45755 19.3701C1.44578 19.5547 1.44578 19.5547 1.3253 19.6761C0.862102 19.7379 0.513806 19.6829 0.120482 19.4332C-0.025757 19.2858 -0.0157944 19.2475 -0.018458 19.0454C-0.0194211 18.9903 -0.0203842 18.9351 -0.0213765 18.8783C-0.0216995 18.8186 -0.0220226 18.7589 -0.0223554 18.6974C-0.0228993 18.6361 -0.0234432 18.5748 -0.0240035 18.5117C-0.0248786 18.382 -0.0254129 18.2522 -0.0256351 18.1224C-0.0263515 17.9238 -0.0293129 17.7253 -0.0323564 17.5267C-0.0329265 17.4007 -0.0333623 17.2747 -0.0336506 17.1488C-0.0348272 17.0893 -0.0360039 17.0298 -0.0372162 16.9686C-0.0344976 16.5563 -0.0344976 16.5563 0.141175 16.3624C0.590033 16.1182 0.951654 16.1586 1.44578 16.2146Z" fill="#5F9CF5"/>
<path d="M22.0369 17.0992C22.0761 17.0988 22.1153 17.0985 22.1557 17.0982C22.2383 17.0978 22.321 17.0979 22.4036 17.0984C22.5298 17.0989 22.6558 17.0972 22.7819 17.0953C22.8624 17.0952 22.9429 17.0952 23.0233 17.0954C23.1327 17.0952 23.1327 17.0952 23.2443 17.095C23.4691 17.1312 23.5402 17.1863 23.6747 17.3684C23.7048 17.5506 23.7048 17.5506 23.6747 17.7328C23.5403 17.9146 23.4686 17.9699 23.2443 18.0071C23.1714 18.0074 23.0985 18.0077 23.0233 18.008C22.9841 18.0082 22.9449 18.0084 22.9046 18.0087C22.8219 18.0088 22.7393 18.0084 22.6567 18.0074C22.5305 18.0061 22.4045 18.0074 22.2783 18.0089C22.1979 18.0088 22.1174 18.0084 22.0369 18.008C21.964 18.0077 21.8911 18.0074 21.8159 18.0071C21.591 17.9698 21.5191 17.9164 21.3855 17.7328C21.3554 17.5164 21.3554 17.5164 21.3855 17.3077C21.5818 17.0997 21.7613 17.1014 22.0369 17.0992Z" fill="#192132"/>
<path d="M16.3253 16.7612C16.4475 16.8548 16.4989 16.9076 16.5294 17.0605C16.5296 17.1038 16.5298 17.1471 16.53 17.1917C16.5303 17.2393 16.5305 17.287 16.5307 17.3361C16.53 17.3856 16.5293 17.4351 16.5286 17.4861C16.5293 17.5354 16.53 17.5847 16.5307 17.6354C16.5297 17.8504 16.5268 17.9972 16.4253 18.189C16.278 18.3221 16.1587 18.3321 15.9639 18.3401C15.8283 18.3021 15.8283 18.3021 15.7229 18.2186C15.5996 17.9737 15.5845 17.7625 15.5836 17.4899C15.5826 17.4173 15.5816 17.3446 15.5805 17.2698C15.604 17.0497 15.6518 16.9364 15.7831 16.7612C15.9729 16.6655 16.1226 16.7181 16.3253 16.7612Z" fill="#5F9DF5"/>
<path d="M13.0069 13.4103C13.0491 13.4099 13.0912 13.4095 13.1346 13.4091C13.2741 13.4079 13.4136 13.4072 13.553 13.4066C13.6008 13.4063 13.6485 13.4061 13.6977 13.4058C13.9506 13.4046 14.2035 13.4037 14.4564 13.4031C14.7168 13.4024 14.9772 13.4004 15.2376 13.3979C15.4385 13.3963 15.6394 13.3958 15.8403 13.3956C15.9362 13.3953 16.0322 13.3946 16.1281 13.3935C17.0909 13.3829 17.0909 13.3829 17.4699 13.664C17.5114 13.7939 17.5114 13.7939 17.5301 13.9069C17.4506 13.9269 17.3711 13.947 17.2892 13.9676C17.2718 13.9188 17.2544 13.8699 17.2364 13.8196C17.1848 13.6559 17.1848 13.6559 17.0482 13.6032C16.8974 13.5976 16.7484 13.5956 16.5976 13.5963C16.528 13.5963 16.528 13.5963 16.4569 13.5963C16.3031 13.5963 16.1492 13.5968 15.9954 13.5973C15.8889 13.5974 15.7823 13.5975 15.6758 13.5976C15.3951 13.5978 15.1145 13.5984 14.8338 13.5991C14.5475 13.5997 14.2612 13.6 13.975 13.6003C13.413 13.6009 12.8511 13.6019 12.2892 13.6032C12.5035 13.3871 12.7175 13.4126 13.0069 13.4103Z" fill="#709CDF"/>
<path d="M10.3012 16.3968C10.4006 16.3968 10.5 16.3968 10.6024 16.3968C10.3769 16.6344 10.3769 16.6344 10.1864 16.6477C10.1393 16.6479 10.0922 16.648 10.0436 16.6482C9.98958 16.6486 9.93552 16.6489 9.87983 16.6493C9.82037 16.6494 9.76091 16.6494 9.69965 16.6495C9.6059 16.6499 9.6059 16.6499 9.51025 16.6504C9.3028 16.6513 9.09535 16.6517 8.88789 16.652C8.74413 16.6524 8.60036 16.6527 8.45659 16.6531C8.15487 16.6537 7.85314 16.6541 7.55141 16.6543C7.16435 16.6546 6.7773 16.6561 6.39025 16.6578C6.0932 16.6589 5.79615 16.6593 5.4991 16.6594C5.35638 16.6595 5.21366 16.66 5.07095 16.6608C4.87148 16.6619 4.67204 16.6617 4.47257 16.6614C4.38374 16.6622 4.38374 16.6622 4.29312 16.663C4.23873 16.6627 4.18433 16.6624 4.12829 16.662C4.08114 16.6621 4.03398 16.6622 3.9854 16.6623C3.82307 16.6341 3.7379 16.5646 3.61446 16.4575C3.71385 16.4575 3.81325 16.4575 3.91566 16.4575C3.91566 16.4976 3.91566 16.5377 3.91566 16.579C6.00301 16.5589 8.09036 16.5389 10.241 16.5182C10.2608 16.4782 10.2807 16.4381 10.3012 16.3968Z" fill="#679AE9"/>
<path d="M3.91566 15C3.95542 15 3.99518 15 4.03615 15C4.0398 15.0475 4.04345 15.095 4.04721 15.144C4.05225 15.2054 4.0573 15.2669 4.0625 15.3302C4.06984 15.4222 4.06984 15.4222 4.07733 15.516C4.08025 15.6642 4.08025 15.6642 4.15663 15.7287C4.33812 15.7364 4.5183 15.74 4.69987 15.7412C4.78537 15.7421 4.78537 15.7421 4.87261 15.743C5.06199 15.745 5.25137 15.7465 5.44075 15.748C5.57167 15.7492 5.7026 15.7505 5.83352 15.7518C6.17886 15.7551 6.52419 15.7581 6.86953 15.7611C7.22162 15.7641 7.57372 15.7675 7.92581 15.7709C8.6172 15.7774 9.3086 15.7836 10 15.7895C10 15.8095 10 15.8296 10 15.8502C9.89306 15.8509 9.89306 15.8509 9.78395 15.8517C9.11291 15.8564 8.44188 15.8617 7.77085 15.8677C7.42584 15.8707 7.08084 15.8735 6.73583 15.8758C6.40303 15.8781 6.07025 15.8809 5.73747 15.8841C5.61034 15.8852 5.48321 15.8861 5.35607 15.8868C5.17836 15.8879 5.00067 15.8896 4.82297 15.8916C4.74368 15.8918 4.74368 15.8918 4.66278 15.892C4.36172 15.8957 4.36172 15.8957 4.09639 16.0324C4.09639 15.9723 4.09639 15.9121 4.09639 15.8502C4.05663 15.8502 4.01687 15.8502 3.97591 15.8502C3.95603 15.5696 3.93615 15.2891 3.91566 15Z" fill="#74A1E3"/>
<path d="M0.361447 19.0688C0.440965 19.1089 0.520483 19.149 0.602411 19.1903C0.582532 19.3105 0.562652 19.4308 0.54217 19.5547C0.800604 19.5747 1.05904 19.5948 1.3253 19.6154C1.3253 19.6354 1.3253 19.6555 1.3253 19.6761C0.850241 19.7049 0.529652 19.6871 0.120483 19.4332C0.120483 19.3731 0.120483 19.313 0.120483 19.251C0.180122 19.231 0.239761 19.211 0.301206 19.1903C0.321086 19.1502 0.340965 19.1101 0.361447 19.0688Z" fill="#649AE8"/>
<path d="M16.3253 16.7611C16.3452 16.8012 16.3651 16.8413 16.3855 16.8826C16.3421 16.8688 16.2986 16.855 16.2538 16.8408C16.0835 16.8094 16.0835 16.8094 15.9262 16.8769C15.763 17.022 15.7596 17.0523 15.7405 17.261C15.7369 17.3613 15.7349 17.4616 15.7342 17.562C15.7327 17.6133 15.7312 17.6646 15.7296 17.7175C15.726 17.844 15.7243 17.9706 15.7229 18.0972C15.5765 17.8759 15.5844 17.7608 15.5836 17.4975C15.5826 17.4237 15.5816 17.35 15.5805 17.274C15.6038 17.0514 15.6501 16.938 15.7831 16.7611C15.971 16.6664 16.1247 16.7207 16.3253 16.7611Z" fill="#6C96DD"/>
<path d="M4.93976 9.53442C4.9994 9.53442 5.05903 9.53442 5.12048 9.53442C5.12413 9.59368 5.12778 9.65294 5.13154 9.714C5.13659 9.79127 5.14164 9.86853 5.14684 9.94814C5.15173 10.0249 5.15662 10.1017 5.16166 10.1809C5.173 10.3841 5.173 10.3841 5.24096 10.5668C5.2012 10.6069 5.16144 10.647 5.12048 10.6883C5.04016 10.4454 4.95984 10.2024 4.87952 9.95953C4.91928 9.95953 4.95903 9.95953 5 9.95953C5 9.8994 5 9.83928 5 9.77734C4.96024 9.7573 4.92048 9.73726 4.87952 9.71661C4.8994 9.65649 4.91928 9.59637 4.93976 9.53442Z" fill="#679BEF"/>
<path d="M5.79066 12.1382C5.84782 12.1407 5.90497 12.1432 5.96385 12.1458C5.96385 12.1658 5.96385 12.1859 5.96385 12.2065C5.86446 12.2065 5.76506 12.2065 5.66265 12.2065C5.66016 12.2616 5.65768 12.3167 5.65512 12.3735C5.60241 12.5709 5.60241 12.5709 5.41792 12.7151C5.35952 12.7477 5.30113 12.7802 5.24096 12.8138C5.24096 12.7737 5.24096 12.7336 5.24096 12.6923C5.14157 12.7324 5.04217 12.7725 4.93976 12.8138C4.93976 12.7737 4.93976 12.7336 4.93976 12.6923C5.00685 12.6786 5.07395 12.6648 5.14307 12.6506C5.37011 12.5957 5.37011 12.5957 5.44051 12.4191C5.45418 12.369 5.46785 12.3189 5.48193 12.2672C5.60241 12.1458 5.60241 12.1458 5.79066 12.1382Z" fill="#6E9DE6"/>
<path d="M2.77108 8.6842C2.81084 8.6842 2.8506 8.6842 2.89157 8.6842C2.86291 8.7819 2.86291 8.7819 2.83368 8.88157C2.7503 9.2178 2.74372 9.55372 2.73343 9.89878C2.7311 9.96321 2.72877 10.0276 2.72637 10.094C2.72074 10.2516 2.71558 10.4092 2.71084 10.5668C2.69096 10.5668 2.67108 10.5668 2.6506 10.5668C2.64762 10.328 2.64544 10.0892 2.64398 9.85031C2.64308 9.72915 2.64155 9.608 2.64001 9.48684C2.63962 9.41071 2.63924 9.33458 2.63884 9.25615C2.63821 9.18586 2.63757 9.11558 2.63692 9.04316C2.6506 8.86639 2.6506 8.86639 2.77108 8.6842Z" fill="#70A2E6"/>
<path d="M3.91566 15C3.95542 15 3.99518 15 4.03615 15C4.0384 15.0468 4.04065 15.0936 4.04297 15.1419C4.04693 15.2028 4.05089 15.2637 4.05497 15.3264C4.05847 15.387 4.06196 15.4476 4.06556 15.51C4.07573 15.5622 4.08591 15.6143 4.09639 15.668C4.15603 15.7081 4.21566 15.7482 4.27711 15.7895C4.23735 15.8696 4.19759 15.9498 4.15663 16.0324C4.13675 15.9723 4.11687 15.9121 4.09639 15.8502C4.05663 15.8502 4.01687 15.8502 3.97591 15.8502C3.95603 15.5696 3.93615 15.2891 3.91566 15Z" fill="#6A9AEA"/>
<path d="M10.9036 15.0607C10.9235 15.0607 10.9434 15.0607 10.9639 15.0607C10.9688 15.1948 10.9723 15.3289 10.9752 15.4631C10.9772 15.5377 10.9793 15.6124 10.9815 15.6894C10.9626 15.927 10.9018 16.0713 10.7831 16.2753C10.7229 16.1538 10.7229 16.1538 10.7229 15.9717C10.7428 15.9115 10.7627 15.8514 10.7831 15.7895C10.8229 15.7895 10.8627 15.7895 10.9036 15.7895C10.9036 15.549 10.9036 15.3085 10.9036 15.0607Z" fill="#6A9BE8"/>
<path d="M11.988 20.7692C12.3259 20.7692 12.6639 20.7692 13.012 20.7692C12.9127 20.8494 12.8133 20.9295 12.7108 21.0121C12.6512 20.9921 12.5916 20.9721 12.5301 20.9514C12.5301 20.9113 12.5301 20.8713 12.5301 20.83C12.3512 20.83 12.1723 20.83 11.988 20.83C11.988 20.8099 11.988 20.7899 11.988 20.7692Z" fill="#0B1E36"/>
<path d="M11.8675 20.5263C11.9271 20.5463 11.9867 20.5664 12.0482 20.587C12.088 20.567 12.1277 20.547 12.1687 20.5263C12.1687 20.5664 12.1687 20.6065 12.1687 20.6478C12.3476 20.6678 12.5265 20.6878 12.7108 20.7085C12.7108 20.7285 12.7108 20.7486 12.7108 20.7692C12.4524 20.7692 12.194 20.7692 11.9277 20.7692C11.9078 20.6891 11.888 20.6089 11.8675 20.5263Z" fill="#5D8BD5"/>
<path d="M8.09535 13.4092C8.14987 13.4106 8.20438 13.412 8.26054 13.4134C8.34278 13.4151 8.34278 13.4151 8.42668 13.4168C8.46877 13.4182 8.51086 13.4196 8.55422 13.421C8.55422 13.4411 8.55422 13.4611 8.55422 13.4818C8.39518 13.4818 8.23615 13.4818 8.07229 13.4818C8.07229 13.6822 8.07229 13.8826 8.07229 14.0891C8.05241 14.0891 8.03253 14.0891 8.01205 14.0891C8.01205 13.9287 8.01205 13.7684 8.01205 13.6032C7.95241 13.5832 7.89277 13.5631 7.83133 13.5425C7.95181 13.421 7.95181 13.421 8.09535 13.4092ZM7.77109 13.6032C7.79097 13.6433 7.81085 13.6834 7.83133 13.7247C7.79157 13.7046 7.75181 13.6846 7.71085 13.664C7.73073 13.6439 7.7506 13.6239 7.77109 13.6032Z" fill="#6C9CE4"/>
<path d="M5.84337 9.2915C5.88313 9.31154 5.92289 9.33158 5.96386 9.35223C5.96386 9.45244 5.96386 9.55264 5.96386 9.65588C5.90422 9.68594 5.90422 9.68594 5.84337 9.71661C5.8235 9.65648 5.80362 9.59636 5.78313 9.53442C5.56446 9.51438 5.34578 9.49434 5.12048 9.47369C5.12048 9.45365 5.12048 9.43361 5.12048 9.41296C5.35904 9.41296 5.59759 9.41296 5.84337 9.41296C5.84337 9.37288 5.84337 9.3328 5.84337 9.2915Z" fill="#6199EA"/>
<path d="M8.19277 12.1458C8.35843 12.1268 8.35843 12.1268 8.55422 12.1458C8.79518 12.3887 8.79518 12.3887 8.79518 12.5709C8.75542 12.5709 8.71566 12.5709 8.6747 12.5709C8.65482 12.5107 8.63494 12.4506 8.61446 12.3887C8.55482 12.4288 8.49518 12.4688 8.43374 12.5101C8.43374 12.4099 8.43374 12.3097 8.43374 12.2065C8.35422 12.1865 8.2747 12.1664 8.19277 12.1458Z" fill="#6D9DE5"/>
<path d="M5.06024 9.83807C5.08012 9.83807 5.1 9.83807 5.12048 9.83807C5.12413 9.87541 5.12778 9.91276 5.13154 9.95123C5.13659 10.0003 5.14164 10.0494 5.14684 10.1C5.15173 10.1486 5.15662 10.1972 5.16166 10.2473C5.17787 10.3944 5.17787 10.3944 5.24096 10.5668C5.2012 10.6069 5.16144 10.647 5.12048 10.6883C4.98746 10.3728 5.00397 10.1671 5.06024 9.83807Z" fill="#6A9EDF"/>
<path d="M3.25301 15.668C3.27289 15.668 3.29277 15.668 3.31325 15.668C3.31325 15.7883 3.31325 15.9085 3.31325 16.0324C3.35301 16.0324 3.39277 16.0324 3.43374 16.0324C3.45362 16.1326 3.47349 16.2328 3.49398 16.336C3.32672 16.1946 3.25883 16.1161 3.20407 15.8996C3.20034 15.8432 3.19661 15.7868 3.19277 15.7288C3.21265 15.7087 3.23253 15.6887 3.25301 15.668Z" fill="#7197E5"/>
<path d="M8.07229 12.2065C8.11204 12.2065 8.1518 12.2065 8.19277 12.2065C8.13253 12.4494 8.13253 12.4494 8.07229 12.6923C8.03253 12.6923 7.99277 12.6923 7.9518 12.6923C7.89156 12.5101 7.89156 12.5101 7.97063 12.3469C8.00418 12.3006 8.03772 12.2542 8.07229 12.2065Z" fill="#55ACEC"/>
<path d="M7.89156 11.1741C8.04066 11.2041 8.04066 11.2041 8.19277 11.2348C8.19277 11.2749 8.19277 11.315 8.19277 11.3563C8.29217 11.3763 8.39156 11.3963 8.49397 11.417C8.39608 11.4625 8.39608 11.4625 8.25301 11.4777C8.05723 11.3638 8.05723 11.3638 7.89156 11.2348C7.89156 11.2148 7.89156 11.1947 7.89156 11.1741Z" fill="#6E9DE3"/>
<path d="M10.7229 9.35223C10.7605 9.4661 10.7605 9.4661 10.7831 9.59515C10.7434 9.63523 10.7036 9.67531 10.6627 9.71661C10.6428 9.65648 10.6229 9.59636 10.6024 9.53442C10.4434 9.51438 10.2843 9.49434 10.1205 9.47369C10.1205 9.45365 10.1205 9.43361 10.1205 9.41296C10.5874 9.35223 10.5874 9.35223 10.7229 9.35223Z" fill="#6297EA"/>
<path d="M0.481926 18.583C0.581324 18.583 0.680721 18.583 0.783131 18.583C0.80301 18.6632 0.82289 18.7433 0.843372 18.8259C0.783733 18.856 0.783733 18.856 0.72289 18.8867C0.602408 18.8031 0.602408 18.8031 0.481926 18.7045C0.481926 18.6644 0.481926 18.6243 0.481926 18.583Z" fill="#5AA9F9"/>
<path d="M17.2289 13.6639C17.378 13.694 17.378 13.694 17.5301 13.7247C17.5301 13.7848 17.5301 13.8449 17.5301 13.9069C17.4506 13.9269 17.3711 13.9469 17.2892 13.9676C17.2693 13.8674 17.2494 13.7672 17.2289 13.6639Z" fill="#68A7EE"/>
<path d="M2.71085 10.6882C2.94016 10.7759 3.02808 10.8916 3.13253 11.1133C3.11265 11.1534 3.09277 11.1935 3.07229 11.2348C2.77862 10.8932 2.77862 10.8932 2.71085 10.6882Z" fill="#6F99D9"/>
<path d="M16.506 17.4291C16.506 17.6295 16.506 17.8299 16.506 18.0364C16.4861 18.0364 16.4663 18.0364 16.4458 18.0364C16.4458 17.8961 16.4458 17.7559 16.4458 17.6113C16.3861 17.6314 16.3265 17.6514 16.2651 17.6721C16.2651 17.6119 16.2651 17.5518 16.2651 17.4899C16.4458 17.4291 16.4458 17.4291 16.506 17.4291Z" fill="#659BEB"/>
<path d="M0.640064 16.207C0.740704 16.2107 0.740704 16.2107 0.843377 16.2146C0.783739 16.3047 0.783739 16.3047 0.722895 16.3967C0.583739 16.3767 0.444582 16.3567 0.301208 16.336C0.42169 16.2146 0.42169 16.2146 0.640064 16.207Z" fill="#699AED"/>
<path d="M4.33735 11.1741C4.41686 11.1941 4.49638 11.2142 4.57831 11.2348C4.43403 11.4109 4.31852 11.4475 4.09638 11.4777C4.11626 11.4376 4.13614 11.3976 4.15662 11.3563C4.21626 11.3563 4.2759 11.3563 4.33735 11.3563C4.33735 11.2961 4.33735 11.236 4.33735 11.1741Z" fill="#669BE5"/>
</g>
<defs>
<clipPath id="clip0_270_6176">
<rect width="30" height="30" fill="white"/>
</clipPath>
</defs>
</svg>
