<svg width="30" height="30" viewBox="0 0 30 30" fill="none" xmlns="http://www.w3.org/2000/svg">
<path d="M17.88 6.05496L21.445 9.61996M8.75 8.74996H5C4.66848 8.74996 4.35054 8.88166 4.11612 9.11608C3.8817 9.3505 3.75 9.66844 3.75 9.99996V22.5C3.75 22.8315 3.8817 23.1494 4.11612 23.3838C4.35054 23.6183 4.66848 23.75 5 23.75H18.75C19.0815 23.75 19.3995 23.6183 19.6339 23.3838C19.8683 23.1494 20 22.8315 20 22.5V16.875M23.0113 4.48746C23.2455 4.72159 23.4313 4.99958 23.558 5.30553C23.6848 5.61148 23.75 5.93941 23.75 6.27059C23.75 6.60176 23.6848 6.92969 23.558 7.23565C23.4313 7.5416 23.2455 7.81958 23.0113 8.05371L14.4562 16.6087L10 17.5L10.8913 13.0437L19.4463 4.48871C19.6802 4.25438 19.958 4.06848 20.2639 3.94164C20.5698 3.8148 20.8976 3.74951 21.2287 3.74951C21.5599 3.74951 21.8877 3.8148 22.1936 3.94164C22.4995 4.06848 22.7773 4.25438 23.0113 4.48871V4.48746Z" stroke="black" stroke-width="2" stroke-linecap="round" stroke-linejoin="round"/>
</svg>
