<svg width="30" height="30" viewBox="0 0 30 30" fill="none" xmlns="http://www.w3.org/2000/svg">
<g clip-path="url(#clip0_257_7711)">
<path d="M29.2332 10.9935C29.0391 10.7652 28.7675 10.6262 28.4687 10.6022C28.1698 10.5778 27.8797 10.6718 27.6515 10.8662L26.7988 11.5919C26.5305 11.1016 26.3857 10.5464 26.3857 9.98499V7.4089H26.8706C27.0904 7.4089 27.2686 7.23066 27.2686 7.01086V6.09466C27.2686 4.77812 26.1975 3.707 24.8809 3.707H18.3106C16.9941 3.707 15.923 4.77812 15.923 6.09466V7.01086C15.923 7.23066 16.1011 7.4089 16.321 7.4089H16.8057V9.97432C16.8057 10.5061 16.6756 11.0325 16.4337 11.5034L15.6849 10.8662C15.4567 10.6719 15.1665 10.5782 14.8677 10.6022C14.5689 10.6262 14.2974 10.7651 14.1031 10.9935C13.7022 11.4646 13.7592 12.1741 14.2304 12.5753L15.2417 13.436C14.8005 14.3875 14.5643 15.4318 14.5643 16.4859V17.6196H0.897727C0.780784 17.6196 0.669811 17.6711 0.594184 17.7602C0.518637 17.8494 0.485998 17.9674 0.505104 18.0826L2.42133 29.667C2.45309 29.8592 2.61923 30.0001 2.81403 30.0001H16.5611H16.6517H26.6309C27.7317 30.0001 28.6273 29.1045 28.6273 28.0036V16.4962C28.6273 15.4717 28.4046 14.4568 27.9874 13.5273L29.1062 12.5752C29.5771 12.1741 29.6342 11.4646 29.2332 10.9935ZM16.7191 6.09466C16.7191 5.21707 17.4331 4.50307 18.3107 4.50307H24.881C25.7586 4.50307 26.4726 5.21707 26.4726 6.09466V6.61283H16.7191V6.09466ZM25.5898 7.4089V8.60078H17.6019V7.4089H25.5898ZM14.7464 11.969C14.6095 11.8524 14.593 11.6462 14.7095 11.5093C14.766 11.443 14.8448 11.4026 14.9316 11.3956C15.0184 11.3884 15.1027 11.4158 15.1691 11.4723L15.9918 12.1725C15.8613 12.3485 15.7389 12.5302 15.6253 12.717L14.7464 11.969ZM18.0985 18.4156L17.7198 20.7049H1.7457L1.36701 18.4156H18.0985ZM16.3139 29.2039H3.15157L1.87737 21.501H17.5881L16.3139 29.2039ZM27.8312 28.0035C27.8312 28.6654 27.2926 29.2039 26.6308 29.2039H17.1208L18.9605 18.0826C18.9796 17.9672 18.9469 17.8493 18.8714 17.7602C18.7958 17.671 18.6847 17.6196 18.5678 17.6196H15.3605V16.4858C15.3605 15.0697 15.8368 13.6723 16.7019 12.5509L16.7409 12.5003C17.2962 11.7805 17.6019 10.8834 17.6019 9.97432V9.39693H25.5898V9.98499C25.5898 10.8981 25.8981 11.7984 26.4577 12.5198L26.4792 12.5475C27.3511 13.6715 27.8312 15.0738 27.8312 16.4963V28.0035ZM28.5901 11.969L27.6123 12.8012C27.5008 12.6129 27.3798 12.43 27.2512 12.2522L28.1676 11.4723C28.2339 11.4159 28.3181 11.3885 28.4049 11.3957C28.4917 11.4027 28.5706 11.4431 28.627 11.5094C28.7436 11.6462 28.7269 11.8524 28.5901 11.969Z" fill="#172133"/>
<path d="M19.0308 3.04593H20.2446C20.363 3.04593 20.4752 2.99323 20.5509 2.90216C20.6266 2.81109 20.6577 2.69112 20.6359 2.57474L20.4414 1.53427C20.4173 1.3491 20.4735 1.1625 20.5961 1.02136C20.7204 0.878227 20.9003 0.796073 21.09 0.796073H22.1017C22.2913 0.796073 22.4714 0.878227 22.5956 1.02136C22.7191 1.16346 22.7752 1.35157 22.7499 1.53793L22.5559 2.57458C22.5341 2.69096 22.5652 2.81101 22.6408 2.90208C22.7164 2.99323 22.8287 3.04593 22.9471 3.04593H24.1856C24.4055 3.04593 24.5837 2.86769 24.5837 2.6479C24.5837 2.4281 24.4055 2.24986 24.1856 2.24986H23.4267L23.5318 1.68855C23.5323 1.68576 23.5329 1.68298 23.5333 1.68019L23.5362 1.66276C23.5367 1.65973 23.5372 1.65679 23.5376 1.65376C23.5966 1.23757 23.4724 0.81685 23.1968 0.499456C22.9212 0.182062 22.522 0 22.1017 0H21.09C20.6697 0 20.2706 0.182062 19.995 0.499376C19.7194 0.816771 19.5952 1.2375 19.6542 1.65368C19.655 1.65949 19.6559 1.66522 19.657 1.67096L19.7652 2.24978H19.0308C18.8109 2.24978 18.6327 2.42802 18.6327 2.64782C18.6327 2.86761 18.811 3.04593 19.0308 3.04593Z" fill="#172133"/>
<path d="M2.47566 8.12517C2.59706 8.27332 2.60072 8.48866 2.48449 8.64898L1.82184 9.56335C1.59337 9.87844 1.5015 10.2649 1.56312 10.6513C1.62474 11.0377 1.83227 11.3763 2.14744 11.6047C2.4626 11.8332 2.84894 11.9248 3.23535 11.8634C3.62176 11.8018 3.96025 11.5943 4.18881 11.2791L4.88322 10.321C4.99571 10.1658 5.19719 10.1009 5.37519 10.1638C5.38355 10.1668 5.39215 10.1696 5.40154 10.1724C5.4907 10.2035 5.5809 10.2328 5.67006 10.2598C5.67906 10.2628 5.68813 10.2657 5.69737 10.2685C5.87967 10.3226 6.00473 10.4964 6.00154 10.6911L5.97551 12.28C5.9623 13.0858 6.60728 13.7521 7.41314 13.7653C7.42134 13.7654 7.4293 13.7655 7.43742 13.7655C8.2323 13.7655 8.88548 13.1255 8.89853 12.3277L8.92448 10.7389C8.92767 10.5441 9.05838 10.3746 9.24228 10.3265C9.25143 10.3241 9.26059 10.3215 9.27038 10.3184C9.36025 10.2945 9.45133 10.2681 9.54128 10.2402C9.55028 10.2376 9.55943 10.2351 9.56914 10.232C9.74731 10.1752 9.94688 10.2468 10.0543 10.4054L10.7171 11.3858C11.1687 12.0535 12.0791 12.2292 12.7466 11.7779C13.0691 11.5599 13.2875 11.2283 13.3618 10.8442C13.4361 10.4601 13.3569 10.0709 13.1388 9.74844L12.5061 8.81266C12.3954 8.64898 12.4087 8.43118 12.5381 8.28303C12.5422 8.27833 12.5461 8.27364 12.55 8.26878C13.4914 7.18533 14.0429 5.8574 14.1452 4.42646C14.1531 4.31628 14.1148 4.2077 14.0395 4.12681C13.9643 4.04593 13.8587 4 13.7482 4H1.39801C1.28752 4 1.18204 4.04593 1.10673 4.12673C1.0315 4.20762 0.993132 4.31612 1.00101 4.4263C1.09766 5.78225 1.60404 7.05644 2.46571 8.11259C2.46897 8.11681 2.47224 8.12103 2.47566 8.12517Z" fill="#172133"/>
</g>
<defs>
<clipPath id="clip0_257_7711">
<rect width="30" height="30" fill="white"/>
</clipPath>
</defs>
</svg>
