<svg width="267" height="267" viewBox="0 0 267 267" fill="none" xmlns="http://www.w3.org/2000/svg">
<path d="M96.5992 83.2208H143.335M102.441 83.2208V99.5139C102.441 104.128 101.075 108.638 98.5154 112.477L94.6831 118.226C92.1223 122.066 90.7563 126.579 90.7573 131.195V188.375C90.7573 191.474 91.9883 194.446 94.1794 196.637C96.3706 198.828 99.3424 200.059 102.441 200.059H137.493C140.591 200.059 143.563 198.828 145.754 196.637C147.945 194.446 149.176 191.474 149.176 188.375M149.176 131.189C149.176 126.575 147.81 122.064 145.251 118.226L141.418 112.477C138.858 108.637 137.492 104.124 137.493 99.5081V83.2208M90.7573 159.165C95.3826 157.228 100.347 156.23 105.362 156.23C110.377 156.23 115.342 157.228 119.967 159.165C124.592 161.103 129.557 162.101 134.572 162.101" stroke="white" stroke-width="11.6838" stroke-linecap="round" stroke-linejoin="round"/>
<mask id="mask0_202_4985" style="mask-type:luminance" maskUnits="userSpaceOnUse" x="32" y="159" width="43" height="47">
<path d="M34.6753 180.326H61.6779V203.174H34.6753V180.326Z" fill="white" stroke="white" stroke-width="4.15425" stroke-linecap="round" stroke-linejoin="round"/>
<path d="M42.9841 196.943V186.558L48.1769 192.789L53.3697 186.558V196.943" stroke="black" stroke-width="4.15425" stroke-linecap="round" stroke-linejoin="round"/>
<path d="M72.0639 178.249L59.6012 167.864M59.6012 167.864L49.2156 169.941V163.709L59.6012 161.632V167.864Z" stroke="white" stroke-width="4.15425" stroke-linecap="round" stroke-linejoin="round"/>
<path d="M61.678 180.327L72.0636 178.25V200.06L61.678 203.175V180.327Z" fill="white" stroke="white" stroke-width="4.15425" stroke-linecap="round" stroke-linejoin="round"/>
<path d="M48.6772 169.941L34.6753 180.327H61.6779L48.6772 169.941Z" stroke="white" stroke-width="4.15425" stroke-linecap="round" stroke-linejoin="round"/>
</mask>
<g mask="url(#mask0_202_4985)">
<path d="M28.4438 157.478H78.2948V207.329H28.4438V157.478Z" fill="white"/>
</g>
<path fill-rule="evenodd" clip-rule="evenodd" d="M183.79 184.394H195.474C195.475 185.315 195.597 186.205 195.84 187.065C195.326 187.278 194.917 187.685 194.702 188.198C194.488 188.712 194.485 189.289 194.695 189.804L194.784 190.024C195.019 190.597 195.472 191.054 196.043 191.294C196.615 191.534 197.258 191.536 197.831 191.302L198.091 191.194C198.899 192.134 199.871 192.97 200.972 193.671C200.362 194.809 200.778 196.242 201.916 196.854C202.462 197.147 203.102 197.211 203.695 197.033C204.289 196.854 204.787 196.447 205.08 195.901L205.274 195.541C206.817 195.944 208.41 196.123 210.004 196.071L210.064 196.387C210.116 196.694 210.229 196.988 210.396 197.25C210.563 197.513 210.781 197.74 211.037 197.918C211.293 198.095 211.582 198.219 211.887 198.284C212.192 198.348 212.507 198.35 212.812 198.291C213.118 198.232 213.409 198.112 213.668 197.939C213.927 197.766 214.149 197.542 214.32 197.282C214.491 197.022 214.609 196.73 214.666 196.424C214.723 196.118 214.718 195.803 214.651 195.499L214.609 195.277C216.645 194.63 218.508 193.534 220.063 192.071L220.79 200.785C220.212 200.882 219.693 201.193 219.334 201.656C218.974 202.119 218.802 202.699 218.851 203.283C218.9 203.867 219.166 204.411 219.597 204.808C220.028 205.204 220.592 205.425 221.178 205.425H228.188V163.364C228.199 160.191 227.155 157.105 225.221 154.591C226.681 154.984 227.7 155.556 228.422 156.25C229.723 157.501 230.525 159.606 230.525 163.364L231.429 176.029C230.878 176.882 230.525 178.218 230.525 179.721C230.525 182.303 231.57 184.394 232.862 184.394C234.154 184.394 235.199 182.303 235.199 179.721C235.199 178.218 234.843 176.882 234.294 176.029L235.199 163.364C235.199 159.078 234.304 155.419 231.661 152.879C229.051 150.371 225.221 149.427 220.507 149.348C220.33 149.343 215.467 149.343 215.336 149.343V149.359C215.12 149.349 214.903 149.343 214.686 149.343H180.285C175.763 149.343 172.351 148.67 169.486 147.782L169.131 147.301C170.697 146.903 172.274 146.268 173.407 145.431C176.373 143.249 178.097 138.858 174.298 139.339C173.195 139.48 172.396 139.508 171.746 139.531C170.159 139.585 169.456 139.61 167.353 141.16C166.495 141.791 165.743 142.468 165.131 143.139C161.862 140.709 157.508 139.622 149.907 139.996C149.597 139.996 149.3 140.119 149.08 140.338C148.861 140.557 148.738 140.854 148.738 141.164C148.738 141.474 148.861 141.771 149.08 141.99C149.3 142.21 149.597 142.333 149.907 142.333H153.966C154.632 142.763 155.204 143.165 155.711 143.548L147.336 154.017H146.841C146.112 154.016 145.393 154.187 144.742 154.514C144.091 154.841 143.525 155.316 143.09 155.9C142.655 156.485 142.363 157.163 142.237 157.881C142.111 158.598 142.154 159.336 142.364 160.034L143.065 162.37C143.354 163.333 143.945 164.177 144.752 164.777C145.558 165.377 146.537 165.701 147.542 165.7H155.396C156.384 165.7 157.347 166.014 158.146 166.595L163.264 170.315C163.419 170.428 163.577 170.529 163.738 170.619C167.4 180.06 171.262 187.411 175.585 191.11L176.392 200.785C175.814 200.882 175.294 201.193 174.935 201.656C174.576 202.119 174.404 202.699 174.453 203.283C174.501 203.867 174.768 204.411 175.198 204.808C175.629 205.204 176.194 205.425 176.779 205.425H183.79V184.394ZM206.713 184.394H200.147C200.147 187.502 203.498 191.405 209.494 191.405C211.716 191.405 213.576 190.867 215.037 190.035C211.695 188.703 209.104 186.722 206.716 184.394" fill="white"/>
<path d="M210.744 231.803C213.638 235.485 218.989 236.144 222.481 233.023C241.029 216.439 254.619 194.957 261.634 170.968C269.444 144.26 268.713 115.779 259.543 89.5063C250.373 63.2339 233.222 40.4835 210.489 24.4359C187.755 8.38833 160.576 -0.154378 132.749 0.00211104C104.923 0.1586 77.8408 9.00646 55.2894 25.3087C32.7379 41.611 15.8443 64.5528 6.97029 90.9267C-1.90371 117.301 -2.3145 145.788 5.79536 172.407C13.0795 196.316 26.9104 217.643 45.6445 234.017C49.1706 237.099 54.5143 236.38 57.3662 232.665V232.665C60.2181 228.951 59.495 223.65 55.9975 220.535C40.0533 206.338 28.272 187.991 22.0184 167.465C14.9388 144.227 15.2974 119.359 23.0441 96.3351C30.7908 73.3116 45.5383 53.2842 65.2249 39.0529C84.9115 24.8216 108.553 17.0977 132.845 16.9611C157.136 16.8245 180.863 24.282 200.709 38.291C220.554 52.3 235.526 72.1602 243.531 95.0951C251.536 118.03 252.174 142.893 245.357 166.209C239.334 186.804 227.76 205.282 211.977 219.658C208.514 222.811 207.851 228.12 210.744 231.803V231.803Z" fill="white"/>
</svg>
