<svg width="15" height="15" viewBox="0 0 15 15" fill="none" xmlns="http://www.w3.org/2000/svg">
<g clip-path="url(#clip0_236_101)">
<path d="M5 1.25H10M5.625 1.25V2.99313C5.62499 3.48674 5.47885 3.96931 5.205 4.38L4.795 4.995C4.52103 5.40587 4.37489 5.88867 4.375 6.3825V12.5C4.375 12.8315 4.5067 13.1495 4.74112 13.3839C4.97554 13.6183 5.29348 13.75 5.625 13.75H9.375C9.70652 13.75 10.0245 13.6183 10.2589 13.3839C10.4933 13.1495 10.625 12.8315 10.625 12.5V6.38188C10.625 5.88826 10.4788 5.40569 10.205 4.995L9.795 4.38C9.52103 3.96913 9.37489 3.48633 9.375 2.9925V1.25" stroke="black" stroke-width="3" stroke-linecap="round" stroke-linejoin="round"/>
<path d="M4.375 9.37498C4.86984 9.16768 5.40099 9.06091 5.9375 9.06091C6.47401 9.06091 7.00516 9.16768 7.5 9.37498C7.99484 9.58229 8.52599 9.68905 9.0625 9.68905C9.59901 9.68905 10.1302 9.58229 10.625 9.37498" stroke="black" stroke-width="3" stroke-linecap="round" stroke-linejoin="round"/>
</g>
<defs>
<clipPath id="clip0_236_101">
<rect width="15" height="15" fill="white"/>
</clipPath>
</defs>
</svg>
