<svg width="30" height="30" viewBox="0 0 30 30" fill="none" xmlns="http://www.w3.org/2000/svg">
<path d="M16.25 20H8.75001C8.41849 20 8.10055 20.1317 7.86613 20.3661C7.63171 20.6005 7.50001 20.9184 7.50001 21.25C7.50001 21.5815 7.63171 21.8994 7.86613 22.1338C8.10055 22.3683 8.41849 22.5 8.75001 22.5H16.25C16.5815 22.5 16.8995 22.3683 17.1339 22.1338C17.3683 21.8994 17.5 21.5815 17.5 21.25C17.5 20.9184 17.3683 20.6005 17.1339 20.3661C16.8995 20.1317 16.5815 20 16.25 20ZM11.25 12.5H13.75C14.0815 12.5 14.3995 12.3683 14.6339 12.1338C14.8683 11.8994 15 11.5815 15 11.25C15 10.9184 14.8683 10.6005 14.6339 10.3661C14.3995 10.1317 14.0815 9.99996 13.75 9.99996H11.25C10.9185 9.99996 10.6005 10.1317 10.3661 10.3661C10.1317 10.6005 10 10.9184 10 11.25C10 11.5815 10.1317 11.8994 10.3661 12.1338C10.6005 12.3683 10.9185 12.5 11.25 12.5ZM26.25 15H22.5V3.74996C22.5009 3.5297 22.4435 3.31312 22.3338 3.12215C22.224 2.93117 22.0658 2.77259 21.875 2.66246C21.685 2.55275 21.4694 2.495 21.25 2.495C21.0306 2.495 20.815 2.55275 20.625 2.66246L16.875 4.81246L13.125 2.66246C12.935 2.55275 12.7194 2.495 12.5 2.495C12.2806 2.495 12.065 2.55275 11.875 2.66246L8.12501 4.81246L4.37501 2.66246C4.18499 2.55275 3.96943 2.495 3.75001 2.495C3.53059 2.495 3.31503 2.55275 3.12501 2.66246C2.93425 2.77259 2.77599 2.93117 2.66623 3.12215C2.55648 3.31312 2.49914 3.5297 2.50001 3.74996V23.75C2.50001 24.7445 2.8951 25.6984 3.59836 26.4016C4.30162 27.1049 5.25545 27.5 6.25001 27.5H23.75C24.7446 27.5 25.6984 27.1049 26.4017 26.4016C27.1049 25.6984 27.5 24.7445 27.5 23.75V16.25C27.5 15.9184 27.3683 15.6005 27.1339 15.3661C26.8995 15.1317 26.5815 15 26.25 15ZM6.25001 25C5.91849 25 5.60055 24.8683 5.36613 24.6338C5.13171 24.3994 5.00001 24.0815 5.00001 23.75V5.91246L7.50001 7.33746C7.69293 7.43823 7.90736 7.49085 8.12501 7.49085C8.34266 7.49085 8.55709 7.43823 8.75001 7.33746L12.5 5.18746L16.25 7.33746C16.4429 7.43823 16.6574 7.49085 16.875 7.49085C17.0927 7.49085 17.3071 7.43823 17.5 7.33746L20 5.91246V23.75C20.0034 24.1764 20.0795 24.5991 20.225 25H6.25001ZM25 23.75C25 24.0815 24.8683 24.3994 24.6339 24.6338C24.3995 24.8683 24.0815 25 23.75 25C23.4185 25 23.1005 24.8683 22.8661 24.6338C22.6317 24.3994 22.5 24.0815 22.5 23.75V17.5H25V23.75ZM16.25 15H8.75001C8.41849 15 8.10055 15.1317 7.86613 15.3661C7.63171 15.6005 7.50001 15.9184 7.50001 16.25C7.50001 16.5815 7.63171 16.8994 7.86613 17.1338C8.10055 17.3683 8.41849 17.5 8.75001 17.5H16.25C16.5815 17.5 16.8995 17.3683 17.1339 17.1338C17.3683 16.8994 17.5 16.5815 17.5 16.25C17.5 15.9184 17.3683 15.6005 17.1339 15.3661C16.8995 15.1317 16.5815 15 16.25 15Z" fill="black"/>
</svg>
