<svg width="30" height="30" viewBox="0 0 30 30" fill="none" xmlns="http://www.w3.org/2000/svg">
<path d="M9.26127 4.1511C9.31153 4.15093 9.3618 4.15076 9.41359 4.15059C9.5518 4.15021 9.69 4.15023 9.82822 4.15042C9.97778 4.15053 10.1274 4.15013 10.2769 4.14979C10.5694 4.14923 10.8619 4.14915 11.1544 4.14925C11.3923 4.14933 11.6301 4.14926 11.868 4.14907C11.9189 4.14903 11.9189 4.14903 11.9708 4.14899C12.0397 4.14893 12.1087 4.14888 12.1776 4.14883C12.8232 4.14834 13.4688 4.14844 14.1144 4.14871C14.7043 4.14894 15.2941 4.14844 15.884 4.1476C16.4906 4.14674 17.0972 4.14637 17.7038 4.14654C18.044 4.14663 18.3842 4.14652 18.7244 4.14589C19.014 4.14536 19.3036 4.1453 19.5931 4.14584C19.7407 4.1461 19.8883 4.14615 20.0358 4.14561C20.1962 4.14515 20.3566 4.14551 20.5169 4.14607C20.586 4.14558 20.586 4.14558 20.6565 4.14508C21.2833 4.14967 21.8853 4.34999 22.3451 4.80998C23.029 5.60047 23.0347 6.43105 23.0345 7.44465C23.0346 7.53907 23.0347 7.63348 23.0349 7.7279C23.0353 7.98314 23.0354 8.23838 23.0354 8.49362C23.0354 8.65314 23.0355 8.81266 23.0356 8.97218C23.036 9.52878 23.0362 10.0854 23.0362 10.642C23.0361 11.1608 23.0366 11.6797 23.0373 12.1985C23.0378 12.6443 23.038 13.0901 23.038 13.5359C23.038 13.8021 23.0381 14.0682 23.0386 14.3343C23.039 14.5843 23.039 14.8342 23.0387 15.0841C23.0386 15.1759 23.0387 15.2677 23.039 15.3594C23.0393 15.4846 23.0391 15.6097 23.0388 15.7348C23.039 15.7712 23.0392 15.8076 23.0394 15.8452C23.038 16.0879 23.0133 16.2542 22.8672 16.4442C22.7574 16.5363 22.7041 16.5626 22.5634 16.5661C22.3926 16.5136 22.2957 16.4778 22.1962 16.3203C22.1262 16.1272 22.1231 15.966 22.1247 15.7614C22.1245 15.7209 22.1243 15.6805 22.1241 15.6388C22.1236 15.5034 22.124 15.368 22.1244 15.2326C22.1243 15.1355 22.124 15.0383 22.1238 14.9412C22.1233 14.7321 22.1232 14.5229 22.1234 14.3138C22.1236 13.983 22.123 13.6522 22.1222 13.3214C22.1211 12.8575 22.1204 12.3937 22.1201 11.9298C22.12 11.9004 22.12 11.8709 22.12 11.8406C22.1198 11.6319 22.1197 11.4231 22.1196 11.2143C22.1194 10.9761 22.1193 10.7378 22.1191 10.4996C22.1191 10.4556 22.1191 10.4556 22.119 10.4106C22.1187 9.92073 22.1178 9.43081 22.1166 8.94089C22.1158 8.61218 22.1156 8.28348 22.116 7.95476C22.116 7.75007 22.1156 7.54537 22.115 7.34067C22.1148 7.2459 22.1148 7.15114 22.1151 7.05637C22.1155 6.92674 22.1151 6.79714 22.1144 6.66751C22.1147 6.63024 22.115 6.59297 22.1153 6.55458C22.1116 6.14291 21.9941 5.78906 21.718 5.49158C21.1652 5.02334 20.724 5.12323 19.9428 5.0929C19.9428 11.7296 19.9428 18.3663 19.9428 25.2041C20.9825 25.2131 20.9825 25.2131 21.8026 24.7169C22.1008 24.3273 22.1108 23.9379 22.1099 23.4555C22.1101 23.3951 22.1103 23.3348 22.1106 23.2744C22.1111 23.145 22.1113 23.0155 22.1113 22.886C22.1114 22.6813 22.1122 22.4765 22.1131 22.2717C22.1151 21.7633 22.1164 21.2549 22.1173 20.7465C22.118 20.3509 22.119 19.9553 22.1208 19.5598C22.1218 19.3563 22.1221 19.1528 22.122 18.9492C22.1221 18.8227 22.1227 18.6961 22.1234 18.5695C22.1238 18.483 22.1235 18.3964 22.1232 18.3099C22.1236 18.2582 22.124 18.2065 22.1244 18.1533C22.1245 18.1085 22.1246 18.0637 22.1247 18.0175C22.1481 17.8383 22.223 17.7218 22.3415 17.5932C22.4817 17.5156 22.5763 17.5176 22.7325 17.5406C22.8906 17.6695 22.9663 17.7865 23.0283 17.9836C23.039 18.0996 23.039 18.0996 23.0391 18.2261C23.0393 18.2742 23.0395 18.3224 23.0398 18.372C23.0395 18.4507 23.0395 18.4507 23.0393 18.5309C23.0395 18.6142 23.0395 18.6142 23.0397 18.6993C23.04 18.8515 23.04 19.0037 23.0397 19.156C23.0395 19.3159 23.0397 19.4759 23.0398 19.6359C23.04 19.9049 23.0398 20.174 23.0394 20.4431C23.0389 20.7526 23.039 21.0621 23.0395 21.3717C23.0399 21.6384 23.0399 21.9051 23.0397 22.1719C23.0396 22.3307 23.0396 22.4896 23.0399 22.6484C23.043 24.6961 23.043 24.6961 22.3479 25.4815C21.8744 25.9543 21.3388 26.1034 20.7034 26.103C20.6276 26.1035 20.6277 26.1035 20.5504 26.104C20.4109 26.1048 20.2714 26.1052 20.132 26.1054C19.9813 26.1058 19.8306 26.1066 19.6799 26.1074C19.3849 26.1089 19.09 26.1098 18.795 26.1107C18.5551 26.1113 18.3152 26.1122 18.0753 26.1131C18.0412 26.1133 18.007 26.1134 17.9718 26.1135C17.9023 26.1138 17.8329 26.1141 17.7634 26.1144C17.1125 26.117 16.4616 26.119 15.8107 26.1209C15.2529 26.1225 14.6951 26.1246 14.1373 26.127C13.4889 26.1298 12.8405 26.1324 12.1922 26.1344C12.1229 26.1346 12.0537 26.1349 11.9844 26.1351C11.9504 26.1352 11.9163 26.1353 11.8812 26.1354C11.6419 26.1362 11.4025 26.1372 11.1632 26.1383C10.8711 26.1396 10.5791 26.1406 10.287 26.1411C10.1382 26.1414 9.98936 26.1419 9.84051 26.1427C9.67875 26.1435 9.517 26.1438 9.35523 26.144C9.30875 26.1443 9.26227 26.1447 9.21438 26.1451C8.67544 26.1441 8.21194 26.0737 7.76965 25.7357C7.74568 25.7176 7.72171 25.6995 7.69701 25.6809C7.35086 25.3984 7.13514 24.9593 7.06945 24.5084C7.03821 24.1856 7.04513 23.8607 7.04545 23.5366C7.04537 23.4614 7.04527 23.3862 7.04516 23.3109C7.0449 23.1047 7.04491 22.8986 7.04496 22.6924C7.04496 22.4698 7.04473 22.2473 7.04453 22.0247C7.04418 21.5888 7.04406 21.153 7.04404 20.7172C7.04402 20.3629 7.04393 20.0086 7.0438 19.6542C7.04343 18.6493 7.04323 17.6444 7.04326 16.6395C7.04327 16.5854 7.04327 16.5312 7.04327 16.4755C7.04327 16.4212 7.04327 16.367 7.04327 16.3112C7.04329 15.4324 7.04289 14.5537 7.04229 13.6749C7.04168 12.7723 7.04139 11.8696 7.04143 10.967C7.04144 10.4604 7.04133 9.95376 7.04087 9.44714C7.04049 9.01582 7.04039 8.58451 7.04068 8.1532C7.04082 7.93324 7.04082 7.71328 7.04046 7.49332C7.04012 7.29174 7.04018 7.09017 7.04055 6.88859C7.04062 6.81589 7.04054 6.74318 7.0403 6.67048C7.03807 5.93299 7.09083 5.262 7.59282 4.6963C8.07587 4.22585 8.62374 4.14879 9.26127 4.1511ZM15.0397 5.0929C15.0397 11.7296 15.0397 18.3663 15.0397 25.2041C15.5279 25.2041 16.0161 25.2041 16.5191 25.2041C16.5191 18.5674 16.5191 11.9307 16.5191 5.0929C16.0309 5.0929 15.5427 5.0929 15.0397 5.0929ZM17.3644 5.0929C17.3644 11.7296 17.3644 18.3663 17.3644 25.2041C17.9363 25.2041 18.5082 25.2041 19.0974 25.2041C19.0974 18.5674 19.0974 11.9307 19.0974 5.0929C18.5255 5.0929 17.9537 5.0929 17.3644 5.0929Z" fill="#92949A"/>
<path d="M9.26127 4.1511C9.31153 4.15093 9.3618 4.15076 9.41359 4.15059C9.5518 4.15021 9.69 4.15023 9.82822 4.15042C9.97778 4.15053 10.1274 4.15013 10.2769 4.14979C10.5694 4.14923 10.8619 4.14915 11.1544 4.14925C11.3923 4.14933 11.6301 4.14926 11.868 4.14907C11.9189 4.14903 11.9189 4.14903 11.9708 4.14899C12.0397 4.14893 12.1087 4.14888 12.1776 4.14883C12.8232 4.14834 13.4688 4.14844 14.1144 4.14871C14.7043 4.14894 15.2941 4.14844 15.884 4.1476C16.4906 4.14674 17.0972 4.14637 17.7038 4.14654C18.044 4.14663 18.3842 4.14652 18.7244 4.14589C19.014 4.14536 19.3036 4.1453 19.5931 4.14584C19.7407 4.1461 19.8883 4.14615 20.0358 4.14561C20.1962 4.14515 20.3566 4.14551 20.5169 4.14607C20.586 4.14558 20.586 4.14558 20.6565 4.14508C21.2833 4.14967 21.8853 4.34999 22.3451 4.80998C23.029 5.60047 23.0347 6.43105 23.0345 7.44465C23.0346 7.53907 23.0347 7.63348 23.0349 7.7279C23.0353 7.98314 23.0354 8.23838 23.0354 8.49362C23.0354 8.65314 23.0355 8.81266 23.0356 8.97218C23.036 9.52878 23.0362 10.0854 23.0362 10.642C23.0361 11.1608 23.0366 11.6797 23.0373 12.1985C23.0378 12.6443 23.038 13.0901 23.038 13.5359C23.038 13.8021 23.0381 14.0682 23.0386 14.3343C23.039 14.5843 23.039 14.8342 23.0387 15.0841C23.0386 15.1759 23.0387 15.2677 23.039 15.3594C23.0393 15.4846 23.0391 15.6097 23.0388 15.7348C23.039 15.7712 23.0392 15.8076 23.0394 15.8452C23.038 16.0879 23.0139 17.94 23.0139 17.94C23.0139 17.94 22.8732 17.5372 22.7325 17.5406C22.5617 17.4882 22.1247 18.0175 22.1247 18.0175C22.1247 18.0175 22.1231 15.966 22.1247 15.7614C22.1245 15.7209 22.1243 15.6805 22.1241 15.6388C22.1236 15.5034 22.124 15.368 22.1244 15.2326C22.1243 15.1355 22.124 15.0383 22.1238 14.9412C22.1233 14.7321 22.1232 14.5229 22.1234 14.3138C22.1236 13.983 22.123 13.6522 22.1221 13.3214C22.1211 12.8575 22.1204 12.3937 22.1201 11.9298C22.12 11.9004 22.12 11.8709 22.12 11.8406C22.1198 11.6319 22.1197 11.4231 22.1196 11.2143C22.1194 10.9761 22.1193 10.7378 22.1191 10.4996C22.1191 10.4556 22.1191 10.4556 22.119 10.4106C22.1187 9.92073 22.1178 9.43081 22.1166 8.94089C22.1158 8.61218 22.1156 8.28348 22.1159 7.95476C22.116 7.75006 22.1156 7.54537 22.115 7.34067C22.1148 7.2459 22.1148 7.15114 22.1151 7.05637C22.1155 6.92674 22.1151 6.79714 22.1144 6.66751C22.1147 6.63024 22.115 6.59297 22.1153 6.55458C22.1116 6.14291 21.9941 5.78906 21.718 5.49158C21.1652 5.02334 20.724 5.12323 19.9428 5.0929C19.9428 11.7296 19.9428 18.3663 19.9428 25.2041C20.9825 25.2131 20.9825 25.2131 21.8026 24.7169C22.1008 24.3273 22.1108 23.9379 22.1099 23.4555C22.1101 23.3951 22.1103 23.3348 22.1106 23.2744C22.1111 23.145 22.1113 23.0155 22.1113 22.886C22.1114 22.6813 22.1122 22.4765 22.1131 22.2717C22.1151 21.7633 22.1164 21.2549 22.1173 20.7465C22.118 20.3509 22.119 19.9553 22.1208 19.5598C22.1218 19.3563 22.1221 19.1528 22.122 18.9492C22.1221 18.8227 22.1227 18.6961 22.1234 18.5695C22.1238 18.483 22.1235 18.3964 22.1232 18.3099C22.1236 18.2582 22.124 18.2065 22.1244 18.1533C22.1245 18.1085 22.1247 18.0175 22.1247 18.0175C22.1247 18.0175 22.223 17.7218 22.3415 17.5932C22.4817 17.5156 22.5763 17.5176 22.7325 17.5406C22.8906 17.6695 22.9663 17.7865 23.0283 17.9836C23.039 18.0996 23.039 18.0996 23.0391 18.2261C23.0393 18.2742 23.0395 18.3224 23.0398 18.372C23.0395 18.4507 23.0395 18.4507 23.0393 18.5309C23.0395 18.6142 23.0395 18.6142 23.0397 18.6993C23.04 18.8515 23.04 19.0037 23.0397 19.156C23.0395 19.3159 23.0397 19.4759 23.0398 19.6359C23.04 19.9049 23.0398 20.174 23.0394 20.4431C23.0389 20.7526 23.039 21.0621 23.0395 21.3717C23.0399 21.6384 23.0399 21.9051 23.0397 22.1719C23.0396 22.3307 23.0396 22.4896 23.0399 22.6484C23.043 24.6961 23.043 24.6961 22.3479 25.4815C21.8744 25.9543 21.3388 26.1034 20.7034 26.103C20.6276 26.1035 20.6276 26.1035 20.5504 26.104C20.4109 26.1048 20.2714 26.1052 20.132 26.1054C19.9813 26.1058 19.8306 26.1066 19.6799 26.1074C19.3849 26.1089 19.09 26.1098 18.795 26.1107C18.5551 26.1113 18.3152 26.1122 18.0753 26.1131C18.0412 26.1133 18.007 26.1134 17.9718 26.1135C17.9023 26.1138 17.8329 26.1141 17.7634 26.1144C17.1125 26.117 16.4616 26.119 15.8107 26.1209C15.2529 26.1225 14.6951 26.1246 14.1373 26.127C13.4889 26.1298 12.8405 26.1324 12.1921 26.1344C12.1229 26.1346 12.0537 26.1349 11.9844 26.1351C11.9504 26.1352 11.9163 26.1353 11.8812 26.1354C11.6419 26.1362 11.4025 26.1372 11.1632 26.1383C10.8711 26.1396 10.5791 26.1406 10.287 26.1411C10.1382 26.1414 9.98936 26.1419 9.84051 26.1427C9.67875 26.1435 9.517 26.1438 9.35523 26.144C9.30875 26.1443 9.26227 26.1447 9.21438 26.1451C8.67544 26.1441 8.21194 26.0737 7.76965 25.7357C7.74568 25.7176 7.72171 25.6995 7.69701 25.6809C7.35086 25.3984 7.13514 24.9593 7.06945 24.5084C7.03821 24.1856 7.04513 23.8607 7.04545 23.5366C7.04537 23.4614 7.04527 23.3862 7.04516 23.3109C7.0449 23.1047 7.04491 22.8986 7.04496 22.6924C7.04496 22.4698 7.04473 22.2473 7.04453 22.0247C7.04418 21.5888 7.04406 21.153 7.04404 20.7172C7.04402 20.3629 7.04393 20.0086 7.0438 19.6542C7.04343 18.6493 7.04323 17.6444 7.04326 16.6395C7.04327 16.5854 7.04327 16.5312 7.04327 16.4755C7.04327 16.4212 7.04327 16.367 7.04327 16.3112C7.04329 15.4324 7.04289 14.5537 7.04229 13.6749C7.04168 12.7723 7.04139 11.8696 7.04143 10.967C7.04144 10.4604 7.04133 9.95376 7.04087 9.44713C7.04049 9.01582 7.04039 8.58451 7.04068 8.1532C7.04082 7.93324 7.04082 7.71328 7.04046 7.49332C7.04012 7.29174 7.04018 7.09017 7.04055 6.88859C7.04062 6.81589 7.04054 6.74318 7.0403 6.67048C7.03807 5.93299 7.09083 5.262 7.59282 4.6963C8.07587 4.22585 8.62374 4.14879 9.26127 4.1511ZM8.1078 5.40299C7.92695 5.66272 7.88592 5.9445 7.88558 6.26009C7.88543 6.29152 7.88529 6.32294 7.88513 6.35532C7.88474 6.46037 7.88495 6.5654 7.88515 6.67045C7.885 6.74662 7.8848 6.8228 7.88457 6.89898C7.88406 7.10812 7.88407 7.31726 7.88417 7.5264C7.88418 7.75204 7.88372 7.97767 7.88332 8.2033C7.88261 8.64526 7.88238 9.08722 7.88234 9.52918C7.8823 9.88839 7.88212 10.2476 7.88185 10.6068C7.88111 11.6252 7.88072 12.6435 7.88078 13.6619C7.88079 13.7168 7.88079 13.7717 7.88079 13.8282C7.8808 13.8832 7.8808 13.9382 7.8808 13.9948C7.88084 14.8858 7.88003 15.7768 7.87884 16.6678C7.87762 17.5826 7.87704 18.4974 7.87711 19.4122C7.87714 19.9259 7.87691 20.4395 7.876 20.9531C7.87523 21.3904 7.87504 21.8276 7.87562 22.2649C7.87589 22.488 7.8759 22.711 7.87517 22.9341C7.8745 23.1384 7.87462 23.3427 7.87536 23.547C7.87549 23.6208 7.87533 23.6946 7.87486 23.7685C7.87263 24.1437 7.87094 24.4755 8.06553 24.8055C8.08819 24.8457 8.141 24.8725 8.13421 24.9273C8.06553 25.4816 13.7223 25.2484 16.5191 25.2484C16.5191 18.5825 16.5191 11.9165 16.5191 5.04861C15.3056 5.04861 14.0921 5.04861 12.8418 5.04861C12.8387 5.56356 12.8387 5.56356 12.8355 6.08891C12.834 6.30613 12.8325 6.52336 12.8309 6.74058C12.8283 7.08551 12.8259 7.43045 12.824 7.77539C12.8224 8.05342 12.8204 8.33145 12.8182 8.60948C12.8174 8.71566 12.8168 8.82185 12.8163 8.92803C12.8156 9.07652 12.8144 9.225 12.813 9.37349C12.8129 9.41759 12.8128 9.46168 12.8127 9.50712C12.8123 9.54762 12.8118 9.58812 12.8113 9.62984C12.8109 9.68252 12.8109 9.68252 12.8106 9.73626C12.7979 9.8468 12.7719 9.91616 12.715 10.01C12.5566 10.1206 12.4802 10.1154 12.2923 10.0986C12.1599 10.0416 12.1599 10.0416 12.0275 9.9629C11.9794 9.93492 11.9314 9.90694 11.8818 9.87811C11.832 9.84827 11.7821 9.8184 11.7323 9.78848C11.6336 9.72996 11.5347 9.67195 11.4357 9.61405C11.3922 9.58807 11.3487 9.56209 11.3039 9.53532C11.1949 9.46863 11.1949 9.46863 11.0665 9.47839C10.9853 9.52125 10.9057 9.56758 10.8271 9.61561C10.7559 9.65788 10.7559 9.65788 10.6833 9.70101C10.6082 9.74586 10.5333 9.79099 10.4588 9.83694C9.96306 10.1415 9.96306 10.1415 9.66289 10.0964C9.54388 10.0302 9.51671 9.96197 9.46037 9.83277C9.44105 9.6781 9.44188 9.52429 9.44209 9.36846C9.44144 9.29842 9.44144 9.29842 9.44079 9.22696C9.43951 9.07284 9.43912 8.91873 9.43874 8.76461C9.43803 8.65766 9.43726 8.55072 9.43644 8.44377C9.43443 8.16245 9.43317 7.88113 9.43207 7.59981C9.43081 7.31267 9.42884 7.02554 9.42693 6.73841C9.42329 6.17515 9.42042 5.61188 9.4181 5.04861C9.29829 5.04378 9.17867 5.04029 9.05882 5.03753C9.02537 5.03605 8.99191 5.03456 8.95745 5.03303C8.61654 5.02717 8.35594 5.15778 8.1078 5.40299Z" fill="#92949A"/>
<path d="M10.0402 5.14508C10.7002 5.14508 11.3602 5.14508 12.0402 5.14508C12.0402 6.46508 12.0402 7.78508 12.0402 9.14508C11.7827 9.0237 11.5251 8.90232 11.2597 8.77726C10.9461 8.71868 10.9461 8.71868 10.7053 8.81731C10.6692 8.83613 10.6331 8.85495 10.5959 8.87434C10.5412 8.90452 10.5412 8.90452 10.4854 8.93531C10.4113 8.97457 10.3373 9.01379 10.2632 9.05295C10.2309 9.07058 10.1986 9.0882 10.1653 9.10637C10.089 9.14508 10.089 9.14508 10.0402 9.14508C10.0402 7.82508 10.0402 6.50508 10.0402 5.14508Z" fill="white"/>
</svg>
