<svg width="31" height="31" viewBox="0 0 31 31" fill="none" xmlns="http://www.w3.org/2000/svg">
<g clip-path="url(#clip0_270_6018)">
<path d="M25.4732 5.88055C25.5551 6.01091 25.5551 6.01091 25.6184 6.17095C25.6566 6.23954 25.6949 6.30814 25.7343 6.37881C25.8441 6.62443 25.8646 6.78843 25.8675 7.05586C25.8689 7.14303 25.8703 7.23021 25.8718 7.32003C25.8725 7.45958 25.8725 7.45958 25.8732 7.60195C25.8744 7.69899 25.8758 7.79603 25.8772 7.89307C25.8806 8.14728 25.8828 8.40149 25.8847 8.65572C25.8868 8.91561 25.8902 9.17549 25.8935 9.43537C25.8997 9.94441 25.9046 10.4535 25.9086 10.9625C25.9584 10.9618 26.0081 10.961 26.0593 10.9602C26.2873 10.9572 26.5153 10.9553 26.7432 10.9534C26.8215 10.9522 26.8997 10.951 26.9802 10.9498C27.483 10.9467 27.9567 10.9488 28.4034 11.2075C28.6211 11.4254 28.6846 11.6302 28.6852 11.934C28.6857 11.9963 28.6861 12.0586 28.6866 12.1228C28.6862 12.223 28.6862 12.223 28.6857 12.3252C28.6859 12.3945 28.686 12.4637 28.6861 12.5351C28.6862 12.6817 28.686 12.8282 28.6854 12.9747C28.6846 13.1979 28.6854 13.4211 28.6863 13.6443C28.6862 13.7869 28.686 13.9295 28.6857 14.0721C28.686 14.1384 28.6863 14.2048 28.6866 14.2731C28.6839 14.6508 28.6438 14.9609 28.5213 15.3185C28.4973 15.3904 28.4734 15.4622 28.4487 15.5363C28.2718 15.7314 28.2718 15.7314 28.0859 15.8993C28.038 15.8993 27.9901 15.8993 27.9407 15.8993C27.9407 15.9472 27.9407 15.9951 27.9407 16.0445C27.8108 16.0932 27.6807 16.1415 27.5506 16.1897C27.4782 16.2166 27.4058 16.2436 27.3312 16.2714C27.1424 16.3349 27.1424 16.3349 26.9972 16.3349C26.9733 18.6827 26.9494 21.0306 26.9247 23.4496C27.1163 23.4736 27.3079 23.4975 27.5053 23.5222C27.7222 23.6022 27.8713 23.7013 28.0133 23.8852C28.0734 24.1262 28.0617 24.3512 28.045 24.5976C28.0427 24.6618 28.0404 24.7259 28.0381 24.792C28.0321 24.9497 28.023 25.1072 28.0133 25.2646C28.0971 25.2784 28.0971 25.2784 28.1825 25.2924C28.5165 25.3697 28.6983 25.5665 28.8842 25.8454C28.9609 26.2571 28.9504 26.5946 28.8842 27.007C28.9437 27.002 29.0032 26.9969 29.0645 26.9917C29.3009 26.9798 29.5201 26.9767 29.755 27.007C29.9764 27.2234 30.0369 27.3452 30.0635 27.6513C30.0575 27.7022 30.0515 27.7532 30.0453 27.8056C29.9974 27.8056 29.9495 27.8056 29.9002 27.8056C29.8712 27.841 29.8422 27.8764 29.8123 27.9128C29.6166 28.0795 29.4562 28.0506 29.2022 28.0506C29.1529 28.0509 29.1036 28.0512 29.0529 28.0515C28.8865 28.0522 28.7202 28.0514 28.5539 28.0506C28.4339 28.0508 28.314 28.0511 28.194 28.0514C27.8634 28.0522 27.5328 28.0516 27.2022 28.0508C26.846 28.0502 26.4898 28.0508 26.1336 28.0512C25.4354 28.0519 24.7372 28.0514 24.039 28.0506C23.2264 28.0496 22.4138 28.0497 21.6012 28.0498C20.1516 28.0501 18.7019 28.0492 17.2523 28.0478C15.8447 28.0464 14.4372 28.0459 13.0296 28.0463C11.4981 28.0468 9.96666 28.0467 8.43518 28.0459C8.27193 28.0458 8.10869 28.0457 7.94545 28.0457C7.86512 28.0456 7.78479 28.0456 7.70203 28.0455C7.13528 28.0452 6.56853 28.0453 6.00178 28.0454C5.31123 28.0456 4.62068 28.0452 3.93012 28.0441C3.57762 28.0436 3.22511 28.0433 2.8726 28.0436C2.55011 28.0439 2.22763 28.0436 1.90514 28.0427C1.78827 28.0424 1.6714 28.0425 1.55453 28.0428C1.39602 28.0431 1.23754 28.0426 1.07904 28.0419C0.990891 28.0418 0.902742 28.0418 0.811921 28.0417C0.580685 28.0234 0.422853 27.9845 0.217635 27.8782C0.0759398 27.6987 -0.0046375 27.5926 0.00898641 27.3609C0.085695 27.1965 0.145009 27.1176 0.290209 27.007C0.501976 26.9857 0.501976 26.9857 0.739257 26.9934C0.818121 26.9954 0.896985 26.9973 0.978239 26.9994C1.06875 27.0031 1.06875 27.0031 1.16109 27.007C1.15417 26.9448 1.14724 26.8825 1.14011 26.8184C1.09555 26.3586 1.06256 25.988 1.23366 25.555C1.30551 25.555 1.37736 25.555 1.45138 25.555C1.47533 25.4831 1.49928 25.4113 1.52396 25.3372C1.6916 25.3133 1.85925 25.2893 2.03197 25.2646C2.02159 25.1908 2.02159 25.1908 2.01099 25.1155C1.95612 24.6546 1.91583 24.1765 2.10455 23.74C2.23694 23.655 2.23694 23.655 2.39484 23.5948C2.44442 23.5736 2.494 23.5523 2.54509 23.5305C2.5943 23.5113 2.64351 23.4921 2.69421 23.4723C2.74379 23.4526 2.79337 23.4328 2.84446 23.4125C2.97543 23.377 2.97543 23.377 3.12057 23.4496C3.12057 23.4017 3.12057 23.3538 3.12057 23.3044C3.04873 23.2805 2.97688 23.2565 2.90285 23.2318C2.9747 23.2318 3.04655 23.2318 3.12057 23.2318C3.08465 19.7819 3.08465 19.7819 3.048 16.2623C2.85641 16.1664 2.66481 16.0706 2.46741 15.9719C2.28598 15.8176 2.28598 15.8176 2.17712 15.6815C2.17712 15.6336 2.17712 15.5857 2.17712 15.5363C2.12922 15.5123 2.08132 15.4884 2.03197 15.4637C1.76212 15.0221 1.69894 14.6083 1.70568 14.0999C1.70557 14.0345 1.70546 13.9691 1.70536 13.9018C1.70548 13.7646 1.70631 13.6274 1.70782 13.4901C1.70992 13.2814 1.70931 13.0729 1.70837 12.8641C1.70882 12.73 1.70943 12.596 1.71021 12.4619C1.71 12.4002 1.70979 12.3386 1.70957 12.275C1.71598 11.8646 1.78703 11.5544 1.9594 11.1803C2.41847 10.8725 3.1318 10.9535 3.66119 10.958C3.77189 10.9585 3.77189 10.9585 3.88482 10.959C4.06552 10.9598 4.2462 10.961 4.4269 10.9625C4.42641 10.9089 4.42593 10.8553 4.42543 10.8001C4.42106 10.2938 4.41775 9.78753 4.41562 9.28124C4.41448 9.02098 4.41295 8.76073 4.41047 8.50048C4.4081 8.2491 4.4068 7.99775 4.40624 7.74637C4.40564 7.60425 4.40395 7.46214 4.40223 7.32003C4.40221 7.23285 4.4022 7.14568 4.40218 7.05586C4.4017 6.97944 4.40121 6.90303 4.40071 6.82429C4.44328 6.47025 4.60039 6.18386 4.85327 5.935C4.88751 5.90018 4.92175 5.86537 4.95702 5.8295C5.27678 5.58481 5.60564 5.56911 5.99479 5.57136C6.07628 5.57098 6.07628 5.57098 6.15941 5.57059C6.33817 5.56995 6.51691 5.57037 6.69567 5.57086C6.82009 5.57077 6.94451 5.57063 7.06893 5.57044C7.32924 5.57023 7.58954 5.57054 7.84985 5.57122C8.18395 5.57205 8.51804 5.57157 8.85215 5.5707C9.10884 5.57018 9.36552 5.57034 9.62221 5.57072C9.74545 5.57082 9.86869 5.5707 9.99192 5.57036C10.1638 5.56999 10.3356 5.57055 10.5074 5.57136C10.5586 5.57107 10.6097 5.57077 10.6624 5.57047C11.0145 5.57356 11.0145 5.57356 11.1762 5.73535C11.1762 5.83118 11.1762 5.92701 11.1762 6.02575C11.2481 6.06168 11.2481 6.06168 11.3214 6.09835C11.3741 6.24201 11.4228 6.38726 11.4665 6.53394C11.3943 6.53437 11.322 6.53479 11.2476 6.53523C10.5673 6.53938 9.88707 6.54466 9.20683 6.55106C8.85709 6.55431 8.50736 6.55715 8.15761 6.55909C7.82021 6.56098 7.48283 6.56391 7.14544 6.56757C7.01659 6.56878 6.88774 6.56962 6.75889 6.57007C6.57868 6.57077 6.39852 6.5728 6.21832 6.57515C6.13806 6.575 6.13806 6.575 6.05618 6.57484C5.73951 6.5807 5.67855 6.58863 5.44293 6.82434C5.41898 8.2139 5.39503 9.60345 5.37035 11.0351C11.7888 11.0112 18.2071 10.9872 24.82 10.9625C24.7961 10.9146 24.7721 10.8667 24.7475 10.8173C24.7954 10.8173 24.8433 10.8173 24.8926 10.8173C24.8687 9.45172 24.8447 8.08612 24.82 6.67914C24.5064 6.61639 24.2281 6.59708 23.912 6.59945C23.8315 6.59961 23.8315 6.59961 23.7495 6.59977C23.6336 6.60005 23.5177 6.60049 23.4018 6.60109C23.2185 6.60201 23.0352 6.60249 22.8519 6.60284C22.4632 6.60367 22.0745 6.60506 21.6858 6.60654C21.2346 6.60825 20.7834 6.60973 20.3322 6.6106C20.1513 6.61108 19.9705 6.61198 19.7897 6.61291C19.6793 6.61317 19.569 6.61341 19.4586 6.61363C19.3829 6.61419 19.3829 6.61419 19.3056 6.61477C18.9581 6.61481 18.9581 6.61481 18.7964 6.53394C18.7964 6.41415 18.7964 6.29436 18.7964 6.17095C18.8683 6.17095 18.9401 6.17095 19.0142 6.17095C18.9902 6.09907 18.9663 6.0272 18.9416 5.95315C18.9895 5.95315 19.0374 5.95315 19.0867 5.95315C19.0867 5.85732 19.0867 5.76148 19.0867 5.66275C19.2989 5.55661 19.4906 5.57518 19.7275 5.56948C19.7785 5.56818 19.8295 5.56688 19.8821 5.56554C20.0515 5.56138 20.2208 5.55782 20.3902 5.55442C20.4483 5.55323 20.5063 5.55204 20.5661 5.55082C20.8739 5.54464 21.1817 5.539 21.4895 5.53371C21.7431 5.52925 21.9966 5.52372 22.2501 5.51719C22.5571 5.5093 22.864 5.5033 23.171 5.49859C23.2874 5.49651 23.4038 5.49379 23.5201 5.4904C24.2136 5.47078 24.8723 5.48017 25.4732 5.88055ZM3.38819 13.6805C3.32752 13.6842 3.26685 13.688 3.20435 13.6919C3.05544 13.7013 2.90657 13.7112 2.75771 13.7213C2.69357 14.388 2.69357 14.388 2.87564 15.0099C3.15048 15.2704 3.36463 15.3142 3.73745 15.3276C4.04597 15.2284 4.16648 15.1182 4.3478 14.8545C4.49973 14.4906 4.45868 14.1075 4.4269 13.7213C4.07696 13.625 3.74555 13.6559 3.38819 13.6805ZM5.37035 13.7213C5.36436 13.8935 5.35838 14.0657 5.35221 14.2431C5.34957 14.2967 5.34692 14.3502 5.3442 14.4054C5.33989 14.6626 5.36388 14.8001 5.50303 15.0182C5.70933 15.2212 5.82764 15.3127 6.11877 15.3457C6.43354 15.3137 6.57851 15.2262 6.82182 15.0281C7.00006 14.7606 6.98345 14.56 6.97604 14.2522C6.97305 14.077 6.97005 13.9018 6.96697 13.7213C6.44009 13.7213 5.9132 13.7213 5.37035 13.7213ZM7.91042 13.7213C7.88037 14.3902 7.88834 14.7303 8.32319 15.2459C8.59334 15.3628 8.86268 15.3149 9.14417 15.2459C9.38308 15.0866 9.45927 14.9952 9.57961 14.7377C9.60583 14.4776 9.60583 14.4776 9.59322 14.2068C9.58873 14.0466 9.58424 13.8864 9.57961 13.7213C9.02878 13.7213 8.47795 13.7213 7.91042 13.7213ZM10.5231 13.7213C10.468 14.5075 10.468 14.5075 10.8134 15.1733C11.1434 15.3493 11.3965 15.318 11.7568 15.2459C11.7808 15.1501 11.8047 15.0542 11.8294 14.9555C11.9252 14.9315 12.021 14.9076 12.1197 14.8829C12.205 14.4775 12.1923 14.1579 12.1923 13.7213C11.6414 13.7213 11.0906 13.7213 10.5231 13.7213ZM13.1357 13.7213C13.1312 13.8815 13.1267 14.0417 13.1221 14.2068C13.1196 14.2969 13.1171 14.387 13.1145 14.4799C13.1371 14.7546 13.1891 14.8831 13.3534 15.1007C13.6396 15.3313 13.8628 15.3458 14.2243 15.3185C14.2722 15.2945 14.3201 15.2706 14.3695 15.2459C14.3695 15.198 14.3695 15.1501 14.3695 15.1007C14.4144 15.0857 14.4593 15.0707 14.5055 15.0553C14.7316 14.909 14.748 14.7809 14.8049 14.5199C14.8401 14.1084 14.8401 14.1084 14.7323 13.7213C14.2054 13.7213 13.6786 13.7213 13.1357 13.7213ZM15.6758 13.7213C15.6536 14.4739 15.6536 14.4739 15.9343 15.1279C16.1984 15.304 16.4493 15.342 16.7644 15.3185C17.0609 15.1729 17.2313 15.0475 17.345 14.7377C17.3625 14.483 17.3625 14.483 17.354 14.2113C17.3511 14.0496 17.3481 13.8879 17.345 13.7213C16.7941 13.7213 16.2433 13.7213 15.6758 13.7213ZM18.2884 13.7213C18.2869 13.8725 18.2854 14.0238 18.2839 14.1796C18.2831 14.2646 18.2822 14.3497 18.2813 14.4374C18.2776 14.6673 18.2776 14.6673 18.361 14.8829C18.4089 14.8829 18.4568 14.8829 18.5062 14.8829C18.5062 14.9548 18.5062 15.0266 18.5062 15.1007C18.811 15.2749 19.0248 15.3635 19.377 15.3185C19.6306 15.1974 19.7273 15.1196 19.885 14.8829C19.9533 14.48 19.9576 14.1396 19.9576 13.7213C19.4068 13.7213 18.856 13.7213 18.2884 13.7213ZM20.9011 13.7213C20.838 14.3884 20.838 14.3884 21.0281 15.0099C21.2752 15.2571 21.3884 15.3119 21.7402 15.3366C21.9985 15.3385 21.9985 15.3385 22.2074 15.1733C22.2074 15.1254 22.2074 15.0775 22.2074 15.0281C22.2792 15.0041 22.3511 14.9802 22.4251 14.9555C22.4861 14.8222 22.4861 14.8222 22.5158 14.6651C22.5282 14.6127 22.5405 14.5603 22.5533 14.5063C22.5617 14.4411 22.5617 14.4411 22.5703 14.3747C22.5463 14.3507 22.5224 14.3268 22.4977 14.3021C22.5216 14.1104 22.5456 13.9188 22.5703 13.7213C22.0194 13.7213 21.4686 13.7213 20.9011 13.7213ZM23.5137 13.7213C23.5092 13.8815 23.5047 14.0417 23.5001 14.2068C23.4976 14.2969 23.4951 14.387 23.4925 14.4799C23.5151 14.7546 23.5672 14.8831 23.7314 15.1007C23.944 15.272 24.0759 15.3162 24.3483 15.3502C24.6457 15.3131 24.7556 15.2377 24.9652 15.0281C25.1434 14.7606 25.1268 14.56 25.1194 14.2522C25.1164 14.077 25.1134 13.9018 25.1103 13.7213C24.5835 13.7213 24.0566 13.7213 23.5137 13.7213ZM26.0538 13.7213C26.0023 14.4489 26.0023 14.4489 26.2715 15.1007C26.3194 15.1246 26.3673 15.1486 26.4167 15.1733C26.4885 15.2212 26.5604 15.2691 26.6344 15.3185C26.909 15.3439 27.0951 15.338 27.351 15.2323C27.5372 15.0735 27.5584 14.9774 27.5778 14.7377C27.6257 14.7377 27.6736 14.7377 27.723 14.7377C27.723 14.4023 27.723 14.0669 27.723 13.7213C27.1722 13.7213 26.6213 13.7213 26.0538 13.7213ZM7.11212 19.2389C7.03885 19.4587 7.03076 19.6048 7.0313 19.8346C7.03131 19.9116 7.03131 19.9886 7.03132 20.068C7.03169 20.151 7.03207 20.2341 7.03246 20.3196C7.03256 20.4047 7.03266 20.4898 7.03277 20.5775C7.03317 20.8497 7.03408 21.1219 7.03501 21.3942C7.03537 21.5785 7.0357 21.7629 7.036 21.9473C7.0368 22.3997 7.03801 22.8521 7.03954 23.3044C7.1549 23.3164 7.27027 23.3283 7.38565 23.3401C7.44989 23.3468 7.51414 23.3534 7.58033 23.3602C8.20802 23.4173 8.84244 23.3822 9.47019 23.3402C9.52299 23.3367 9.5758 23.3333 9.6302 23.3298C9.75849 23.3215 9.88678 23.313 10.0151 23.3044C10.0169 22.7488 10.0182 22.1931 10.019 21.6374C10.0194 21.4483 10.0199 21.2591 10.0205 21.07C10.0214 20.7986 10.0218 20.5272 10.0221 20.2558C10.0225 20.1708 10.0229 20.0858 10.0233 19.9982C10.0233 19.9198 10.0233 19.8413 10.0233 19.7604C10.0235 19.6911 10.0236 19.6218 10.0238 19.5504C10.026 19.3819 10.026 19.3819 9.94248 19.2389C9.89458 19.2389 9.84668 19.2389 9.79733 19.2389C9.79733 19.1909 9.79733 19.143 9.79733 19.0937C9.44991 19.0901 9.1025 19.0874 8.75507 19.0857C8.63687 19.085 8.51868 19.084 8.40049 19.0827C8.23061 19.0809 8.06075 19.0801 7.89086 19.0795C7.83801 19.0787 7.78516 19.078 7.73071 19.0772C7.45954 19.0771 7.34386 19.0843 7.11212 19.2389Z" fill="#92949A"/>
<path d="M13.1358 0.217786C13.4766 0.456282 13.6949 0.725111 13.9205 1.07083C14.0925 1.34727 14.0925 1.34727 14.297 1.59718C14.7645 1.67587 15.4562 1.77898 15.8751 1.51837C16.1064 1.29152 16.2514 1.00958 16.4016 0.725982C16.7031 0.321084 16.7031 0.321084 16.9096 0.217786C17.2041 0.180692 17.5044 0.151227 17.7748 0.288684C17.9817 0.455694 18.1194 0.625907 18.2159 0.871181C18.2327 1.06402 18.2327 1.06402 18.2296 1.27048C18.2291 1.33861 18.2286 1.40674 18.2281 1.47693C18.2173 1.64845 18.1918 1.79589 18.1434 1.96017C18.2565 1.97618 18.2565 1.97618 18.3719 1.9925C19.0424 2.09675 19.6831 2.21751 20.1533 2.75395C20.317 3.01327 20.3531 3.25361 20.3206 3.55736C20.1675 3.90929 19.9622 4.25005 19.6674 4.50116C19.6195 4.50116 19.5716 4.50116 19.5223 4.50116C19.5223 4.54907 19.5223 4.59699 19.5223 4.64636C19.2481 4.81206 19.0211 4.93691 18.7104 5.01389C18.5006 5.08665 18.4465 5.12977 18.3427 5.33038C18.2941 5.47122 18.2485 5.61309 18.2057 5.75577C18.1012 6.08674 17.8974 6.33237 17.6853 6.60201C17.5276 6.88816 17.5827 7.0143 17.6354 7.33254C17.7141 8.55042 17.7141 8.55042 17.3451 9.00233C16.8859 9.49356 16.3909 9.76554 15.713 9.81377C13.6933 9.86123 13.6933 9.86123 12.8954 9.19772C12.5581 8.85952 12.3625 8.50498 12.3245 8.02564C12.3407 7.79494 12.4066 7.59453 12.4736 7.37338C12.5633 7.03471 12.5633 7.03471 12.4721 6.70835C12.3838 6.58999 12.2919 6.47429 12.1969 6.36124C11.9119 5.99891 11.6118 5.47855 11.6118 5.00935C11.5429 5.00636 11.474 5.00337 11.4031 5.00028C10.8533 4.91788 10.4192 4.58425 10.0832 4.15631C9.79121 3.75221 9.75739 3.4728 9.79742 2.97657C9.91671 2.61858 10.1794 2.49933 10.4976 2.3314C10.8373 2.17055 11.1113 2.08493 11.4893 2.06C11.5668 2.05457 11.6444 2.04914 11.7243 2.04355C11.8123 2.03822 11.8123 2.03822 11.9021 2.03277C11.8901 1.97587 11.8781 1.91897 11.8658 1.86035C11.7959 1.35353 11.7381 0.872749 12.0472 0.435584C12.3452 0.164604 12.7523 0.1301 13.1358 0.217786ZM12.8455 1.45198C12.9181 1.59718 12.9181 1.59718 12.9181 1.59718L12.8455 1.45198ZM17.0548 1.52458C17.1273 1.66978 17.1273 1.66978 17.1273 1.66978L17.0548 1.52458ZM16.9822 1.66978C16.9393 1.7249 16.8963 1.78002 16.8521 1.83681C16.7661 1.94504 16.7661 1.94504 16.6783 2.05546C16.6219 2.12705 16.5655 2.19865 16.5073 2.27241C16.2785 2.5239 16.0942 2.66716 15.7532 2.71781C15.5005 2.72316 15.2482 2.7266 14.9955 2.72701C14.8641 2.73101 14.8641 2.73101 14.7301 2.73509C14.0097 2.73865 14.0097 2.73865 13.7033 2.4834C13.5516 2.32398 13.4143 2.15718 13.2991 1.96925C13.2183 1.85695 13.2183 1.85695 13.1358 1.74238C13.064 1.74238 12.9921 1.74238 12.9181 1.74238C13.0572 2.37876 13.0572 2.37876 13.4261 2.90397C13.29 3.18529 13.29 3.18529 13.2084 3.26697C12.9577 3.29832 12.7769 3.24579 12.5461 3.15807C12.0711 2.99146 11.6077 2.97545 11.131 3.13992C10.9489 3.25073 10.9489 3.25073 10.8951 3.42578C10.8921 3.4692 10.8891 3.51262 10.886 3.55736C11.2421 3.88753 11.5306 4.07687 12.0393 4.05762C12.2363 4.04044 12.4318 4.0192 12.6278 3.99296C12.6227 4.10077 12.6227 4.10077 12.6176 4.21076C12.5901 5.03766 12.7575 5.45837 13.2517 6.10884C13.5855 6.55059 13.5855 6.55059 13.5517 6.85554C13.5249 6.9918 13.4968 7.12783 13.4678 7.26363C13.4016 7.60372 13.3627 7.93336 13.4261 8.27633C13.7227 8.63089 14.0881 8.75749 14.5372 8.80064C14.722 8.80918 14.9058 8.81148 15.0907 8.81175C15.1528 8.81353 15.2149 8.81531 15.2788 8.81714C15.7133 8.81913 16.0389 8.73934 16.4016 8.49413C16.6415 8.23164 16.6471 7.98352 16.6369 7.64251C16.622 7.4581 16.622 7.4581 16.5422 7.21003C16.4389 6.84492 16.4969 6.63364 16.6647 6.298C16.8396 6.00866 17.0387 5.73557 17.2371 5.46197C17.4348 5.16501 17.4388 4.86922 17.4585 4.52385C17.4616 4.47289 17.4647 4.42193 17.468 4.36943C17.4756 4.24396 17.483 4.11846 17.4902 3.99296C17.535 4.00073 17.5798 4.0085 17.626 4.0165C18.0869 4.08176 18.4511 4.0659 18.8691 3.84776C19.0118 3.73539 19.1145 3.62503 19.232 3.48476C19.1899 3.33966 19.1899 3.33966 19.0868 3.19437C18.4678 2.89949 17.8277 3.08768 17.1937 3.22783C17.0593 3.25335 17.0593 3.25335 16.837 3.26697C16.6964 3.1626 16.6964 3.1626 16.6193 3.04917C16.6957 2.8905 16.7736 2.7455 16.8733 2.59996C17.0198 2.32518 17.071 2.04674 17.1273 1.74238C17.0555 1.70644 17.0555 1.70644 16.9822 1.66978Z" fill="#92949A"/>
<path d="M10.9588 28.6666C11.0338 28.6662 11.1088 28.6658 11.1861 28.6654C11.3094 28.6653 11.3094 28.6653 11.4353 28.6651C11.5219 28.6648 11.6085 28.6644 11.6978 28.664C11.9354 28.6632 12.1731 28.6626 12.4108 28.6623C12.5592 28.6621 12.7077 28.6618 12.8562 28.6615C13.3207 28.6605 13.7853 28.6598 14.2498 28.6595C14.7861 28.6592 15.3223 28.6579 15.8586 28.6558C16.2732 28.6542 16.6877 28.6535 17.1023 28.6534C17.3499 28.6533 17.5975 28.6529 17.8451 28.6516C18.1212 28.6503 18.3972 28.6505 18.6733 28.651C18.7554 28.6503 18.8375 28.6496 18.9221 28.6489C19.0349 28.6495 19.0349 28.6495 19.1499 28.6502C19.2152 28.65 19.2805 28.6499 19.3477 28.6498C19.5589 28.6825 19.6592 28.7477 19.8126 28.8946C19.8409 29.0747 19.8409 29.0747 19.8307 29.2712C19.8281 29.3367 19.8255 29.4021 19.8228 29.4695C19.8194 29.5194 19.816 29.5692 19.8126 29.6206C19.6057 29.6896 19.4678 29.7045 19.2526 29.7093C19.1488 29.7118 19.1488 29.7118 19.0428 29.7144C18.9682 29.7158 18.8935 29.7173 18.8167 29.7187C18.74 29.7204 18.6633 29.7221 18.5843 29.7238C18.4222 29.7273 18.2602 29.7306 18.0981 29.7337C17.8493 29.7386 17.6005 29.7442 17.3517 29.7499C17.1944 29.7532 17.0371 29.7564 16.8799 29.7596C16.8051 29.7613 16.7303 29.7631 16.6533 29.7648C16.5843 29.7661 16.5152 29.7673 16.4441 29.7686C16.3832 29.7698 16.3223 29.771 16.2595 29.7723C16.1113 29.7658 16.1113 29.7658 15.9662 29.6932C16.038 29.801 16.038 29.801 16.1113 29.911C16.3045 29.9469 16.3045 29.9469 16.5306 29.9456C16.6143 29.9479 16.698 29.9501 16.7842 29.9524C16.9159 29.9544 16.9159 29.9544 17.0502 29.9564C17.2233 29.9601 17.3963 29.9641 17.5693 29.9683C17.6848 29.9702 17.6848 29.9702 17.8026 29.9722C17.9982 29.9836 17.9982 29.9836 18.2159 30.0562C18.2658 30.206 18.2658 30.206 18.2885 30.3466C18.3364 30.3466 18.3843 30.3466 18.4337 30.3466C18.3939 30.5916 18.3571 30.7156 18.2159 30.9274C17.9522 31.0352 17.6597 31.0123 17.3788 31.014C17.2968 31.0149 17.2968 31.0149 17.2131 31.0158C17.0327 31.0176 16.8522 31.0188 16.6718 31.0199C16.5792 31.0204 16.5792 31.0204 16.4847 31.021C16.1582 31.023 15.8317 31.0244 15.5052 31.0254C15.235 31.0264 14.965 31.0284 14.6949 31.0314C14.3684 31.035 14.042 31.0368 13.7156 31.0373C13.5913 31.0378 13.467 31.0389 13.3428 31.0406C13.1688 31.0429 12.9951 31.0429 12.8211 31.0424C12.7444 31.0442 12.7444 31.0442 12.6661 31.046C12.3889 31.0425 12.2705 31.0044 12.0487 30.8326C11.902 30.637 11.902 30.637 11.902 30.3693C11.9746 30.1288 11.9746 30.1288 12.1923 29.9836C12.3836 29.9671 12.3836 29.9671 12.6105 29.9694C12.7322 29.9701 12.7322 29.9701 12.8564 29.9709C12.9835 29.9727 12.9835 29.9727 13.1131 29.9745C13.2414 29.9755 13.2414 29.9755 13.3724 29.9765C13.5838 29.9782 13.7952 29.9806 14.0067 29.9836C14.0067 29.8878 14.0067 29.792 14.0067 29.6932C13.9637 29.6937 13.9207 29.6942 13.8764 29.6947C13.429 29.6995 12.9817 29.7028 12.5343 29.7052C12.3673 29.7063 12.2003 29.7078 12.0334 29.7097C11.7934 29.7123 11.5535 29.7135 11.3135 29.7145C11.2015 29.7162 11.2015 29.7162 11.0872 29.7179C11.0174 29.7179 10.9477 29.7179 10.8759 29.7179C10.8146 29.7184 10.7534 29.7189 10.6903 29.7194C10.4836 29.687 10.3851 29.6167 10.2329 29.4754C10.1648 29.303 10.1648 29.303 10.1603 29.1124C10.251 28.9128 10.251 28.9128 10.378 28.7494C10.5932 28.6777 10.7343 28.6674 10.9588 28.6666Z" fill="#92949A"/>
<path d="M23.3687 16.9883C23.7891 17.0988 24.0731 17.1806 24.3121 17.5691C24.4083 17.7615 24.395 17.9082 24.3964 18.1237C24.3971 18.2095 24.3978 18.2953 24.3985 18.3837C24.399 18.5234 24.399 18.5234 24.3994 18.666C24.3998 18.7615 24.4003 18.8569 24.4007 18.9552C24.4014 19.1576 24.4019 19.36 24.4021 19.5624C24.4025 19.821 24.4043 20.0796 24.4063 20.3382C24.408 20.5854 24.4082 20.8327 24.4085 21.0799C24.4094 21.1725 24.4103 21.2651 24.4112 21.3605C24.411 21.4472 24.4108 21.5339 24.4106 21.6232C24.411 21.7372 24.411 21.7372 24.4114 21.8535C24.3722 22.1715 24.261 22.4178 24.0264 22.6374C23.7508 22.7962 23.4961 22.8054 23.182 22.806C23.0997 22.8063 23.0173 22.8066 22.9325 22.8069C22.8425 22.8069 22.7525 22.8068 22.6598 22.8068C22.5648 22.807 22.4698 22.8073 22.3719 22.8075C22.1114 22.8082 21.851 22.8083 21.5905 22.8084C21.4278 22.8084 21.265 22.8086 21.1022 22.8088C20.5343 22.8095 19.9664 22.8098 19.3985 22.8097C18.8693 22.8097 18.34 22.8104 17.8108 22.8116C17.3562 22.8125 16.9017 22.8129 16.4471 22.8129C16.1757 22.8128 15.9043 22.813 15.6329 22.8138C15.3302 22.8146 15.0276 22.8143 14.7249 22.8139C14.6351 22.8143 14.5452 22.8147 14.4526 22.8151C14.3701 22.8148 14.2876 22.8145 14.2026 22.8142C14.1311 22.8142 14.0595 22.8143 13.9858 22.8143C13.5674 22.7759 13.3337 22.6037 13.0632 22.288C12.9819 22.0546 12.9806 21.8309 12.979 21.5851C12.9783 21.5022 12.9776 21.4193 12.9768 21.3339C12.9765 21.2447 12.9762 21.1554 12.9759 21.0635C12.9753 20.9255 12.9753 20.9255 12.9747 20.7847C12.974 20.59 12.9735 20.3953 12.9732 20.2006C12.9728 19.952 12.9711 19.7033 12.969 19.4547C12.9673 19.2165 12.9672 18.9784 12.9668 18.7403C12.9659 18.6514 12.965 18.5624 12.9641 18.4708C12.9655 17.9372 12.9876 17.5722 13.3807 17.1789C13.5892 17.0498 13.694 17.0334 13.9341 17.0609C13.9341 17.1088 13.9341 17.1567 13.9341 17.2061C13.8383 17.2061 13.7425 17.2061 13.6438 17.2061C13.6259 17.2495 13.6079 17.2929 13.5894 17.3377C13.4987 17.4965 13.4987 17.4965 13.3501 17.5906C13.1916 17.7036 13.1916 17.7036 13.172 17.8937C13.172 17.9649 13.172 18.0362 13.172 18.1097C13.1709 18.2311 13.1709 18.2311 13.1699 18.355C13.1707 18.4426 13.1715 18.5301 13.1724 18.6204C13.1723 18.7105 13.1722 18.8007 13.1721 18.8936C13.1722 19.0847 13.1729 19.2757 13.1745 19.4668C13.1762 19.6621 13.1767 19.8573 13.176 20.0526C13.1751 20.3345 13.1757 20.6163 13.1769 20.8982C13.1767 20.985 13.1765 21.0718 13.1763 21.1613C13.1815 21.6329 13.2061 22.0113 13.4261 22.4332C13.656 22.5891 13.8526 22.5971 14.126 22.5987C14.2094 22.5995 14.2929 22.6003 14.3789 22.6011C14.4701 22.6013 14.5614 22.6014 14.6554 22.6016C14.7527 22.6023 14.8499 22.603 14.9472 22.6038C15.2111 22.6058 15.475 22.6069 15.7389 22.6078C16.0147 22.609 16.2906 22.6109 16.5664 22.6128C17.0887 22.6162 17.6109 22.6188 18.1332 22.6212C18.7278 22.624 19.3225 22.6276 19.9171 22.6313C21.1402 22.6388 22.3633 22.6452 23.5864 22.651C23.5864 22.6031 23.5864 22.5552 23.5864 22.5058C23.5385 22.5058 23.4906 22.5058 23.4412 22.5058C23.4412 22.4579 23.4412 22.41 23.4412 22.3606C23.7286 22.2528 23.7286 22.2528 24.0218 22.1428C23.9979 22.0231 23.9739 21.9033 23.9493 21.7799C23.664 21.8216 23.664 21.8216 23.4412 21.9976C23.2907 22.0157 23.2907 22.0157 23.1013 22.0156C23.0296 22.0159 22.9579 22.0162 22.884 22.0165C22.7655 22.0159 22.7655 22.0159 22.6446 22.0153C22.5617 22.0154 22.4787 22.0156 22.3932 22.0157C22.1175 22.016 21.8417 22.0152 21.5659 22.0144C21.3744 22.0143 21.1829 22.0143 20.9914 22.0143C20.5891 22.0142 20.1867 22.0136 19.7843 22.0126C19.3208 22.0115 18.8573 22.0111 18.3938 22.0111C17.9469 22.0112 17.4999 22.0108 17.053 22.0102C16.8634 22.01 16.6739 22.0098 16.4844 22.0098C16.2183 22.0096 15.9522 22.009 15.6861 22.0082C15.6084 22.0082 15.5308 22.0083 15.4508 22.0083C14.9658 22.0063 14.4889 21.9771 14.0067 21.925C14.1919 21.7398 14.2594 21.7612 14.5164 21.7596C14.5936 21.7588 14.6707 21.758 14.7502 21.7572C14.8352 21.757 14.9202 21.7569 15.0077 21.7567C15.0969 21.756 15.1861 21.7552 15.2781 21.7545C15.5231 21.7526 15.768 21.7514 16.013 21.7505C16.2689 21.7493 16.5248 21.7474 16.7807 21.7455C17.2655 21.7421 17.7502 21.7395 18.235 21.7371C18.7868 21.7343 19.3386 21.7307 19.8904 21.727C21.0256 21.7195 22.1608 21.7132 23.2961 21.7073C23.32 20.5094 23.344 19.3115 23.3687 18.0773C20.3032 18.1012 17.2377 18.1252 14.0793 18.1499C14.0793 19.3478 14.0793 20.5457 14.0793 21.7799C14.0074 21.7799 13.9356 21.7799 13.8615 21.7799C13.8597 21.2449 13.8584 20.7099 13.8576 20.1749C13.8572 19.9928 13.8567 19.8107 13.8561 19.6286C13.8552 19.3673 13.8548 19.106 13.8544 18.8447C13.8541 18.7628 13.8537 18.681 13.8533 18.5967C13.8533 18.4834 13.8533 18.4834 13.8533 18.3677C13.8531 18.301 13.853 18.2342 13.8528 18.1655C13.8615 18.0047 13.8615 18.0047 13.9341 17.8595C14.004 17.859 14.004 17.859 14.0754 17.8585C15.2086 17.8511 16.3418 17.8432 17.475 17.8348C18.023 17.8308 18.571 17.8269 19.119 17.8234C19.5965 17.8203 20.074 17.8169 20.5516 17.8132C20.8045 17.8113 21.0575 17.8095 21.3104 17.808C21.5925 17.8063 21.8745 17.8041 22.1566 17.8018C22.2409 17.8014 22.3252 17.8009 22.412 17.8005C22.4886 17.7998 22.5651 17.7991 22.6439 17.7984C22.7441 17.7977 22.7441 17.7977 22.8463 17.7969C23.009 17.7971 23.009 17.7971 23.1509 17.7143C23.1509 17.7622 23.1509 17.8101 23.1509 17.8595C23.2228 17.8595 23.2946 17.8595 23.3687 17.8595C23.4645 17.6439 23.5603 17.4282 23.659 17.2061C23.5153 17.1701 23.5153 17.1701 23.3687 17.1335C23.3687 17.0856 23.3687 17.0376 23.3687 16.9883Z" fill="#92949A"/>
<path d="M8.37623 28.635C8.52223 28.636 8.66788 28.6335 8.81385 28.6307C8.95256 28.631 8.95256 28.631 9.09408 28.6312C9.1785 28.6311 9.26293 28.6311 9.34991 28.631C9.64598 28.69 9.75556 28.808 9.94257 29.0398C9.96837 29.2542 9.91728 29.4059 9.86999 29.6206C9.50077 29.7437 9.10803 29.7096 8.72159 29.7107C8.56899 29.7114 8.41646 29.7136 8.26388 29.7159C8.16659 29.7164 8.06931 29.7168 7.97203 29.717C7.83957 29.7181 7.83957 29.7181 7.70443 29.7191C7.45692 29.6912 7.35488 29.6553 7.18477 29.4754C7.14419 29.1963 7.13154 29.0391 7.30244 28.8084C7.61664 28.5689 7.99494 28.6313 8.37623 28.635Z" fill="#92949A"/>
<path d="M21.4727 28.6632C21.5665 28.6623 21.6603 28.6614 21.757 28.6605C21.8471 28.6604 21.9372 28.6602 22.03 28.6601C22.1127 28.6598 22.1954 28.6595 22.2806 28.6592C22.4927 28.6764 22.6126 28.7045 22.7881 28.822C22.8795 29.005 22.8547 29.1018 22.8289 29.303C22.8178 29.392 22.8178 29.392 22.8065 29.4828C22.8004 29.5283 22.7943 29.5737 22.7881 29.6206C22.4187 29.7438 22.0263 29.7124 21.6397 29.7146C21.5375 29.7155 21.4354 29.717 21.3333 29.7191C21.1855 29.7222 21.0379 29.7234 20.8901 29.7241C20.7576 29.7257 20.7576 29.7257 20.6225 29.7273C20.3503 29.6868 20.2696 29.6166 20.1029 29.4028C20.0303 29.2621 20.0303 29.2621 20.0303 29.1124C20.4107 28.5482 20.8414 28.6635 21.4727 28.6632Z" fill="#92949A"/>
<path d="M14.3696 7.33257C14.5586 7.44993 14.5863 7.5477 14.6598 7.75909C14.6598 7.98597 14.6598 7.98597 14.5056 8.19469C14.2839 8.35865 14.2013 8.38715 13.9341 8.34896C13.9341 8.30105 13.9341 8.25313 13.9341 8.20377C13.8623 8.17981 13.7904 8.15585 13.7164 8.13117C13.6347 7.72279 13.6347 7.72279 13.7164 7.47777C13.9682 7.30986 14.0736 7.30173 14.3696 7.33257Z" fill="#92949A"/>
<path d="M15.8936 7.29169C16.1113 7.33252 16.1113 7.33252 16.2882 7.4868C16.4016 7.69552 16.4016 7.69552 16.3925 7.92693C16.329 8.13112 16.329 8.13112 16.1839 8.27632C15.9711 8.29659 15.8099 8.31054 15.6033 8.27632C15.425 8.12585 15.3937 8.03212 15.3538 7.80442C15.4113 7.47608 15.5731 7.3518 15.8936 7.29169Z" fill="#92949A"/>
<path d="M15.9798 4.09282C16.0232 4.1078 16.0666 4.12277 16.1113 4.1382C16.1567 4.31062 16.1567 4.31062 16.1839 4.5012C16.136 4.54911 16.0881 4.59703 16.0387 4.6464C15.8482 4.61917 15.8482 4.61917 15.6759 4.5738C15.6519 4.45401 15.628 4.33422 15.6033 4.2108C15.821 4.0656 15.821 4.0656 15.9798 4.09282Z" fill="#92949A"/>
<path d="M14.3695 4.13817C14.3935 4.25796 14.4174 4.37775 14.4421 4.50117C14.3224 4.54909 14.2026 4.597 14.0793 4.64637C13.9659 4.55562 13.9659 4.55562 13.8615 4.42857C13.8751 4.2743 13.8751 4.2743 13.9341 4.13817C14.1149 4.04775 14.1816 4.08178 14.3695 4.13817Z" fill="#92949A"/>
<path d="M25.9087 10.1639C25.9324 10.1639 25.9561 10.1639 25.9805 10.1639C25.9805 10.3316 25.9805 10.4994 25.9805 10.6721C25.9568 10.6721 25.9331 10.6721 25.9087 10.6721C25.9087 10.5044 25.9087 10.3367 25.9087 10.1639Z" fill="#92949A"/>
<path d="M16.9096 16.2623C17.1999 16.3349 17.1999 16.3349 17.1999 16.3349L16.9096 16.2623Z" fill="#92949A"/>
<path d="M25.9087 7.33258C25.9805 7.62298 25.9805 7.62298 25.9805 7.62298L25.9087 7.33258Z" fill="#92949A"/>
<path d="M28.5939 25.4099C28.7391 25.4825 28.7391 25.4825 28.7391 25.4825L28.5939 25.4099Z" fill="#92949A"/>
<path d="M24.2395 16.3349C24.3847 16.4075 24.3847 16.4075 24.3847 16.4075L24.2395 16.3349Z" fill="#92949A"/>
<path d="M21.772 16.3349C21.9172 16.4075 21.9172 16.4075 21.9172 16.4075L21.772 16.3349Z" fill="#92949A"/>
<path d="M6.16875 16.3349C6.31389 16.4075 6.31389 16.4075 6.31389 16.4075L6.16875 16.3349Z" fill="#92949A"/>
<path d="M22.1349 16.2623C22.2801 16.3349 22.2801 16.3349 22.2801 16.3349L22.1349 16.2623Z" fill="#92949A"/>
<path d="M26.7796 15.1733C26.9248 15.2459 26.9248 15.2459 26.9248 15.2459L26.7796 15.1733Z" fill="#92949A"/>
</g>
<defs>
<clipPath id="clip0_270_6018">
<rect width="30.3357" height="31" fill="white"/>
</clipPath>
</defs>
</svg>
