<svg width="402" height="874" viewBox="0 0 402 874" fill="none" xmlns="http://www.w3.org/2000/svg">
<g clip-path="url(#clip0_210_7725)">
<rect width="402" height="874" fill="white"/>
<rect width="144" height="5" rx="2.5" transform="matrix(-1 0 0 1 273 861)" fill="black"/>
<g filter="url(#filter0_d_210_7725)">
<path d="M378.528 807.714C392.04 802.704 401.999 774.84 401.999 774.84V874H0V813.266C0 813.266 89.3372 890.858 125.843 852.27C139.334 838.009 132.727 816.756 148.315 805.466C175.827 785.539 191.782 840.161 224.221 845.583C253.741 850.518 295.448 836.911 279.651 801.008C263.855 765.105 224.221 772.034 229.714 751.418C254.183 709.629 288.64 839.454 313.11 819.953C325.033 810.45 272.427 775.209 285.644 768.153C298.711 761.178 300.702 795.413 315.107 797.108C335.542 799.511 289.14 768.691 303.622 762.005C335.938 747.084 318.603 813.286 333.584 807.714C341.17 804.893 320.101 724.434 342.573 720.773C365.045 717.111 331.087 809.923 349.564 819.953C371.142 831.665 345.635 760.999 369.539 758.662C393.814 756.288 355.404 816.288 378.528 807.714Z" fill="#5F9DF9"/>
<path d="M211.396 744.935C211.396 741.889 212.127 739.42 214.862 739.42C217.596 739.42 220.307 741.889 220.307 744.935C220.307 747.982 218.586 749.348 215.852 749.348C213.118 749.348 211.396 747.982 211.396 744.935Z" fill="#5F9DF9"/>
<path d="M235.16 736.969C235.16 735.276 237.106 733.904 238.625 733.904C240.144 733.904 241.1 735.276 241.1 736.969C241.1 738.661 239.099 739.42 237.58 739.42C236.061 739.42 235.16 738.661 235.16 736.969Z" fill="#5F9DF9"/>
<path d="M318.827 714.539C318.827 711.831 322.071 709.636 324.603 709.636C327.134 709.636 328.728 711.831 328.728 714.539C328.728 717.246 325.392 718.461 322.861 718.461C320.329 718.461 318.827 717.246 318.827 714.539Z" fill="#5F9DF9"/>
<path d="M345.561 714.539C345.561 712.394 348.036 711.291 349.356 711.291C351.888 711.291 353.482 712.394 353.482 714.539C353.482 716.684 351.888 719.012 349.356 719.012C346.825 719.012 345.561 717.246 345.561 714.539Z" fill="#5F9DF9"/>
</g>
<g filter="url(#filter1_d_210_7725)">
<path d="M23.3211 71.762C9.83128 77.1853 -0.112305 107.352 -0.112305 107.352V0H401.247V65.7511C401.247 65.7511 312.052 -18.2507 275.604 23.5256C262.134 38.9645 268.731 61.9731 253.168 74.1961C225.7 95.7692 209.77 36.6343 177.383 30.7642C147.91 25.4221 106.269 40.1525 122.04 79.022C137.812 117.891 177.383 110.389 171.899 132.709C147.468 177.95 113.066 37.3997 88.6354 58.5124C76.7312 68.7999 129.254 106.952 116.057 114.591C103.011 122.143 101.024 85.079 86.6411 83.2445C66.2394 80.6423 112.567 114.009 98.1085 121.247C65.8431 137.401 83.151 65.7298 68.1935 71.762C60.6201 74.8163 81.6553 161.922 59.219 165.886C36.7828 169.85 70.6864 69.3704 52.2389 58.5124C30.6951 45.8319 56.162 122.337 32.2956 124.867C8.0592 127.436 46.409 62.48 23.3211 71.762Z" fill="#5F9DF9"/>
<path d="M192.807 104.464C192.807 106.93 192.261 108.928 190.22 108.928C188.179 108.928 186.155 106.93 186.155 104.464C186.155 101.999 187.44 100.893 189.481 100.893C191.522 100.893 192.807 101.999 192.807 104.464Z" fill="#5F9DF9"/>
<path d="M175.069 110.912C175.069 112.282 173.616 113.393 172.482 113.393C171.348 113.393 170.634 112.282 170.634 110.912C170.634 109.543 172.128 108.928 173.262 108.928C174.396 108.928 175.069 109.543 175.069 110.912Z" fill="#5F9DF9"/>
<path d="M112.616 129.067C112.616 131.259 110.194 133.035 108.305 133.035C106.415 133.035 105.225 131.259 105.225 129.067C105.225 126.876 107.715 125.893 109.605 125.893C111.495 125.893 112.616 126.876 112.616 129.067Z" fill="#5F9DF9"/>
<path d="M92.6605 129.067C92.6605 130.803 90.8128 131.696 89.8273 131.696C87.9376 131.696 86.7478 130.803 86.7478 129.067C86.7478 127.331 87.9376 125.446 89.8273 125.446C91.7171 125.446 92.6605 126.876 92.6605 129.067Z" fill="#5F9DF9"/>
</g>
</g>
<defs>
<filter id="filter0_d_210_7725" x="-19.8029" y="693.793" width="441.605" height="203.97" filterUnits="userSpaceOnUse" color-interpolation-filters="sRGB">
<feFlood flood-opacity="0" result="BackgroundImageFix"/>
<feColorMatrix in="SourceAlpha" type="matrix" values="0 0 0 0 0 0 0 0 0 0 0 0 0 0 0 0 0 0 127 0" result="hardAlpha"/>
<feOffset dy="3.96058"/>
<feGaussianBlur stdDeviation="9.90145"/>
<feComposite in2="hardAlpha" operator="out"/>
<feColorMatrix type="matrix" values="0 0 0 0 0 0 0 0 0 0 0 0 0 0 0 0 0 0 0.25 0"/>
<feBlend mode="normal" in2="BackgroundImageFix" result="effect1_dropShadow_210_7725"/>
<feBlend mode="normal" in="SourceGraphic" in2="effect1_dropShadow_210_7725" result="shape"/>
</filter>
<filter id="filter1_d_210_7725" x="-14.894" y="-11.8254" width="430.923" height="195.563" filterUnits="userSpaceOnUse" color-interpolation-filters="sRGB">
<feFlood flood-opacity="0" result="BackgroundImageFix"/>
<feColorMatrix in="SourceAlpha" type="matrix" values="0 0 0 0 0 0 0 0 0 0 0 0 0 0 0 0 0 0 127 0" result="hardAlpha"/>
<feOffset dy="2.95634"/>
<feGaussianBlur stdDeviation="7.39086"/>
<feComposite in2="hardAlpha" operator="out"/>
<feColorMatrix type="matrix" values="0 0 0 0 0 0 0 0 0 0 0 0 0 0 0 0 0 0 0.25 0"/>
<feBlend mode="normal" in2="BackgroundImageFix" result="effect1_dropShadow_210_7725"/>
<feBlend mode="normal" in="SourceGraphic" in2="effect1_dropShadow_210_7725" result="shape"/>
</filter>
<clipPath id="clip0_210_7725">
<rect width="402" height="874" fill="white"/>
</clipPath>
</defs>
</svg>
